SplineFontDB: 3.0
FontName: Neuton-Italic
FullName: Neuton Italic
FamilyName: Neuton
Weight: Italic
Copyright: Copyright (c) 2010, 2011 Brian M Zick (http://21326.info/), \nwith Reserved Font Name "Neuton".\n\nThis Font Software is licensed under the SIL Open Font License, Version 1.1.This license is available with a FAQ at: http://scripts.sil.org/OFL\n   WITHOUT WARRANTIES OR CONDITIONS OF ANY KIND, either express or implied.\n   See the License for the specific language governing permissions and\n   limitations under the License.
UComments: "2011-7-27: Created." 
Version: 1.42
ItalicAngle: 0
UnderlinePosition: -363
UnderlineWidth: 0
Ascent: 1638
Descent: 410
LayerCount: 2
Layer: 0 1 "Back"  1
Layer: 1 1 "Fore"  0
NeedsXUIDChange: 1
XUID: [1021 467 2011608612 16041572]
FSType: 0
OS2Version: 1
OS2_WeightWidthSlopeOnly: 0
OS2_UseTypoMetrics: 1
CreationTime: 1311747327
ModificationTime: 1316061325
PfmFamily: 17
TTFWeight: 400
TTFWidth: 5
LineGap: 0
VLineGap: 0
OS2TypoAscent: 2106
OS2TypoAOffset: 0
OS2TypoDescent: -485
OS2TypoDOffset: 0
OS2TypoLinegap: 0
OS2WinAscent: 2106
OS2WinAOffset: 0
OS2WinDescent: 485
OS2WinDOffset: 0
HheadAscent: 2106
HheadAOffset: 0
HheadDescent: -485
HheadDOffset: 0
OS2Vendor: 'PfEd'
MarkAttachClasses: 1
DEI: 91125
TtTable: prep
PUSHW_1
 511
SCANCTRL
PUSHB_1
 4
SCANTYPE
EndTTInstrs
Encoding: UnicodeBmp
Compacted: 1
UnicodeInterp: none
NameList: Neuton-Regular
DisplaySize: -36
AntiAlias: 1
FitToEm: 0
WinInfo: 376 8 2
BeginPrivate: 0
EndPrivate
BeginChars: 65569 455

StartChar: uni0021
Encoding: 33 33 0
Width: 412
VWidth: 0
Flags: HMW
LayerCount: 2
Back
SplineSet
83 92 m 0,0,1
 83 142 83 142 119.5 176 c 0
 156 210 156 210 206 210 c 0,2,3
 257 210 257 210 294 175 c 0
 331 140 331 140 331 90 c 0,4,5
 331 37 331 37 294.5 0.5 c 0
 258 -36 258 -36 206 -36 c 0,6,7
 154 -36 154 -36 118.5 1.5 c 0
 83 39 83 39 83 92 c 0,0,1
109 1245 m 0,8,9
 109 1270 109 1270 152 1281 c 0
 195 1292 195 1292 240 1292 c 0,10,11
 304 1292 304 1292 304 1253 c 0,12,13
 304 1086 304 1086 249 357 c 1,14,-1
 162 376 l 1,15,16
 157 483 157 483 133 815 c 0
 109 1147 109 1147 109 1245 c 0,8,9
EndSplineSet
Fore
SplineSet
503 1259 m 0,0,1
 503 1219 503 1219 428 868.5 c 128,-1,2
 353 518 353 518 306 357 c 1,3,-1
 222 376 l 1,4,5
 233 483 233 483 262 815 c 128,-1,6
 291 1147 291 1147 306 1245 c 0,7,8
 313 1292 313 1292 408 1292 c 128,-1,9
 503 1292 503 1292 503 1259 c 0,0,1
233 210 m 128,-1,11
 284 210 284 210 315.5 176.5 c 128,-1,12
 347 143 347 143 347 91 c 128,-1,13
 347 39 347 39 302.5 1.5 c 128,-1,14
 258 -36 258 -36 206.5 -36 c 128,-1,15
 155 -36 155 -36 125.5 -1 c 128,-1,16
 96 34 96 34 96 86.5 c 128,-1,17
 96 139 96 139 139 174.5 c 128,-1,10
 182 210 182 210 233 210 c 128,-1,11
EndSplineSet
Colour: ffffff
EndChar

StartChar: uni0022
Encoding: 34 34 1
Width: 556
VWidth: 0
Flags: HMW
LayerCount: 2
Back
SplineSet
50 1302 m 1,0,-1
 233 1286 l 1,1,-1
 197 903 l 1,2,-1
 104 892 l 1,3,-1
 50 1302 l 1,0,-1
258 1302 m 1,4,-1
 442 1286 l 1,5,-1
 406 903 l 1,6,-1
 311 892 l 1,7,-1
 258 1302 l 1,4,-1
EndSplineSet
Fore
SplineSet
289 1303 m 1,0,-1
 469 1286 l 1,1,-1
 373 903 l 1,2,-1
 277 892 l 1,3,-1
 289 1303 l 1,0,-1
497 1303 m 1,4,-1
 677 1286 l 1,5,-1
 581 903 l 1,6,-1
 486 892 l 1,7,-1
 497 1303 l 1,4,-1
EndSplineSet
Colour: ffffff
EndChar

StartChar: uni0023
Encoding: 35 35 2
Width: 913
VWidth: 0
Flags: HMW
LayerCount: 2
Back
SplineSet
182 -26 m 9,0,-1
 359 1149 l 1,1,-1
 475 1159 l 1,2,-1
 299 -19 l 1,3,-1
 182 -26 l 9,0,-1
49 711 m 17,4,-1
 83 836 l 1,5,-1
 992 836 l 1,6,-1
 961 711 l 1,7,-1
 49 711 l 17,4,-1
-22 326 m 1,8,-1
 11 451 l 1,9,-1
 917 451 l 1,10,-1
 886 326 l 1,11,-1
 -22 326 l 1,8,-1
487 -26 m 9,12,-1
 663 1149 l 1,13,-1
 781 1158 l 1,14,-1
 604 -19 l 1,15,-1
 487 -26 l 9,12,-1
EndSplineSet
Fore
SplineSet
-22 326 m 1,0,-1
 11 451 l 1,1,-1
 254 451 l 1,2,-1
 293 711 l 1,3,-1
 49 711 l 1,4,-1
 83 836 l 1,5,-1
 312 836 l 1,6,-1
 359 1149 l 1,7,-1
 475 1159 l 1,8,-1
 427 836 l 1,9,-1
 616 836 l 1,10,-1
 663 1149 l 1,11,-1
 781 1158 l 1,12,-1
 733 836 l 1,13,-1
 992 836 l 1,14,-1
 961 711 l 1,15,-1
 714 711 l 1,16,-1
 675 451 l 1,17,-1
 917 451 l 1,18,-1
 886 326 l 1,19,-1
 656 326 l 1,20,-1
 604 -19 l 1,21,-1
 487 -26 l 1,22,-1
 540 326 l 1,23,-1
 351 326 l 1,24,-1
 299 -19 l 1,25,-1
 182 -26 l 1,26,-1
 235 326 l 1,27,-1
 -22 326 l 1,0,-1
558 451 m 1,28,-1
 597 711 l 1,29,-1
 408 711 l 1,30,-1
 369 451 l 1,31,-1
 558 451 l 1,28,-1
EndSplineSet
Colour: ffffff
EndChar

StartChar: uni0024
Encoding: 36 36 3
Width: 859
VWidth: 0
Flags: HMW
LayerCount: 2
Back
SplineSet
66 122 m 1,0,-1
 79 389 l 1,1,-1
 181 375 l 1,2,-1
 220 187 l 1,3,4
 249 141 249 141 304.5 109 c 0
 360 77 360 77 426 77 c 0,5,6
 483 77 483 77 534.5 97.5 c 0
 586 118 586 118 624.5 167.5 c 0
 663 217 663 217 663 287 c 0,7,8
 663 339 663 339 631.5 383.5 c 0
 600 428 600 428 549.5 461 c 0
 499 494 499 494 437.5 526 c 0
 376 558 376 558 315 594.5 c 0
 254 631 254 631 203.5 673.5 c 0
 153 716 153 716 121.5 778.5 c 0
 90 841 90 841 90 916 c 0,9,10
 90 1025 90 1025 147 1107 c 0
 204 1189 204 1189 291 1229 c 0
 378 1269 378 1269 479 1269 c 0,11,12
 641 1269 641 1269 761 1169 c 1,13,14
 739 887 l 1,15,-1
 640 899 l 1,16,-1
 615 1090 l 1,17,18
 599 1122 599 1122 549.5 1153.5 c 0
 500 1185 500 1185 445 1185 c 0,19,20
 365 1185 365 1185 314 1137 c 0
 263 1089 263 1089 263 995 c 0,21,22
 263 937 263 937 295 889.5 c 0
 327 842 327 842 378.5 807.5 c 0
 430 773 430 773 492.5 741 c 0
 555 709 555 709 617.5 673 c 0
 680 637 680 637 731.5 595.5 c 0
 783 554 783 554 815 492 c 0
 847 430 847 430 847 354 c 0,23,24
 847 243 847 243 783 155 c 0
 719 67 719 67 618 21.5 c 0
 517 -24 517 -24 402 -24 c 0,25,26
 298 -24 298 -24 207.5 17.5 c 0
 117 59 117 59 66 122 c 1,0,-1
367 -179 m 1,27,-1
 379 9 l 1,28,-1
 416 54 l 1,29,-1
 416 631 l 1,30,-1
 421 700 l 1,31,-1
 421 1207 l 1,32,-1
 385 1242 l 1,33,-1
 370 1394 l 1,34,-1
 535 1409 l 1,35,-1
 518 1242 l 1,36,-1
 483 1202 l 1,37,-1
 483 666 l 1,38,-1
 486 582 l 1,39,-1
 486 54 l 1,40,-1
 527 20 l 1,41,-1
 540 -164 l 1,42,-1
 367 -179 l 1,27,-1
EndSplineSet
Fore
SplineSet
916 375 m 128,-1,1
 916 323 916 323 884.5 253 c 128,-1,2
 853 183 853 183 799 131 c 0,3,4
 687 23 687 23 527 -12 c 1,5,-1
 514 -164 l 1,6,-1
 339 -179 l 1,7,-1
 373 -24 l 1,8,9
 277 -17 277 -17 199.5 24 c 128,-1,10
 122 65 122 65 93 122 c 1,11,-1
 150 390 l 1,12,-1
 249 375 l 1,13,-1
 255 187 l 1,14,15
 299 86 299 86 428 78 c 1,16,-1
 502 541 l 1,17,18
 389 609 389 609 357 639 c 0,19,20
 291 701 291 701 265.5 753 c 128,-1,21
 240 805 240 805 240 877 c 0,22,23
 240 1029 240 1029 340.5 1129.5 c 128,-1,24
 441 1230 441 1230 583 1259 c 1,25,-1
 591 1394 l 1,26,-1
 758 1409 l 1,27,-1
 722 1269 l 1,28,29
 877 1258 877 1258 952 1169 c 1,30,-1
 886 887 l 1,31,-1
 789 898 l 1,32,-1
 792 1090 l 1,33,34
 786 1112 786 1112 751 1142 c 128,-1,35
 716 1172 716 1172 670 1181 c 1,36,-1
 602 751 l 1,37,38
 617 742 617 742 645 725.5 c 128,-1,39
 673 709 673 709 689 699.5 c 128,-1,40
 705 690 705 690 731 673.5 c 128,-1,41
 757 657 757 657 773.5 644.5 c 128,-1,42
 790 632 790 632 811.5 614 c 128,-1,43
 833 596 833 596 846.5 580 c 128,-1,44
 860 564 860 564 874.5 542.5 c 128,-1,45
 889 521 889 521 897 500 c 128,-1,46
 905 479 905 479 910.5 453 c 128,-1,0
 916 427 916 427 916 375 c 128,-1,1
719 315 m 0,47,48
 719 368 719 368 679.5 411.5 c 128,-1,49
 640 455 640 455 565 502 c 1,50,-1
 499 83 l 1,51,52
 584 98 584 98 651.5 155 c 128,-1,53
 719 212 719 212 719 315 c 0,47,48
546 787 m 1,54,-1
 608 1182 l 1,55,56
 528 1173 528 1173 476.5 1118 c 128,-1,57
 425 1063 425 1063 425 988 c 128,-1,58
 425 913 425 913 456.5 870 c 128,-1,59
 488 827 488 827 546 787 c 1,54,-1
EndSplineSet
Colour: ffffff
EndChar

StartChar: uni0025
Encoding: 37 37 4
Width: 1736
VWidth: 0
Flags: HMW
LayerCount: 2
Back
SplineSet
29 898 m 0,0,1
 29 1020 29 1020 117 1115.5 c 0
 205 1211 205 1211 301 1211 c 0,2,3
 321 1211 321 1211 330 1208 c 1,4,-1
 340 1142 l 1,5,6
 310 1154 310 1154 295 1154 c 0,7,8
 258 1154 258 1154 234 1112 c 0
 210 1070 210 1070 202 1016 c 0
 194 962 194 962 194 898 c 0,9,10
 194 798 194 798 220 723.5 c 0
 246 649 246 649 297 649 c 0,11,12
 402 649 402 649 402 898 c 0,13,14
 402 1082 402 1082 364 1198 c 1,15,-1
 921 1210 l 1,16,-1
 931 1121 l 1,17,-1
 491 1137 l 1,18,19
 525 1102 525 1102 545.5 1024 c 0
 566 946 566 946 566 898 c 0,20,21
 566 775 566 775 478 679 c 0
 390 583 390 583 297 583 c 0,22,23
 195 583 195 583 112 672 c 0
 29 761 29 761 29 898 c 0,0,1
123 -10 m 1,24,-1
 530 588 l 1,25,-1
 921 1210 l 1,26,-1
 1087 1207 l 1,27,-1
 1085 1178 l 1,28,-1
 684 591 l 1,29,-1
 313 -32 l 1,30,-1
 123 -10 l 1,24,-1
647 277 m 0,31,32
 647 399 647 399 734 494.5 c 0
 821 590 821 590 917 590 c 0,33,34
 1025 590 1025 590 1103 498.5 c 0
 1181 407 1181 407 1181 274 c 0,35,36
 1181 152 1181 152 1096.5 58 c 0
 1012 -36 1012 -36 920 -36 c 0,37,38
 818 -36 818 -36 732.5 53 c 0
 647 142 647 142 647 277 c 0,31,32
812 277 m 0,39,40
 812 180 812 180 840 106 c 0
 868 32 868 32 920 32 c 0,41,42
 1021 32 1021 32 1021 279 c 0,43,44
 1021 344 1021 344 1011.5 399 c 0
 1002 454 1002 454 977.5 494 c 0
 953 534 953 534 917 534 c 0,45,46
 887 534 887 534 865 510.5 c 0
 843 487 843 487 832 447.5 c 0
 821 408 821 408 816.5 366 c 0
 812 324 812 324 812 277 c 0,39,40
EndSplineSet
Fore
SplineSet
925 32 m 0,0,1
 962 32 962 32 991.5 66.5 c 128,-1,2
 1021 101 1021 101 1047.5 184 c 128,-1,3
 1074 267 1074 267 1074 400.5 c 128,-1,4
 1074 534 1074 534 1002 534 c 0,5,6
 966 534 966 534 935.5 499.5 c 128,-1,7
 905 465 905 465 876.5 382 c 128,-1,8
 848 299 848 299 848 187 c 0,9,10
 848 32 848 32 925 32 c 0,0,1
1229 353 m 0,11,12
 1229 185 1229 185 1123 74.5 c 128,-1,13
 1017 -36 1017 -36 921.5 -36 c 128,-1,14
 826 -36 826 -36 756 34.5 c 128,-1,15
 686 105 686 105 686 221 c 0,16,17
 686 293 686 293 718 363 c 128,-1,18
 750 433 750 433 798 482 c 0,19,20
 905 590 905 590 1005 590 c 128,-1,21
 1105 590 1105 590 1167 517.5 c 128,-1,22
 1229 445 1229 445 1229 353 c 0,11,12
712 983 m 0,23,24
 712 803 712 803 602 693 c 128,-1,25
 492 583 492 583 396 583 c 128,-1,26
 300 583 300 583 233.5 654.5 c 128,-1,27
 167 726 167 726 167 840 c 0,28,29
 167 913 167 913 198.5 983 c 128,-1,30
 230 1053 230 1053 278 1102 c 0,31,32
 385 1211 385 1211 493 1211 c 0,33,34
 513 1211 513 1211 521 1208 c 1,35,-1
 521 1142 l 1,36,37
 493 1154 493 1154 468 1154 c 128,-1,38
 443 1154 443 1154 413.5 1118 c 128,-1,39
 384 1082 384 1082 356 996 c 128,-1,40
 328 910 328 910 328 797 c 0,41,42
 328 649 328 649 400 649 c 0,43,44
 498 649 498 649 541 873 c 0,45,46
 562 983 562 983 561.5 1067.5 c 128,-1,47
 561 1152 561 1152 554 1198 c 1,48,-1
 1113 1210 l 1,49,-1
 1278 1207 l 1,50,-1
 1272 1178 l 1,51,-1
 778 591 l 1,52,-1
 308 -32 l 1,53,-1
 121 -10 l 1,54,-1
 623 588 l 1,55,-1
 1044 1123 l 1,56,-1
 671 1137 l 1,57,58
 712 1086 712 1086 712 983 c 0,23,24
EndSplineSet
Colour: ffffff
EndChar

StartChar: uni0026
Encoding: 38 38 5
Width: 1271
VWidth: 0
Flags: HMW
LayerCount: 2
Back
SplineSet
33 313 m 0,0,1
 33 544 33 544 310 701 c 1,2,3
 256 746 256 746 217 820 c 0
 178 894 178 894 178 974 c 0,4,5
 178 1090 178 1090 275.5 1180.5 c 0
 373 1271 373 1271 494 1271 c 0,6,7
 634 1271 634 1271 710 1207 c 0
 786 1143 786 1143 786 1011 c 0,8,9
 786 856 786 856 556 716 c 1,10,-1
 556 705 l 1,11,-1
 787 449 l 1,12,-1
 964 719 l 1,13,-1
 813 761 l 1,14,-1
 823 837 l 1,15,-1
 1255 837 l 1,16,-1
 1245 761 l 1,17,-1
 1075 722 l 1,18,-1
 859 380 l 1,19,20
 1113 106 1113 106 1202 79 c 1,21,-1
 1235 70 l 1,22,-1
 1220 0 l 1,23,24
 1166 -19 1166 -19 1100 -19 c 0,25,26
 1061 -19 1061 -19 1023 -6 c 0
 985 7 985 7 951 32.5 c 0
 917 58 917 58 895 78 c 0
 873 98 873 98 844 128 c 2,27,-1
 756 218 l 1,28,29
 717 161 717 161 684 123 c 0
 651 85 651 85 605.5 50 c 0
 560 15 560 15 504 -2 c 0
 448 -19 448 -19 380 -19 c 0,30,31
 225 -19 225 -19 129 72 c 0
 33 163 33 163 33 313 c 0,0,1
221 393 m 0,32,33
 221 270 221 270 276.5 187.5 c 0
 332 105 332 105 439 105 c 0,34,35
 519 105 519 105 584.5 159 c 0
 650 213 650 213 685 282 c 1,36,-1
 372 629 l 1,37,-1
 355 632 l 1,38,39
 297 592 297 592 259 531 c 0
 221 470 221 470 221 393 c 0,32,33
338 1024 m 0,40,41
 338 956 338 956 385 886 c 0
 432 816 432 816 488 773 c 1,42,43
 533 803 533 803 557.5 827 c 0
 582 851 582 851 599 891.5 c 0
 616 932 616 932 616 988 c 0,44,45
 616 1078 616 1078 582 1133 c 0
 548 1188 548 1188 474 1188 c 0,46,47
 413 1188 413 1188 375.5 1139 c 0
 338 1090 338 1090 338 1024 c 0,40,41
EndSplineSet
Fore
SplineSet
787 1032.5 m 128,-1,1
 787 1098 787 1098 750.5 1142.5 c 128,-1,2
 714 1187 714 1187 646.5 1187 c 128,-1,3
 579 1187 579 1187 531.5 1129.5 c 128,-1,4
 484 1072 484 1072 484 1007 c 0,5,6
 484 895 484 895 613 773 c 1,7,8
 674 810 674 810 709 842 c 128,-1,9
 744 874 744 874 765.5 920.5 c 128,-1,0
 787 967 787 967 787 1032.5 c 128,-1,1
265 338 m 0,10,11
 265 203 265 203 349 139 c 0,12,13
 394 106 394 106 451 106 c 0,14,15
 562 106 562 106 650.5 174.5 c 128,-1,16
 739 243 739 243 765 282 c 1,17,-1
 472 629 l 1,18,-1
 457 631 l 1,19,20
 265 512 265 512 265 338 c 0,10,11
665 1272 m 0,21,22
 963 1272 963 1272 962 1061 c 0,23,24
 962 894 962 894 754 765 c 0,25,26
 720 744 720 744 672 717 c 1,27,-1
 670 705 l 1,28,-1
 907 423 l 1,29,-1
 1121 720 l 1,30,-1
 960 761 l 1,31,-1
 981 837 l 1,32,-1
 1430 837 l 1,33,-1
 1409 761 l 1,34,-1
 1232 723 l 1,35,-1
 966 353 l 1,36,37
 1156 108 1156 108 1250 79 c 2,38,-1
 1282 69 l 1,39,-1
 1255 0 l 1,40,41
 1195 -20 1195 -20 1125 -20 c 128,-1,42
 1055 -20 1055 -20 984 42 c 128,-1,43
 913 104 913 104 826 218 c 1,44,45
 680 50 680 50 529 2 c 0,46,47
 457 -20 457 -20 378 -20 c 0,48,49
 233 -20 233 -20 148.5 60.5 c 128,-1,50
 64 141 64 141 64 262 c 0,51,52
 64 328 64 328 88 390 c 0,53,54
 130 498 130 498 220.5 572 c 128,-1,55
 311 646 311 646 419 702 c 1,56,57
 314 805 314 805 314 943 c 0,58,59
 314 1021 314 1021 368 1100 c 128,-1,60
 422 1179 422 1179 507 1225.5 c 128,-1,61
 592 1272 592 1272 665 1272 c 0,21,22
EndSplineSet
Colour: ffffff
EndChar

StartChar: uni0027
Encoding: 39 39 6
Width: 381
VWidth: 0
Flags: HMW
LayerCount: 2
Back
SplineSet
50 1302 m 1,0,-1
 233 1286 l 1,1,-1
 197 903 l 1,2,-1
 104 892 l 1,3,-1
 50 1302 l 1,0,-1
EndSplineSet
Fore
SplineSet
306 1303 m 1,0,-1
 486 1286 l 1,1,-1
 390 903 l 1,2,-1
 294 892 l 1,3,-1
 306 1303 l 1,0,-1
EndSplineSet
Colour: ffffff
EndChar

StartChar: uni0028
Encoding: 40 40 7
Width: 475
VWidth: 0
Flags: HMW
LayerCount: 2
Back
SplineSet
49 445 m 0,0,1
 49 553 49 553 65 652.5 c 0
 81 752 81 752 103.5 825 c 0
 126 898 126 898 161.5 967 c 0
 197 1036 197 1036 225 1078 c 0
 253 1120 253 1120 291 1162 c 0
 329 1204 329 1204 346 1219.5 c 0
 363 1235 363 1235 386 1255 c 1,2,-1
 436 1189 l 1,3,4
 405 1148 405 1148 380.5 1109.5 c 0
 356 1071 356 1071 325.5 1004 c 0
 295 937 295 937 275 864 c 0
 255 791 255 791 241 684 c 0
 227 577 227 577 227 455 c 0,5,6
 227 51 227 51 449 -317 c 1,7,-1
 381 -375 l 1,8,9
 360 -355 360 -355 346 -341 c 0
 332 -327 332 -327 294 -282 c 0
 256 -237 256 -237 228.5 -194 c 0
 201 -151 201 -151 165 -79.5 c 0
 129 -8 129 -8 105.5 66 c 0
 82 140 82 140 65.5 239.5 c 0
 49 339 49 339 49 445 c 0,0,1
EndSplineSet
Fore
SplineSet
283 226.5 m 128,-1,1
 283 -56 283 -56 401 -317 c 1,2,-1
 322 -375 l 1,3,4
 176 -212 176 -212 129 27 c 128,-1,5
 82 266 82 266 127 492 c 0,6,7
 198 848 198 848 454 1130 c 0,8,9
 529 1212 529 1212 585 1255 c 1,10,-1
 624 1189 l 1,11,12
 476 1030 476 1030 379.5 769.5 c 128,-1,0
 283 509 283 509 283 226.5 c 128,-1,1
EndSplineSet
Colour: ffffff
EndChar

StartChar: uni0029
Encoding: 41 41 8
Width: 475
VWidth: 0
Flags: HMW
LayerCount: 2
Back
SplineSet
44 1189 m 1,0,-1
 93 1255 l 1,1,2
 116 1235 116 1235 133 1219.5 c 0
 150 1204 150 1204 188 1162 c 0
 226 1120 226 1120 254.5 1078 c 0
 283 1036 283 1036 318 967 c 0
 353 898 353 898 376 825 c 0
 399 752 399 752 415 652.5 c 0
 431 553 431 553 431 445 c 0,3,4
 431 339 431 339 414.5 239.5 c 0
 398 140 398 140 374.5 66 c 0
 351 -8 351 -8 315 -79.5 c 0
 279 -151 279 -151 251.5 -194 c 0
 224 -237 224 -237 186 -282 c 0
 148 -327 148 -327 134 -341 c 0
 120 -355 120 -355 99 -375 c 1,5,-1
 30 -317 l 1,6,7
 253 53 253 53 253 455 c 0,8,9
 253 577 253 577 239 684 c 0
 225 791 225 791 205 864 c 0
 185 937 185 937 154.5 1004 c 0
 124 1071 124 1071 99.5 1109.5 c 0
 75 1148 75 1148 44 1189 c 1,0,-1
EndSplineSet
Fore
SplineSet
515 632.5 m 128,-1,1
 515 530 515 530 500 434 c 128,-1,2
 485 338 485 338 462.5 260.5 c 128,-1,3
 440 183 440 183 405.5 107.5 c 128,-1,4
 371 32 371 32 339 -24 c 128,-1,5
 307 -80 307 -80 264 -136 c 0,6,7
 159 -275 159 -275 35 -375 c 1,8,-1
 -25 -317 l 1,9,10
 -22 -313 -22 -313 -3.5 -289 c 128,-1,11
 15 -265 15 -265 34.5 -238.5 c 128,-1,12
 54 -212 54 -212 95 -149 c 128,-1,13
 136 -86 136 -86 165 -30 c 0,14,15
 344 317 344 317 344 702 c 0,16,17
 344 999 344 999 228 1189 c 1,18,-1
 287 1255 l 1,19,20
 441 1106 441 1106 495 834 c 0,21,0
 515 735 515 735 515 632.5 c 128,-1,1
EndSplineSet
Colour: ffffff
EndChar

StartChar: uni002A
Encoding: 42 42 9
Width: 808
VWidth: 0
Flags: HMW
LayerCount: 2
Back
SplineSet
328 1292 m 1,0,-1
 464 1279 l 1,1,-1
 438 988 l 1,2,-1
 727 1119 l 1,3,-1
 756 989 l 1,4,-1
 471 921 l 1,5,-1
 690 692 l 1,6,-1
 572 623 l 1,7,-1
 419 870 l 1,8,-1
 264 593 l 1,9,-1
 162 685 l 1,10,-1
 355 904 l 1,11,-1
 43 964 l 1,12,-1
 98 1091 l 1,13,-1
 365 977 l 1,14,-1
 328 1292 l 1,0,-1
EndSplineSet
Fore
SplineSet
328 1292 m 1,0,-1
 464 1279 l 1,1,-1
 438 988 l 1,2,-1
 727 1119 l 1,3,-1
 756 989 l 1,4,-1
 471 921 l 1,5,-1
 690 692 l 1,6,-1
 572 623 l 1,7,-1
 419 870 l 1,8,-1
 264 593 l 1,9,-1
 162 685 l 1,10,-1
 355 904 l 1,11,-1
 43 964 l 1,12,-1
 98 1091 l 1,13,-1
 365 977 l 1,14,-1
 328 1292 l 1,0,-1
EndSplineSet
Colour: ffffff
EndChar

StartChar: uni002B
Encoding: 43 43 10
Width: 648
VWidth: 0
Flags: HMW
LayerCount: 2
Back
SplineSet
50 409 m 1,0,-1
 62 510 l 1,1,-1
 271 510 l 1,2,-1
 271 741 l 1,3,-1
 380 729 l 1,4,-1
 381 510 l 1,5,-1
 601 510 l 1,6,-1
 589 409 l 1,7,-1
 381 409 l 1,8,-1
 383 174 l 1,9,-1
 271 185 l 1,10,-1
 271 409 l 1,11,-1
 50 409 l 1,0,-1
EndSplineSet
Fore
SplineSet
271 510 m 1,0,-1
 271 741 l 1,1,-1
 380 729 l 1,2,-1
 381 510 l 1,3,-1
 601 510 l 1,4,-1
 589 409 l 1,5,-1
 381 409 l 1,6,-1
 383 174 l 1,7,-1
 271 185 l 1,8,-1
 271 409 l 1,9,-1
 50 409 l 1,10,-1
 62 510 l 1,11,-1
 271 510 l 1,0,-1
EndSplineSet
Colour: ffffff
EndChar

StartChar: uni002C
Encoding: 44 44 11
Width: 364
VWidth: 0
Flags: HMW
LayerCount: 2
Back
SplineSet
54 -244 m 1,0,1
 146 -220 146 -220 191 -171.5 c 0
 236 -123 236 -123 236 -70 c 0,2,3
 236 -27 236 -27 203.5 4.5 c 0
 171 36 171 36 120 36 c 0,4,5
 110 36 110 36 90 34 c 1,6,7
 76 71 76 71 76 97 c 0,8,9
 76 152 76 152 115.5 185 c 0
 155 218 155 218 198 218 c 0,10,11
 226 218 226 218 255 206 c 0
 284 194 284 194 311 171 c 0
 338 148 338 148 355 106 c 0
 372 64 372 64 372 10 c 0,12,13
 372 -234 372 -234 77 -313 c 1,14,-1
 54 -244 l 1,0,1
EndSplineSet
Fore
SplineSet
192 -61 m 128,-1,1
 192 -10 192 -10 155.5 17.5 c 128,-1,2
 119 45 119 45 61 30 c 1,3,4
 42 111 42 111 82.5 164.5 c 128,-1,5
 123 218 123 218 192 218 c 128,-1,6
 261 218 261 218 305.5 175.5 c 128,-1,7
 350 133 350 133 350 39 c 0,8,9
 350 -55 350 -55 276 -151 c 0,10,11
 238 -201 238 -201 164 -245.5 c 128,-1,12
 90 -290 90 -290 -7 -314 c 1,13,-1
 -18 -244 l 1,14,15
 78 -219 78 -219 135 -165.5 c 128,-1,0
 192 -112 192 -112 192 -61 c 128,-1,1
EndSplineSet
Colour: ffffff
EndChar

StartChar: uni002D
Encoding: 45 45 12
Width: 569
VWidth: 0
Flags: HMW
LayerCount: 2
Back
SplineSet
81 398 m 1,0,-1
 92 498 l 1,1,-1
 500 517 l 1,2,-1
 489 415 l 1,3,-1
 81 398 l 1,0,-1
EndSplineSet
Fore
SplineSet
170 499 m 1,0,-1
 580 517 l 1,1,-1
 553 416 l 1,2,-1
 142 398 l 1,3,-1
 170 499 l 1,0,-1
EndSplineSet
Colour: ffffff
EndChar

StartChar: uni002E
Encoding: 46 46 13
Width: 427
VWidth: 0
Flags: HMW
LayerCount: 2
Back
SplineSet
73 92 m 0,0,1
 73 140 73 140 108 172.5 c 0
 143 205 143 205 191 205 c 0,2,3
 241 205 241 205 277 171.5 c 0
 313 138 313 138 313 90 c 0,4,5
 313 40 313 40 277 4.5 c 0
 241 -31 241 -31 191 -31 c 0,6,7
 142 -31 142 -31 107.5 5 c 0
 73 41 73 41 73 92 c 0,0,1
EndSplineSet
Fore
SplineSet
228 215 m 128,-1,1
 280 215 280 215 307.5 182.5 c 128,-1,2
 335 150 335 150 335 97.5 c 128,-1,3
 335 45 335 45 295.5 6 c 128,-1,4
 256 -33 256 -33 207.5 -33 c 128,-1,5
 159 -33 159 -33 125.5 1 c 128,-1,6
 92 35 92 35 92 84 c 128,-1,7
 92 133 92 133 134 174 c 128,-1,0
 176 215 176 215 228 215 c 128,-1,1
EndSplineSet
Colour: ffffff
EndChar

StartChar: uni003A
Encoding: 58 58 14
Width: 404
VWidth: 0
Flags: HMW
LayerCount: 2
Back
SplineSet
99 119 m 0,0,1
 99 163 99 163 132.5 193.5 c 0
 166 224 166 224 212 224 c 0,2,3
 258 224 258 224 291.5 192.5 c 0
 325 161 325 161 325 117 c 0,4,5
 325 69 325 69 291.5 35 c 0
 258 1 258 1 212 1 c 0,6,7
 166 1 166 1 132.5 36 c 0
 99 71 99 71 99 119 c 0,0,1
99 747 m 0,8,9
 99 792 99 792 132.5 822.5 c 0
 166 853 166 853 212 853 c 0,10,11
 258 853 258 853 291.5 821 c 0
 325 789 325 789 325 744 c 0,12,13
 325 696 325 696 291.5 662.5 c 0
 258 629 258 629 212 629 c 0,14,15
 166 629 166 629 132.5 664 c 0
 99 699 99 699 99 747 c 0,8,9
EndSplineSet
Fore
SplineSet
338 126.5 m 128,-1,1
 338 80 338 80 297 41 c 128,-1,2
 256 2 256 2 210 2 c 128,-1,3
 164 2 164 2 137.5 30 c 128,-1,4
 111 58 111 58 111 105 c 128,-1,5
 111 152 111 152 151.5 188.5 c 128,-1,6
 192 225 192 225 238 225 c 128,-1,7
 284 225 284 225 311 199 c 128,-1,0
 338 173 338 173 338 126.5 c 128,-1,1
337 852 m 128,-1,9
 383 852 383 852 410 826.5 c 128,-1,10
 437 801 437 801 437 754.5 c 128,-1,11
 437 708 437 708 396.5 668.5 c 128,-1,12
 356 629 356 629 310 629 c 128,-1,13
 264 629 264 629 237.5 657 c 128,-1,14
 211 685 211 685 211 732.5 c 128,-1,15
 211 780 211 780 251 816 c 128,-1,8
 291 852 291 852 337 852 c 128,-1,9
EndSplineSet
Colour: ffffff
EndChar

StartChar: uni003B
Encoding: 59 59 15
Width: 404
VWidth: 0
Flags: HMW
LayerCount: 2
Back
SplineSet
77 -230 m 1,0,1
 163 -207 163 -207 204.5 -163.5 c 0
 246 -120 246 -120 246 -70 c 0,2,3
 246 -29 246 -29 216 1 c 0
 186 31 186 31 138 31 c 0,4,5
 137 31 137 31 110 28 c 1,6,7
 96 61 96 61 96 87 c 0,8,9
 96 138 96 138 132.5 168.5 c 0
 169 199 169 199 210 199 c 0,10,11
 268 199 268 199 320 149.5 c 0
 372 100 372 100 372 6 c 0,12,13
 372 -223 372 -223 98 -295 c 1,14,-1
 77 -230 l 1,0,1
126 744 m 0,15,16
 126 790 126 790 159.5 821.5 c 0
 193 853 193 853 240 853 c 0,17,18
 288 853 288 853 322 821 c 0
 356 789 356 789 356 743 c 0,19,20
 356 694 356 694 322 660 c 0
 288 626 288 626 240 626 c 0,21,22
 192 626 192 626 159 660.5 c 0
 126 695 126 695 126 744 c 0,15,16
EndSplineSet
Fore
SplineSet
337 852 m 128,-1,1
 383 852 383 852 410 826.5 c 128,-1,2
 437 801 437 801 437 754.5 c 128,-1,3
 437 708 437 708 396.5 668.5 c 128,-1,4
 356 629 356 629 310 629 c 128,-1,5
 264 629 264 629 237.5 657 c 128,-1,6
 211 685 211 685 211 732.5 c 128,-1,7
 211 780 211 780 251 816 c 128,-1,0
 291 852 291 852 337 852 c 128,-1,1
234 -52 m 128,-1,9
 234 -6 234 -6 202 18 c 0,10,11
 168 42 168 42 116 30 c 1,12,13
 99 103 99 103 135.5 151 c 128,-1,14
 172 199 172 199 240 199 c 0,15,16
 377 199 377 199 377 30 c 0,17,18
 377 -73 377 -73 286 -158.5 c 128,-1,19
 195 -244 195 -244 55 -279 c 1,20,-1
 45 -216 l 1,21,22
 132 -194 132 -194 183 -146 c 128,-1,8
 234 -98 234 -98 234 -52 c 128,-1,9
EndSplineSet
Colour: ffffff
EndChar

StartChar: uni002F
Encoding: 47 47 16
Width: 676
VWidth: 0
Flags: HMW
LayerCount: 2
Back
SplineSet
439 1235 m 21,0,-1
 571 1244 l 1,1,-1
 106 -355 l 1,2,-1
 -23 -363 l 1,3,-1
 439 1235 l 21,0,-1
EndSplineSet
Fore
SplineSet
44 -363 m 1,0,-1
 506 1235 l 1,1,-1
 638 1244 l 1,2,-1
 172 -355 l 1,3,-1
 44 -363 l 1,0,-1
EndSplineSet
Colour: ffffff
EndChar

StartChar: uni003D
Encoding: 61 61 17
Width: 809
VWidth: 0
Flags: HMW
LayerCount: 2
Back
SplineSet
92 319 m 1,0,-1
 102 424 l 1,1,-1
 717 424 l 1,2,-1
 706 319 l 1,3,-1
 92 319 l 1,0,-1
95 559 m 1,4,-1
 105 663 l 1,5,-1
 721 663 l 1,6,-1
 709 559 l 1,7,-1
 95 559 l 1,4,-1
EndSplineSet
Fore
SplineSet
75 559 m 1,0,-1
 85 663 l 1,1,-1
 741 663 l 1,2,-1
 729 559 l 1,3,-1
 75 559 l 1,0,-1
72 319 m 1,4,-1
 82 424 l 1,5,-1
 737 424 l 1,6,-1
 726 319 l 1,7,-1
 72 319 l 1,4,-1
EndSplineSet
Colour: ffffff
EndChar

StartChar: uni003E
Encoding: 62 62 18
Width: 727
VWidth: 0
Flags: HMW
LayerCount: 2
Back
SplineSet
59 -13 m 1,0,-1
 519 434 l 1,1,-1
 79 900 l 1,2,-1
 135 973 l 1,3,-1
 755 472 l 1,4,-1
 756 415 l 1,5,-1
 122 -83 l 1,6,-1
 59 -13 l 1,0,-1
EndSplineSet
Fore
SplineSet
59 -13 m 1,0,-1
 519 434 l 1,1,-1
 79 900 l 1,2,-1
 135 973 l 1,3,-1
 755 472 l 1,4,-1
 756 415 l 1,5,-1
 122 -83 l 1,6,-1
 59 -13 l 1,0,-1
EndSplineSet
Colour: ffffff
EndChar

StartChar: uni003F
Encoding: 63 63 19
Width: 601
VWidth: 0
Flags: HMW
LayerCount: 2
Back
SplineSet
47 1152 m 0,0,1
 47 1203 47 1203 92.5 1245 c 0
 138 1287 138 1287 243 1287 c 0,2,3
 301 1287 301 1287 362 1255.5 c 0
 423 1224 423 1224 473 1169.5 c 0
 523 1115 523 1115 555 1033 c 0
 587 951 587 951 587 860 c 0,4,5
 587 812 587 812 571 774 c 0
 555 736 555 736 529.5 712 c 0
 504 688 504 688 473.5 669 c 0
 443 650 443 650 412.5 634 c 0
 382 618 382 618 356.5 601.5 c 0
 331 585 331 585 315 561.5 c 0
 299 538 299 538 299 508 c 0,6,7
 299 455 299 455 321 383 c 1,8,-1
 246 366 l 1,9,10
 219 405 219 405 194 468.5 c 0
 169 532 169 532 169 585 c 0,11,12
 169 630 169 630 186 664 c 0
 203 698 203 698 230 718 c 0
 257 738 257 738 289.5 753.5 c 0
 322 769 322 769 355 784.5 c 0
 388 800 388 800 415 818 c 0
 442 836 442 836 459 867 c 0
 476 898 476 898 476 939 c 0,13,14
 476 1004 476 1004 419 1058.5 c 0
 362 1113 362 1113 313 1113 c 0,15,16
 255 1113 255 1113 204 1094 c 0
 153 1075 153 1075 121 1041 c 1,17,18
 93 1052 93 1052 70 1083 c 0
 47 1114 47 1114 47 1152 c 0,0,1
159 92 m 0,19,20
 159 142 159 142 195.5 176 c 0
 232 210 232 210 282 210 c 0,21,22
 333 210 333 210 369.5 175 c 0
 406 140 406 140 406 90 c 0,23,24
 406 37 406 37 370 0.5 c 0
 334 -36 334 -36 282 -36 c 0,25,26
 230 -36 230 -36 194.5 1.5 c 0
 159 39 159 39 159 92 c 0,19,20
EndSplineSet
Fore
SplineSet
262.5 -36 m 128,-1,1
 212 -36 212 -36 182 -5.5 c 128,-1,2
 152 25 152 25 152 77.5 c 128,-1,3
 152 130 152 130 196 170 c 128,-1,4
 240 210 240 210 291.5 210 c 128,-1,5
 343 210 343 210 373.5 181.5 c 128,-1,6
 404 153 404 153 404 101 c 128,-1,7
 404 49 404 49 358.5 6.5 c 128,-1,0
 313 -36 313 -36 262.5 -36 c 128,-1,1
608 946.5 m 128,-1,9
 608 1019 608 1019 561.5 1066 c 128,-1,10
 515 1113 515 1113 471 1113 c 0,11,12
 345 1113 345 1113 268 1042 c 1,13,14
 245 1052 245 1052 227.5 1078 c 128,-1,15
 210 1104 210 1104 210 1134 c 0,16,17
 210 1193 210 1193 261.5 1240.5 c 128,-1,18
 313 1288 313 1288 424.5 1288 c 128,-1,19
 536 1288 536 1288 623.5 1190.5 c 128,-1,20
 711 1093 711 1093 711 937 c 0,21,22
 711 741 711 741 564 676 c 0,23,24
 535 663 535 663 505 651 c 0,25,26
 437 623 437 623 397 583.5 c 128,-1,27
 357 544 357 544 357 454 c 0,28,29
 357 424 357 424 363 383 c 1,30,-1
 286 367 l 1,31,32
 240 459 240 459 240 528.5 c 128,-1,33
 240 598 240 598 256 636 c 128,-1,34
 272 674 272 674 297.5 696 c 128,-1,35
 323 718 323 718 356 737 c 128,-1,36
 389 756 389 756 424 767 c 0,37,38
 495 791 495 791 551.5 832.5 c 128,-1,8
 608 874 608 874 608 946.5 c 128,-1,9
EndSplineSet
Colour: ffffff
EndChar

StartChar: uni0040
Encoding: 64 64 20
Width: 1360
VWidth: 0
Flags: HMW
LayerCount: 2
Back
SplineSet
54 325 m 0,0,1
 54 523 54 523 146.5 687 c 0
 239 851 239 851 407.5 947.5 c 0
 576 1044 576 1044 787 1044 c 0,2,3
 927 1044 927 1044 1045 988.5 c 0
 1163 933 1163 933 1234.5 827.5 c 0
 1306 722 1306 722 1306 589 c 0,4,5
 1306 454 1306 454 1245.5 335.5 c 0
 1185 217 1185 217 1075 143.5 c 0
 965 70 965 70 832 70 c 0,6,7
 783 70 783 70 759.5 101.5 c 0
 736 133 736 133 738 187 c 1,8,-1
 728 187 l 1,9,10
 693 135 693 135 643 97 c 0
 593 59 593 59 541 59 c 0,11,12
 460 59 460 59 410 130 c 0
 360 201 360 201 360 326 c 0,13,14
 360 428 360 428 398.5 517.5 c 0
 437 607 437 607 496.5 665 c 0
 556 723 556 723 625 756 c 0
 694 789 694 789 758 789 c 0,15,16
 854 789 854 789 924 773 c 1,17,-1
 943 751 l 1,18,-1
 902 385 l 2,19,20
 901 372 901 372 897.5 347 c 0
 894 322 894 322 892 304.5 c 0
 890 287 890 287 888 264.5 c 0
 886 242 886 242 886.5 226.5 c 0
 887 211 887 211 889 196.5 c 0
 891 182 891 182 897.5 175 c 0
 904 168 904 168 914 168 c 0,21,22
 1025 168 1025 168 1099 280.5 c 0
 1173 393 1173 393 1173 549 c 0,23,24
 1173 739 1173 739 1053.5 847 c 0
 934 955 934 955 751 955 c 0,25,26
 631 955 631 955 528 905 c 0
 425 855 425 855 356 771 c 0
 287 687 287 687 248 578 c 0
 209 469 209 469 209 351 c 0,27,28
 209 127 209 127 346 -4 c 0
 483 -135 483 -135 727 -135 c 0,29,30
 828 -135 828 -135 931.5 -96 c 0
 1035 -57 1035 -57 1079 -19 c 1,31,-1
 1115 -83 l 1,32,33
 1111 -85 1111 -85 1069 -111 c 0
 1027 -137 1027 -137 1011.5 -145.5 c 0
 996 -154 996 -154 952 -174.5 c 0
 908 -195 908 -195 875.5 -203.5 c 0
 843 -212 843 -212 793 -220 c 0
 743 -228 743 -228 691 -228 c 0,34,35
 596 -228 596 -228 507.5 -209.5 c 0
 419 -191 419 -191 335.5 -148.5 c 0
 252 -106 252 -106 190.5 -43.5 c 0
 129 19 129 19 91.5 114 c 0
 54 209 54 209 54 325 c 0,0,1
516 368 m 0,36,37
 516 262 516 262 538 221.5 c 0
 560 181 560 181 601 181 c 0,38,39
 677 181 677 181 739 254 c 1,40,-1
 792 692 l 1,41,42
 740 703 740 703 704 703 c 0,43,44
 649 703 649 703 604.5 651 c 0
 560 599 560 599 538 523 c 0
 516 447 516 447 516 368 c 0,36,37
EndSplineSet
Fore
SplineSet
837 69 m 0,0,1
 791 69 791 69 765 100 c 128,-1,2
 739 131 739 131 746 187 c 1,3,-1
 738 187 l 1,4,5
 703 136 703 136 650 97.5 c 128,-1,6
 597 59 597 59 545 59 c 0,7,8
 463 59 463 59 418 121 c 128,-1,9
 373 183 373 183 373 296.5 c 128,-1,10
 373 410 373 410 414 502.5 c 128,-1,11
 455 595 455 595 517.5 656 c 128,-1,12
 580 717 580 717 652 753 c 128,-1,13
 724 789 724 789 802 789 c 128,-1,14
 880 789 880 789 951 773 c 1,15,-1
 955 771 l 1,16,-1
 973 751 l 1,17,-1
 918 385 l 2,18,19
 895 234 895 234 899.5 201 c 128,-1,20
 904 168 904 168 923 168 c 0,21,22
 1035 168 1035 168 1115.5 285.5 c 128,-1,23
 1196 403 1196 403 1196 576.5 c 128,-1,24
 1196 750 1196 750 1083 852.5 c 128,-1,25
 970 955 970 955 798.5 955 c 128,-1,26
 627 955 627 955 496.5 866.5 c 128,-1,27
 366 778 366 778 295.5 637.5 c 128,-1,28
 225 497 225 497 225 340 c 0,29,30
 225 115 225 115 354 -10 c 128,-1,31
 483 -135 483 -135 725 -135 c 0,32,33
 819 -135 819 -135 918.5 -99 c 128,-1,34
 1018 -63 1018 -63 1082 -20 c 1,35,-1
 1115 -83 l 1,36,-1
 1032 -134 l 1,37,38
 924 -196 924 -196 840.5 -212 c 128,-1,39
 757 -228 757 -228 673 -228 c 128,-1,40
 589 -228 589 -228 503 -211 c 0,41,42
 314 -174 314 -174 191.5 -48 c 128,-1,43
 69 78 69 78 69 310 c 0,44,45
 69 458 69 458 127 593 c 128,-1,46
 185 728 185 728 285 827 c 128,-1,47
 385 926 385 926 526.5 985 c 128,-1,48
 668 1044 668 1044 817.5 1044 c 128,-1,49
 967 1044 967 1044 1081 990.5 c 128,-1,50
 1195 937 1195 937 1263 834.5 c 128,-1,51
 1331 732 1331 732 1331 598 c 128,-1,52
 1331 464 1331 464 1265.5 342 c 128,-1,53
 1200 220 1200 220 1085 144.5 c 128,-1,54
 970 69 970 69 837 69 c 0,0,1
724 704 m 128,-1,56
 677 704 677 704 629.5 647 c 128,-1,57
 582 590 582 590 557 509 c 128,-1,58
 532 428 532 428 532 352.5 c 128,-1,59
 532 277 532 277 541.5 239 c 128,-1,60
 551 201 551 201 566 190.5 c 128,-1,61
 581 180 581 180 609 180 c 0,62,63
 683 180 683 180 750 254 c 1,64,-1
 819 692 l 1,65,55
 771 704 771 704 724 704 c 128,-1,56
EndSplineSet
Colour: ffffff
EndChar

StartChar: uni0041
Encoding: 65 65 21
Width: 1278
VWidth: 1691
Flags: HMW
LayerCount: 2
Back
SplineSet
-37 0 m 1,0,-1
 -28 74 l 1,1,-1
 121 129 l 1,2,-1
 559 1237 l 1,3,-1
 710 1268 l 1,4,-1
 1100 124 l 1,5,-1
 1237 80 l 1,6,-1
 1228 0 l 1,7,-1
 713 0 l 1,8,-1
 725 74 l 1,9,-1
 896 129 l 1,10,-1
 787 432 l 1,11,-1
 368 432 l 1,12,-1
 256 124 l 1,13,-1
 442 80 l 1,14,-1
 431 0 l 1,15,-1
 -37 0 l 1,0,-1
406 534 m 1,16,-1
 758 534 l 1,17,-1
 592 1034 l 1,18,-1
 406 534 l 1,16,-1
EndSplineSet
Fore
SplineSet
143 1642 m 25,0,-1
 351 1642 l 1,1,-1
 351 1570 l 1,2,-1
 127 1566 l 1,3,-1
528 533 m 1,4,-1
 880 533 l 1,5,-1
 794 1034 l 1,6,-1
 528 533 l 1,4,-1
942 1268 m 1,7,-1
 1161 124 l 1,8,-1
 1290 81 l 1,9,-1
 1268 0 l 1,10,-1
 753 0 l 1,11,-1
 776 74 l 1,12,-1
 958 129 l 1,13,-1
 895 433 l 1,14,-1
 476 433 l 1,15,-1
 317 124 l 1,16,-1
 495 81 l 1,17,-1
 471 0 l 1,18,-1
 2 0 l 1,19,-1
 23 74 l 1,20,-1
 182 129 l 1,21,-1
 785 1237 l 1,22,-1
 942 1268 l 1,7,-1
EndSplineSet
Colour: ffffff
EndChar

StartChar: uni0042
Encoding: 66 66 22
Width: 1127
VWidth: 1691
Flags: HMW
LayerCount: 2
Back
SplineSet
50 0 m 1,0,-1
 61 74 l 1,1,-1
 228 121 l 1,2,-1
 228 1104 l 1,3,-1
 57 1134 l 1,4,-1
 67 1211 l 1,5,6
 385 1257 385 1257 559 1257 c 0,7,8
 671 1257 671 1257 757.5 1233 c 0
 844 1209 844 1209 894.5 1168 c 0
 945 1127 945 1127 970.5 1076.5 c 0
 996 1026 996 1026 996 967 c 0,9,10
 996 910 996 910 978.5 858.5 c 0
 961 807 961 807 912.5 756.5 c 0
 864 706 864 706 790 679 c 1,11,-1
 790 672 l 1,12,13
 934 664 934 664 1017 576 c 0
 1100 488 1100 488 1100 380 c 0,14,15
 1100 321 1100 321 1083.5 268 c 0
 1067 215 1067 215 1028 165 c 0
 989 115 989 115 929.5 79 c 0
 870 43 870 43 777.5 21.5 c 0
 685 0 685 0 568 0 c 2,16,-1
 50 0 l 1,0,-1
420 96 m 1,17,-1
 640 96 l 2,18,19
 764 96 764 96 834 169.5 c 0
 904 243 904 243 904 347 c 0,20,21
 904 449 904 449 835 527 c 0
 766 605 766 605 643 605 c 2,22,-1
 420 605 l 1,23,-1
 420 96 l 1,17,-1
420 688 m 1,24,-1
 678 688 l 1,25,26
 808 742 808 742 808 909 c 0,27,28
 808 959 808 959 793.5 1002.5 c 0
 779 1046 779 1046 746 1085.5 c 0
 713 1125 713 1125 650 1148 c 0
 587 1171 587 1171 500 1171 c 0,29,30
 467 1171 467 1171 420 1164 c 1,31,-1
 420 688 l 1,24,-1
EndSplineSet
Fore
SplineSet
723 689 m 2,0,1
 825 689 825 689 885 758 c 128,-1,2
 945 827 945 827 945 930.5 c 128,-1,3
 945 1034 945 1034 886.5 1102.5 c 128,-1,4
 828 1171 828 1171 679 1171 c 0,5,6
 637 1171 637 1171 598 1164 c 1,7,-1
 515 689 l 1,8,-1
 723 689 l 2,0,1
1149 423 m 128,-1,10
 1149 336 1149 336 1110 265 c 128,-1,11
 1071 194 1071 194 995.5 134 c 128,-1,12
 920 74 920 74 793 37 c 128,-1,13
 666 0 666 0 507 0 c 2,14,-1
 23 0 l 1,15,-1
 46 74 l 1,16,-1
 223 121 l 1,17,-1
 395 1105 l 1,18,-1
 230 1135 l 1,19,-1
 253 1211 l 1,20,21
 578 1257 578 1257 716 1257 c 0,22,23
 955 1257 955 1257 1049 1178 c 128,-1,24
 1143 1099 1143 1099 1143 1000.5 c 128,-1,25
 1143 902 1143 902 1080.5 814.5 c 128,-1,26
 1018 727 1018 727 882 680 c 1,27,-1
 880 672 l 1,28,29
 1008 665 1008 665 1078.5 587.5 c 128,-1,9
 1149 510 1149 510 1149 423 c 128,-1,10
722 604 m 2,30,-1
 499 604 l 1,31,-1
 410 96 l 1,32,-1
 613 96 l 2,33,34
 854 96 854 96 928 276 c 0,35,36
 948 326 948 326 948 380 c 0,37,38
 948 471 948 471 889.5 537.5 c 128,-1,39
 831 604 831 604 722 604 c 2,30,-1
EndSplineSet
Colour: ffffff
EndChar

StartChar: uni0043
Encoding: 67 67 23
Width: 1111
VWidth: 1691
Flags: HMW
LayerCount: 2
Back
SplineSet
61 589 m 0,0,1
 61 681 61 681 83.5 773.5 c 0
 106 866 106 866 156.5 956 c 0
 207 1046 207 1046 279.5 1115 c 0
 352 1184 352 1184 462 1226.5 c 0
 572 1269 572 1269 704 1269 c 0,2,3
 934 1269 934 1269 1066 1169 c 1,4,-1
 1035 837 l 1,5,-1
 947 850 l 1,6,-1
 905 1070 l 1,7,8
 824 1174 824 1174 647 1174 c 0,9,10
 487 1174 487 1174 381 1034 c 0
 275 894 275 894 275 658 c 0,11,12
 275 528 275 528 312.5 422 c 0
 350 316 350 316 413 249 c 0
 476 182 476 182 557 146.5 c 0
 638 111 638 111 728 111 c 0,13,14
 822 111 822 111 914.5 153.5 c 0
 1007 196 1007 196 1078 261 c 1,15,-1
 1113 185 l 1,16,17
 1045 102 1045 102 920 39 c 0
 795 -24 795 -24 651 -24 c 0,18,19
 534 -24 534 -24 429 16.5 c 0
 324 57 324 57 241.5 132 c 0
 159 207 159 207 110 325.5 c 0
 61 444 61 444 61 589 c 0,0,1
EndSplineSet
Fore
SplineSet
637 -25 m 0,0,1
 428 -25 428 -25 282 128 c 0,2,3
 213 200 213 200 172.5 306 c 128,-1,4
 132 412 132 412 132 508.5 c 128,-1,5
 132 605 132 605 147 677.5 c 128,-1,6
 162 750 162 750 193.5 822 c 128,-1,7
 225 894 225 894 271 960 c 0,8,9
 364 1095 364 1095 522 1182.5 c 128,-1,10
 680 1270 680 1270 884 1270 c 128,-1,11
 1088 1270 1088 1270 1227 1149 c 1,12,-1
 1144 817 l 1,13,-1
 1060 831 l 1,14,-1
 1052 1050 l 1,15,16
 976 1174 976 1174 803.5 1174 c 128,-1,17
 631 1174 631 1174 496 1016 c 0,18,19
 432 941 432 941 393.5 826.5 c 128,-1,20
 355 712 355 712 355 588 c 0,21,22
 355 350 355 350 466.5 228 c 128,-1,23
 578 106 578 106 763.5 106 c 128,-1,24
 949 106 949 106 1100 240 c 1,25,-1
 1143 185 l 1,26,27
 955 -25 955 -25 637 -25 c 0,0,1
EndSplineSet
Colour: ffffff
EndChar

StartChar: uni0044
Encoding: 68 68 24
Width: 1432
VWidth: 1691
Flags: HMW
LayerCount: 2
Back
SplineSet
47 0 m 1,0,-1
 61 74 l 1,1,-1
 233 129 l 1,2,-1
 233 1103 l 1,3,-1
 61 1133 l 1,4,-1
 70 1209 l 1,5,6
 381 1258 381 1258 583 1258 c 0,7,8
 746 1258 746 1258 873 1224 c 0
 1000 1190 1000 1190 1080 1134 c 0
 1160 1078 1160 1078 1211.5 998.5 c 0
 1263 919 1263 919 1283.5 834.5 c 0
 1304 750 1304 750 1304 653 c 0,9,10
 1304 549 1304 549 1274.5 453.5 c 0
 1245 358 1245 358 1182.5 275 c 0
 1120 192 1120 192 1031 131 c 0
 942 70 942 70 816.5 35 c 0
 691 0 691 0 541 0 c 2,11,-1
 47 0 l 1,0,-1
424 104 m 1,12,-1
 569 104 l 2,13,14
 698 104 698 104 800 143.5 c 0
 902 183 902 183 965 251.5 c 0
 1028 320 1028 320 1060.5 408 c 0
 1093 496 1093 496 1093 598 c 0,15,16
 1093 715 1093 715 1058.5 815 c 0
 1024 915 1024 915 958 991.5 c 0
 892 1068 892 1068 786 1111.5 c 0
 680 1155 680 1155 546 1155 c 0,17,18
 464 1155 464 1155 424 1151 c 1,19,-1
 424 104 l 1,12,-1
EndSplineSet
Fore
SplineSet
499 0 m 2,0,-1
 18 0 l 1,1,-1
 43 74 l 1,2,-1
 225 129 l 1,3,-1
 377 1103 l 1,4,-1
 210 1133 l 1,5,-1
 231 1209 l 1,6,7
 549 1258 549 1258 720 1258 c 128,-1,8
 891 1258 891 1258 1002 1230 c 0,9,10
 1206 1180 1206 1180 1298.5 1053 c 128,-1,11
 1391 926 1391 926 1391 770 c 128,-1,12
 1391 614 1391 614 1327 478 c 128,-1,13
 1263 342 1263 342 1149.5 235.5 c 128,-1,14
 1036 129 1036 129 866 64.5 c 128,-1,15
 696 0 696 0 499 0 c 2,0,-1
558 104 m 2,16,17
 695 104 695 104 810 149 c 0,18,19
 924 194 924 194 1002 271 c 0,20,21
 1166 433 1166 433 1166 674 c 0,22,23
 1166 968 1166 968 960 1092 c 0,24,25
 852 1156 852 1156 697 1156 c 0,26,27
 633 1156 633 1156 576 1149 c 1,28,-1
 411 104 l 1,29,-1
 558 104 l 2,16,17
EndSplineSet
Colour: ffffff
EndChar

StartChar: uni0045
Encoding: 69 69 25
Width: 1075
VWidth: 1691
Flags: HMW
LayerCount: 2
Back
SplineSet
50 1168 m 1,0,-1
 61 1244 l 1,1,-1
 1056 1244 l 1,2,-1
 1025 924 l 1,3,-1
 938 937 l 1,4,-1
 897 1152 l 1,5,-1
 426 1152 l 1,6,-1
 426 676 l 1,7,-1
 716 676 l 1,8,-1
 758 796 l 1,9,-1
 853 810 l 1,10,-1
 819 421 l 1,11,-1
 734 408 l 1,12,-1
 700 583 l 1,13,-1
 426 583 l 1,14,-1
 426 96 l 1,15,-1
 921 96 l 1,16,-1
 1019 326 l 1,17,-1
 1102 313 l 1,18,-1
 1072 0 l 1,19,-1
 57 0 l 1,20,-1
 65 74 l 1,21,-1
 232 121 l 1,22,-1
 232 1126 l 1,23,-1
 50 1168 l 1,0,-1
EndSplineSet
Fore
SplineSet
230 1244 m 1,0,-1
 1205 1244 l 1,1,-1
 1136 925 l 1,2,-1
 1052 938 l 1,3,-1
 1032 1153 l 1,4,-1
 580 1153 l 1,5,-1
 507 677 l 1,6,-1
 798 677 l 1,7,-1
 849 796 l 1,8,-1
 945 809 l 1,9,-1
 862 421 l 1,10,-1
 775 408 l 1,11,-1
 768 583 l 1,12,-1
 492 583 l 1,13,-1
 415 96 l 1,14,-1
 922 96 l 1,15,-1
 1035 325 l 1,16,-1
 1118 314 l 1,17,-1
 1057 0 l 1,18,-1
 31 0 l 1,19,-1
 51 74 l 1,20,-1
 226 121 l 1,21,-1
 385 1126 l 1,22,-1
 208 1168 l 1,23,-1
 230 1244 l 1,0,-1
EndSplineSet
Colour: ffffff
EndChar

StartChar: uni0046
Encoding: 70 70 26
Width: 1028
VWidth: 1691
Flags: HMW
LayerCount: 2
Back
SplineSet
50 1168 m 1,0,-1
 61 1244 l 1,1,-1
 1054 1244 l 1,2,-1
 1013 922 l 1,3,-1
 925 936 l 1,4,-1
 891 1152 l 1,5,-1
 426 1152 l 1,6,-1
 426 670 l 1,7,-1
 713 670 l 1,8,-1
 755 790 l 1,9,-1
 845 804 l 1,10,-1
 818 412 l 1,11,-1
 730 398 l 1,12,-1
 700 578 l 1,13,-1
 426 578 l 1,14,-1
 423 122 l 1,15,-1
 661 83 l 1,16,-1
 648 0 l 1,17,-1
 57 0 l 1,18,-1
 65 74 l 1,19,-1
 232 121 l 1,20,-1
 232 1126 l 1,21,-1
 50 1168 l 1,0,-1
EndSplineSet
Fore
SplineSet
230 1244 m 1,0,-1
 1224 1244 l 1,1,-1
 1155 923 l 1,2,-1
 1069 936 l 1,3,-1
 1045 1153 l 1,4,-1
 580 1153 l 1,5,-1
 505 670 l 1,6,-1
 793 670 l 1,7,-1
 844 791 l 1,8,-1
 935 804 l 1,9,-1
 860 413 l 1,10,-1
 769 398 l 1,11,-1
 765 578 l 1,12,-1
 490 578 l 1,13,-1
 418 122 l 1,14,-1
 649 84 l 1,15,-1
 623 0 l 1,16,-1
 31 0 l 1,17,-1
 51 74 l 1,18,-1
 226 121 l 1,19,-1
 385 1126 l 1,20,-1
 208 1168 l 1,21,-1
 230 1244 l 1,0,-1
EndSplineSet
Colour: ffffff
EndChar

StartChar: uni0047
Encoding: 71 71 27
Width: 1276
VWidth: 1691
Flags: HMW
LayerCount: 2
Back
SplineSet
61 578 m 0,0,1
 61 703 61 703 97 813 c 0
 133 923 133 923 196 1004 c 0
 259 1085 259 1085 342.5 1143 c 0
 426 1201 426 1201 521.5 1230.5 c 0
 617 1260 617 1260 717 1260 c 0,2,3
 976 1260 976 1260 1139 1163 c 1,4,-1
 1115 841 l 1,5,-1
 1028 856 l 1,6,-1
 992 1047 l 1,7,8
 950 1089 950 1089 861.5 1125 c 0
 773 1161 773 1161 667 1161 c 0,9,10
 590 1161 590 1161 522 1131.5 c 0
 454 1102 454 1102 398 1042.5 c 0
 342 983 342 983 309 881 c 0
 276 779 276 779 276 647 c 0,11,12
 276 558 276 558 296.5 474 c 0
 317 390 317 390 359 318 c 0
 401 246 401 246 459.5 192 c 0
 518 138 518 138 598 107.5 c 0
 678 77 678 77 771 77 c 0,13,14
 870 77 870 77 943 119 c 1,15,-1
 943 434 l 1,16,-1
 707 472 l 1,17,-1
 719 555 l 1,18,-1
 1275 555 l 1,19,-1
 1263 480 l 1,20,-1
 1139 439 l 1,21,-1
 1139 79 l 1,22,23
 1042 21 1042 21 926.5 -5 c 0
 811 -31 811 -31 658 -31 c 0,24,25
 511 -31 511 -31 395.5 16 c 0
 280 63 280 63 208 146 c 0
 136 229 136 229 98.5 338.5 c 0
 61 448 61 448 61 578 c 0,0,1
EndSplineSet
Fore
SplineSet
862.5 1161 m 128,-1,1
 764 1161 764 1161 697 1142 c 0,2,3
 551 1100 551 1100 454.5 957.5 c 128,-1,4
 358 815 358 815 358 560 c 128,-1,5
 358 305 358 305 500 171 c 0,6,7
 601 76 601 76 749 76 c 128,-1,8
 897 76 897 76 953 122 c 1,9,-1
 1001 434 l 1,10,-1
 771 472 l 1,11,-1
 796 555 l 1,12,-1
 1353 555 l 1,13,-1
 1329 481 l 1,14,-1
 1197 439 l 1,15,-1
 1143 88 l 1,16,17
 960 -31 960 -31 626 -31 c 0,18,19
 332 -31 332 -31 204 187 c 0,20,21
 129 314 129 314 129.5 473 c 128,-1,22
 130 632 130 632 175 758 c 0,23,24
 257 988 257 988 462 1124 c 128,-1,25
 667 1260 667 1260 923 1260 c 128,-1,26
 1179 1260 1179 1260 1313 1163 c 1,27,-1
 1237 841 l 1,28,-1
 1151 855 l 1,29,-1
 1146 1047 l 1,30,31
 1115 1094 1115 1094 1038 1127.5 c 128,-1,0
 961 1161 961 1161 862.5 1161 c 128,-1,1
EndSplineSet
Colour: ffffff
EndChar

StartChar: uni0048
Encoding: 72 72 28
Width: 1416
VWidth: 1691
Flags: HMW
LayerCount: 2
Back
SplineSet
50 1168 m 1,0,-1
 61 1244 l 1,1,-1
 605 1244 l 1,2,-1
 595 1168 l 1,3,-1
 427 1130 l 1,4,-1
 427 692 l 1,5,-1
 1054 692 l 1,6,-1
 1054 1126 l 1,7,-1
 871 1168 l 1,8,-1
 882 1244 l 1,9,-1
 1428 1244 l 1,10,-1
 1416 1168 l 1,11,-1
 1249 1130 l 1,12,-1
 1249 114 l 1,13,-1
 1431 80 l 1,14,-1
 1421 0 l 1,15,-1
 878 0 l 1,16,-1
 888 74 l 1,17,-1
 1054 121 l 1,18,-1
 1054 589 l 1,19,-1
 427 589 l 1,20,-1
 427 114 l 1,21,-1
 611 80 l 1,22,-1
 598 0 l 1,23,-1
 57 0 l 1,24,-1
 65 74 l 1,25,-1
 232 121 l 1,26,-1
 232 1126 l 1,27,-1
 50 1168 l 1,0,-1
EndSplineSet
Fore
SplineSet
573 0 m 1,0,-1
 31 0 l 1,1,-1
 51 74 l 1,2,-1
 226 121 l 1,3,-1
 385 1126 l 1,4,-1
 208 1168 l 1,5,-1
 230 1244 l 1,6,-1
 775 1244 l 1,7,-1
 753 1168 l 1,8,-1
 580 1130 l 1,9,-1
 510 692 l 1,10,-1
 1138 692 l 1,11,-1
 1207 1126 l 1,12,-1
 1029 1168 l 1,13,-1
 1052 1244 l 1,14,-1
 1597 1244 l 1,15,-1
 1574 1168 l 1,16,-1
 1402 1130 l 1,17,-1
 1242 114 l 1,18,-1
 1419 81 l 1,19,-1
 1395 0 l 1,20,-1
 852 0 l 1,21,-1
 875 74 l 1,22,-1
 1049 121 l 1,23,-1
 1123 590 l 1,24,-1
 494 590 l 1,25,-1
 419 114 l 1,26,-1
 599 81 l 1,27,-1
 573 0 l 1,0,-1
EndSplineSet
Colour: ffffff
EndChar

StartChar: uni0049
Encoding: 73 73 29
Width: 601
VWidth: 1691
Flags: HMW
LayerCount: 2
Back
SplineSet
50 1168 m 1,0,-1
 61 1244 l 1,1,-1
 605 1244 l 1,2,-1
 595 1168 l 1,3,-1
 426 1130 l 1,4,-1
 426 114 l 1,5,-1
 607 80 l 1,6,-1
 597 0 l 1,7,-1
 57 0 l 1,8,-1
 65 74 l 1,9,-1
 232 121 l 1,10,-1
 232 1126 l 1,11,-1
 50 1168 l 1,0,-1
EndSplineSet
Fore
SplineSet
571 0 m 1,0,-1
 31 0 l 1,1,-1
 51 74 l 1,2,-1
 226 121 l 1,3,-1
 385 1126 l 1,4,-1
 208 1168 l 1,5,-1
 230 1244 l 1,6,-1
 775 1244 l 1,7,-1
 753 1168 l 1,8,-1
 578 1130 l 1,9,-1
 418 114 l 1,10,-1
 595 81 l 1,11,-1
 571 0 l 1,0,-1
EndSplineSet
Colour: ffffff
EndChar

StartChar: uni004A
Encoding: 74 74 30
Width: 592
VWidth: 1691
Flags: HMW
LayerCount: 2
Back
SplineSet
-4 -237 m 1,0,1
 117 -122 117 -122 174.5 -20.5 c 0
 232 81 232 81 232 197 c 2,2,-1
 233 1126 l 1,3,-1
 52 1168 l 1,4,-1
 62 1244 l 1,5,-1
 607 1244 l 1,6,-1
 597 1168 l 1,7,-1
 427 1130 l 1,8,-1
 426 385 l 2,9,10
 426 281 426 281 418.5 203.5 c 0
 411 126 411 126 391.5 60.5 c 0
 372 -5 372 -5 346 -53 c 0
 320 -101 320 -101 274.5 -149 c 0
 229 -197 229 -197 178 -236 c 0
 127 -275 127 -275 50 -326 c 1,11,-1
 -4 -237 l 1,0,1
EndSplineSet
Fore
SplineSet
-26 -325 m 1,0,1
 -56 -284 -56 -284 -68 -238 c 1,2,3
 71 -123 71 -123 144.5 -21 c 128,-1,4
 218 81 218 81 236 197 c 2,5,-1
 385 1126 l 1,6,-1
 210 1168 l 1,7,-1
 230 1244 l 1,8,-1
 775 1244 l 1,9,-1
 755 1168 l 1,10,-1
 580 1130 l 1,11,-1
 452 318 l 2,12,13
 424 137 424 137 384 57 c 128,-1,14
 344 -23 344 -23 312 -66 c 0,15,16
 232 -173 232 -173 -26 -325 c 1,0,1
EndSplineSet
Colour: ffffff
EndChar

StartChar: uni004B
Encoding: 75 75 31
Width: 1228
VWidth: 1691
Flags: HMW
LayerCount: 2
Back
SplineSet
47 1168 m 1,0,-1
 61 1244 l 1,1,-1
 611 1244 l 1,2,-1
 601 1168 l 1,3,-1
 429 1121 l 1,4,-1
 429 124 l 1,5,-1
 618 80 l 1,6,-1
 607 0 l 1,7,-1
 54 0 l 1,8,-1
 64 74 l 1,9,-1
 236 129 l 1,10,-1
 236 1117 l 1,11,-1
 47 1168 l 1,0,-1
453 626 m 1,12,13
 476 649 476 649 529.5 709.5 c 0
 583 770 583 770 605 798 c 2,14,-1
 851 1121 l 1,15,-1
 696 1168 l 1,16,-1
 704 1244 l 1,17,-1
 1197 1244 l 1,18,-1
 1185 1168 l 1,19,-1
 1008 1121 l 1,20,-1
 635 653 l 1,21,-1
 862 385 l 2,22,23
 991 232 991 232 1057.5 171.5 c 0
 1124 111 1124 111 1213 83 c 1,24,-1
 1250 70 l 1,25,-1
 1240 1 l 1,26,27
 1177 -21 1177 -21 1109 -21 c 0,28,29
 994 -21 994 -21 899 52.5 c 0
 804 126 804 126 706 261 c 2,30,-1
 454 605 l 1,31,-1
 453 626 l 1,12,13
EndSplineSet
Fore
SplineSet
421 124 m 1,0,-1
 603 81 l 1,1,-1
 578 0 l 1,2,-1
 25 0 l 1,3,-1
 46 74 l 1,4,-1
 228 129 l 1,5,-1
 383 1118 l 1,6,-1
 201 1168 l 1,7,-1
 226 1244 l 1,8,-1
 776 1244 l 1,9,-1
 755 1168 l 1,10,-1
 576 1121 l 1,11,-1
 421 124 l 1,0,-1
1087 -21 m 0,12,13
 971 -21 971 -21 887 52.5 c 128,-1,14
 803 126 803 126 728 261 c 1,15,-1
 593 509 l 1,16,17
 549 579 549 579 524 604 c 1,18,-1
 528 629 l 1,19,20
 598 678 598 678 656 737 c 1,21,-1
 1011 1121 l 1,22,-1
 855 1168 l 1,23,-1
 875 1244 l 1,24,-1
 1372 1244 l 1,25,-1
 1349 1168 l 1,26,-1
 1166 1121 l 1,27,-1
 712 644 l 1,28,-1
 895 378 l 2,29,30
 991 238 991 238 1055.5 175 c 128,-1,31
 1120 112 1120 112 1207 83 c 2,32,-1
 1242 71 l 1,33,-1
 1220 2 l 1,34,35
 1155 -21 1155 -21 1087 -21 c 0,12,13
EndSplineSet
Colour: ffffff
EndChar

StartChar: uni004C
Encoding: 76 76 32
Width: 1065
VWidth: 1691
Flags: HMW
LayerCount: 2
Back
SplineSet
58 0 m 5,0,-1
 67 74 l 1,1,-1
 233 121 l 1,2,-1
 233 1117 l 1,3,-1
 45 1168 l 1,4,-1
 58 1244 l 1,5,-1
 608 1244 l 1,6,-1
 598 1168 l 1,7,-1
 427 1121 l 1,8,-1
 427 96 l 1,9,-1
 869 96 l 1,10,-1
 1000 344 l 1,11,-1
 1085 331 l 1,12,-1
 1048 0 l 1,13,-1
 58 0 l 5,0,-1
EndSplineSet
Fore
SplineSet
783 1244 m 1,0,-1
 761 1168 l 1,1,-1
 583 1121 l 1,2,-1
 421 96 l 1,3,-1
 874 96 l 1,4,-1
 1012 344 l 1,5,-1
 1096 330 l 1,6,-1
 1037 0 l 1,7,-1
 38 0 l 1,8,-1
 58 74 l 1,9,-1
 233 121 l 1,10,-1
 390 1118 l 1,11,-1
 208 1168 l 1,12,-1
 233 1244 l 1,13,-1
 783 1244 l 1,0,-1
EndSplineSet
Colour: ffffff
EndChar

StartChar: uni004D
Encoding: 77 77 33
Width: 1664
VWidth: 1691
Flags: HMW
LayerCount: 2
Back
SplineSet
24 0 m 1,0,-1
 35 74 l 1,1,-1
 202 121 l 1,2,-1
 275 1126 l 1,3,-1
 92 1168 l 1,4,-1
 102 1244 l 1,5,-1
 505 1244 l 1,6,-1
 583 1050 l 1,7,-1
 845 313 l 1,8,-1
 1152 1083 l 1,9,-1
 1223 1244 l 1,10,-1
 1618 1244 l 1,11,-1
 1608 1168 l 1,12,-1
 1440 1130 l 1,13,-1
 1492 114 l 1,14,-1
 1674 80 l 1,15,-1
 1664 0 l 1,16,-1
 1128 0 l 1,17,-1
 1139 74 l 1,18,-1
 1305 121 l 1,19,-1
 1249 1004 l 1,20,-1
 868 50 l 1,21,-1
 740 31 l 1,22,-1
 397 967 l 1,23,-1
 334 114 l 1,24,-1
 517 80 l 1,25,-1
 504 0 l 1,26,-1
 24 0 l 1,0,-1
EndSplineSet
Fore
SplineSet
735 31 m 1,0,-1
 497 966 l 1,1,-1
 339 114 l 1,2,-1
 519 81 l 1,3,-1
 492 0 l 1,4,-1
 12 0 l 1,5,-1
 35 74 l 1,6,-1
 210 121 l 1,7,-1
 401 1126 l 1,8,-1
 223 1168 l 1,9,-1
 246 1244 l 1,10,-1
 639 1244 l 1,11,-1
 695 1050 l 1,12,-1
 870 310 l 1,13,-1
 1261 1083 l 1,14,-1
 1360 1244 l 1,15,-1
 1760 1244 l 1,16,-1
 1739 1168 l 1,17,-1
 1565 1130 l 1,18,-1
 1498 114 l 1,19,-1
 1675 81 l 1,20,-1
 1651 0 l 1,21,-1
 1116 0 l 1,22,-1
 1140 74 l 1,23,-1
 1313 121 l 1,24,-1
 1354 1004 l 1,25,-1
 862 51 l 1,26,-1
 735 31 l 1,0,-1
EndSplineSet
Colour: ffffff
EndChar

StartChar: uni004E
Encoding: 78 78 34
Width: 1337
VWidth: 1691
Flags: HMW
LayerCount: 2
Back
SplineSet
50 1168 m 1,0,-1
 61 1244 l 1,1,-1
 411 1244 l 1,2,-1
 1054 274 l 1,3,-1
 1054 1126 l 1,4,-1
 869 1168 l 1,5,-1
 881 1244 l 1,6,-1
 1356 1244 l 1,7,-1
 1343 1168 l 1,8,-1
 1176 1130 l 1,9,-1
 1176 1 l 1,10,-1
 1023 -30 l 1,11,-1
 360 961 l 1,12,-1
 360 114 l 1,13,-1
 543 80 l 1,14,-1
 532 0 l 1,15,-1
 57 0 l 1,16,-1
 65 74 l 1,17,-1
 232 121 l 1,18,-1
 232 1117 l 1,19,-1
 50 1168 l 1,0,-1
EndSplineSet
Fore
SplineSet
991 -30 m 1,0,-1
 486 961 l 1,1,-1
 352 114 l 1,2,-1
 530 81 l 1,3,-1
 507 0 l 1,4,-1
 31 0 l 1,5,-1
 51 74 l 1,6,-1
 226 121 l 1,7,-1
 383 1118 l 1,8,-1
 208 1168 l 1,9,-1
 230 1244 l 1,10,-1
 578 1244 l 1,11,-1
 1072 262 l 1,12,-1
 1207 1126 l 1,13,-1
 1027 1168 l 1,14,-1
 1050 1244 l 1,15,-1
 1526 1244 l 1,16,-1
 1501 1168 l 1,17,-1
 1329 1130 l 1,18,-1
 1151 2 l 1,19,-1
 991 -30 l 1,0,-1
EndSplineSet
Colour: ffffff
EndChar

StartChar: uni004F
Encoding: 79 79 35
Width: 1322
VWidth: 1691
Flags: HMW
LayerCount: 2
Back
SplineSet
61 619 m 0,0,1
 61 911 61 911 236 1091.5 c 0
 411 1272 411 1272 706 1272 c 0,2,3
 838 1272 838 1272 948.5 1219.5 c 0
 1059 1167 1059 1167 1131.5 1077 c 0
 1204 987 1204 987 1244 869 c 0
 1284 751 1284 751 1284 619 c 0,4,5
 1284 489 1284 489 1240.5 372.5 c 0
 1197 256 1197 256 1116.5 167 c 0
 1036 78 1036 78 911.5 25.5 c 0
 787 -27 787 -27 636 -27 c 0,6,7
 467 -27 467 -27 335 59 c 0
 203 145 203 145 132 292 c 0
 61 439 61 439 61 619 c 0,0,1
283 676 m 0,8,9
 283 585 283 585 297 501 c 0
 311 417 311 417 342.5 339.5 c 0
 374 262 374 262 419.5 204.5 c 0
 465 147 465 147 533.5 113 c 0
 602 79 602 79 686 79 c 0,10,11
 774 79 774 79 841.5 107.5 c 0
 909 136 909 136 950 182.5 c 0
 991 229 991 229 1017 295 c 0
 1043 361 1043 361 1052.5 428 c 0
 1062 495 1062 495 1062 573 c 0,12,13
 1062 661 1062 661 1048 745 c 0
 1034 829 1034 829 1002 907.5 c 0
 970 986 970 986 924.5 1045.5 c 0
 879 1105 879 1105 810 1140.5 c 0
 741 1176 741 1176 658 1176 c 0,14,15
 283 1176 283 1176 283 676 c 0,8,9
EndSplineSet
Fore
SplineSet
1382 705 m 128,-1,1
 1382 574 1382 574 1333.5 439.5 c 128,-1,2
 1285 305 1285 305 1195 200.5 c 128,-1,3
 1105 96 1105 96 964.5 35 c 128,-1,4
 824 -26 824 -26 674 -26 c 0,5,6
 393 -26 393 -26 266 126.5 c 128,-1,7
 139 279 139 279 139 508 c 128,-1,8
 139 737 139 737 225.5 908 c 128,-1,9
 312 1079 312 1079 478 1176 c 128,-1,10
 644 1273 644 1273 867 1273 c 0,11,12
 994 1273 994 1273 1094 1228.5 c 128,-1,13
 1194 1184 1194 1184 1256 1107.5 c 128,-1,14
 1318 1031 1318 1031 1350 933.5 c 128,-1,0
 1382 836 1382 836 1382 705 c 128,-1,1
829.5 1176 m 128,-1,16
 754 1176 754 1176 697 1162.5 c 128,-1,17
 640 1149 640 1149 597 1126 c 128,-1,18
 554 1103 554 1103 519.5 1068.5 c 128,-1,19
 485 1034 485 1034 461.5 997 c 128,-1,20
 438 960 438 960 420 913 c 0,21,22
 368 772 368 772 368 548 c 0,23,24
 368 361 368 361 448 226 c 0,25,26
 488 159 488 159 552.5 119 c 128,-1,27
 617 79 617 79 700.5 79 c 128,-1,28
 784 79 784 79 853.5 101.5 c 128,-1,29
 923 124 923 124 970 160.5 c 128,-1,30
 1017 197 1017 197 1052 250 c 0,31,32
 1158 411 1158 411 1158 678 c 0,33,34
 1158 878 1158 878 1077 1020 c 0,35,36
 1037 1090 1037 1090 971 1133 c 128,-1,15
 905 1176 905 1176 829.5 1176 c 128,-1,16
EndSplineSet
Colour: ffffff
EndChar

StartChar: uni0050
Encoding: 80 80 36
Width: 1009
VWidth: 1691
Flags: HMW
LayerCount: 2
Back
SplineSet
50 0 m 1,0,-1
 61 74 l 1,1,-1
 228 121 l 1,2,-1
 228 1104 l 1,3,-1
 57 1134 l 1,4,-1
 67 1211 l 1,5,6
 366 1255 366 1255 543 1255 c 0,7,8
 1045 1255 1045 1255 1045 892 c 0,9,10
 1045 805 1045 805 1007 730 c 0
 969 655 969 655 905.5 604 c 0
 842 553 842 553 758.5 523.5 c 0
 675 494 675 494 584 494 c 0,11,12
 577 494 577 494 484 497 c 1,13,-1
 466 580 l 1,14,-1
 519 581 l 1,15,16
 838 590 838 590 838 856 c 0,17,18
 838 995 838 995 760.5 1083.5 c 0
 683 1172 683 1172 522 1172 c 1,19,20
 420 1166 l 1,21,-1
 420 122 l 1,22,-1
 657 83 l 1,23,-1
 643 0 l 1,24,-1
 50 0 l 1,0,-1
EndSplineSet
Fore
SplineSet
1164 926 m 0,0,1
 1164 793 1164 793 1091 692 c 128,-1,2
 1018 591 1018 591 902.5 540.5 c 128,-1,3
 787 490 787 490 651 490 c 0,4,5
 609 490 609 490 537 499 c 1,6,-1
 530 581 l 1,7,-1
 583 581 l 2,8,9
 950 581 950 581 950 907 c 0,10,11
 950 1027 950 1027 883.5 1100 c 128,-1,12
 817 1173 817 1173 684 1173 c 1,13,-1
 576 1168 l 1,14,-1
 413 122 l 1,15,-1
 642 84 l 1,16,-1
 616 0 l 1,17,-1
 23 0 l 1,18,-1
 45 74 l 1,19,-1
 221 121 l 1,20,-1
 375 1105 l 1,21,-1
 210 1135 l 1,22,-1
 231 1211 l 1,23,24
 521 1255 521 1255 664 1255 c 128,-1,25
 807 1255 807 1255 885 1237.5 c 128,-1,26
 963 1220 963 1220 1027 1182 c 0,27,28
 1164 1102 1164 1102 1164 926 c 0,0,1
EndSplineSet
Colour: ffffff
EndChar

StartChar: uni0051
Encoding: 81 81 37
Width: 1334
VWidth: 1691
Flags: HMW
LayerCount: 2
Back
SplineSet
61 608 m 0,0,1
 61 800 61 800 142.5 950.5 c 0
 224 1101 224 1101 375 1186.5 c 0
 526 1272 526 1272 721 1272 c 0,2,3
 895 1272 895 1272 1028 1184 c 0
 1161 1096 1161 1096 1230 951 c 0
 1299 806 1299 806 1299 629 c 0,4,5
 1299 481 1299 481 1243 351 c 0
 1187 221 1187 221 1076.5 125.5 c 0
 966 30 966 30 818 -6 c 1,6,7
 842 -61 842 -61 870.5 -99 c 0
 899 -137 899 -137 947.5 -172.5 c 0
 996 -208 996 -208 1070.5 -233 c 0
 1145 -258 1145 -258 1250 -275 c 1,8,9
 1250 -324 1250 -324 1241 -351 c 1,10,11
 1171 -385 1171 -385 1065 -385 c 0,12,13
 924 -385 924 -385 820 -286 c 0
 716 -187 716 -187 703 -21 c 1,14,15
 683 -27 683 -27 638 -27 c 0,16,17
 469 -27 469 -27 336.5 56 c 0
 204 139 204 139 132.5 283.5 c 0
 61 428 61 428 61 608 c 0,0,1
263 679 m 0,18,19
 263 615 263 615 273 551 c 0
 283 487 283 487 304.5 418.5 c 0
 326 350 326 350 364 290.5 c 0
 402 231 402 231 453.5 182 c 0
 505 133 505 133 581 102.5 c 0
 657 72 657 72 749 67 c 1,20,21
 828 87 828 87 888 123 c 0
 948 159 948 159 986.5 205 c 0
 1025 251 1025 251 1049 310 c 0
 1073 369 1073 369 1082.5 430 c 0
 1092 491 1092 491 1092 563 c 0,22,23
 1092 674 1092 674 1061.5 781.5 c 0
 1031 889 1031 889 977.5 975.5 c 0
 924 1062 924 1062 842 1115 c 0
 760 1168 760 1168 664 1168 c 0,24,25
 475 1168 475 1168 369 1039.5 c 0
 263 911 263 911 263 679 c 0,18,19
EndSplineSet
Fore
SplineSet
646 -26 m 0,0,1
 499 -26 499 -26 384.5 46.5 c 128,-1,2
 270 119 270 119 209.5 242 c 128,-1,3
 149 365 149 365 149 515 c 0,4,5
 149 738 149 738 240.5 910 c 128,-1,6
 332 1082 332 1082 501.5 1177.5 c 128,-1,7
 671 1273 671 1273 892 1273 c 0,8,9
 1017 1273 1017 1273 1117.5 1227.5 c 128,-1,10
 1218 1182 1218 1182 1280 1104 c 0,11,12
 1410 943 1410 943 1410 723 c 0,13,14
 1410 550 1410 550 1338 399 c 128,-1,15
 1266 248 1266 248 1131 141 c 128,-1,16
 996 34 996 34 819 -7 c 1,17,18
 838 -80 838 -80 874 -128 c 0,19,20
 952 -233 952 -233 1211 -276 c 1,21,22
 1201 -324 1201 -324 1187 -350 c 1,23,24
 1108 -385 1108 -385 1004 -385 c 0,25,26
 863 -385 863 -385 775 -286 c 128,-1,27
 687 -187 687 -187 700 -21 c 1,28,29
 683 -26 683 -26 646 -26 c 0,0,1
849 1168 m 0,30,31
 625 1168 625 1168 493.5 1001.5 c 128,-1,32
 362 835 362 835 362 580 c 0,33,34
 362 324 362 324 488 186 c 0,35,36
 587 77 587 77 761 68 c 1,37,38
 1158 167 1158 167 1190 582 c 0,39,40
 1194 628 1194 628 1194 701 c 128,-1,41
 1194 774 1194 774 1171 861 c 128,-1,42
 1148 948 1148 948 1105.5 1017 c 128,-1,43
 1063 1086 1063 1086 996.5 1127 c 128,-1,44
 930 1168 930 1168 849 1168 c 0,30,31
EndSplineSet
Colour: ffffff
EndChar

StartChar: uni0052
Encoding: 82 82 38
Width: 1213
VWidth: 1691
Flags: HMW
LayerCount: 2
Back
SplineSet
50 0 m 1,0,-1
 61 74 l 1,1,-1
 228 121 l 1,2,-1
 228 1100 l 1,3,-1
 57 1130 l 1,4,-1
 67 1207 l 1,5,6
 361 1253 361 1253 523 1253 c 0,7,8
 639 1253 639 1253 727.5 1237 c 0
 816 1221 816 1221 884.5 1185.5 c 0
 953 1150 953 1150 989 1089 c 0
 1025 1028 1025 1028 1025 943 c 0,9,10
 1025 841 1025 841 949 744 c 0
 873 647 873 647 738 599 c 1,11,-1
 738 598 l 1,12,-1
 918 349 l 2,13,14
 963 287 963 287 983 260.5 c 0
 1003 234 1003 234 1035 195.5 c 0
 1067 157 1067 157 1089.5 140 c 0
 1112 123 1112 123 1143 105.5 c 0
 1174 88 1174 88 1211 77 c 2,15,-1
 1244 67 l 1,16,-1
 1229 -1 l 1,17,18
 1172 -21 1172 -21 1109 -21 c 0,19,20
 998 -21 998 -21 911.5 51.5 c 0
 825 124 825 124 753 253 c 2,21,-1
 594 537 l 1,22,-1
 420 537 l 1,23,-1
 420 126 l 1,24,-1
 608 83 l 1,25,-1
 598 0 l 1,26,-1
 50 0 l 1,0,-1
420 628 m 1,27,-1
 618 628 l 1,28,29
 702 656 702 656 760 722 c 0
 818 788 818 788 818 887 c 0,30,31
 818 1013 818 1013 744 1091 c 0
 670 1169 670 1169 540 1169 c 1,32,33
 420 1164 l 1,34,-1
 420 628 l 1,27,-1
EndSplineSet
Fore
SplineSet
656 628 m 2,0,1
 760 628 760 628 847.5 721 c 128,-1,2
 935 814 935 814 935 932.5 c 128,-1,3
 935 1051 935 1051 873.5 1110 c 128,-1,4
 812 1169 812 1169 698 1169 c 1,5,-1
 576 1164 l 1,6,-1
 490 628 l 1,7,-1
 656 628 l 2,0,1
695 1253 m 0,8,9
 1139 1253 1139 1253 1139 978 c 0,10,11
 1139 858 1139 858 1053 756 c 128,-1,12
 967 654 967 654 806 599 c 1,13,-1
 808 598 l 1,14,-1
 946 348 l 1,15,16
 1023 212 1023 212 1069 159 c 128,-1,17
 1115 106 1115 106 1197 78 c 2,18,-1
 1227 68 l 1,19,-1
 1202 -2 l 1,20,21
 1145 -21 1145 -21 1078 -21 c 0,22,23
 967 -21 967 -21 893.5 51 c 128,-1,24
 820 123 820 123 766 253 c 1,25,-1
 651 537 l 1,26,-1
 477 537 l 1,27,-1
 415 126 l 1,28,-1
 595 83 l 1,29,-1
 571 0 l 1,30,-1
 23 0 l 1,31,-1
 45 74 l 1,32,-1
 221 121 l 1,33,-1
 375 1102 l 1,34,-1
 208 1131 l 1,35,-1
 231 1207 l 1,36,37
 531 1253 531 1253 695 1253 c 0,8,9
EndSplineSet
Colour: ffffff
EndChar

StartChar: uni0053
Encoding: 83 83 39
Width: 863
VWidth: 1691
Flags: HMW
LayerCount: 2
Back
SplineSet
66 122 m 5,0,-1
 79 389 l 1,1,-1
 181 375 l 1,2,-1
 220 187 l 1,3,4
 249 141 249 141 304.5 109 c 0
 360 77 360 77 426 77 c 0,5,6
 483 77 483 77 534.5 97.5 c 0
 586 118 586 118 624.5 167.5 c 0
 663 217 663 217 663 287 c 0,7,8
 663 339 663 339 631.5 383.5 c 0
 600 428 600 428 549.5 461 c 0
 499 494 499 494 437.5 526 c 0
 376 558 376 558 315 594.5 c 0
 254 631 254 631 203.5 673.5 c 0
 153 716 153 716 121.5 778.5 c 0
 90 841 90 841 90 916 c 0,9,10
 90 1025 90 1025 147 1107 c 0
 204 1189 204 1189 291 1229 c 0
 378 1269 378 1269 479 1269 c 0,11,12
 641 1269 641 1269 761 1169 c 1,13,14
 739 887 l 1,15,-1
 640 899 l 1,16,-1
 615 1090 l 1,17,18
 599 1122 599 1122 549.5 1153.5 c 0
 500 1185 500 1185 445 1185 c 0,19,20
 365 1185 365 1185 314 1137 c 0
 263 1089 263 1089 263 995 c 0,21,22
 263 937 263 937 295 889.5 c 0
 327 842 327 842 378.5 807.5 c 0
 430 773 430 773 492.5 741 c 0
 555 709 555 709 617.5 673 c 0
 680 637 680 637 731.5 595.5 c 0
 783 554 783 554 815 492 c 0
 847 430 847 430 847 354 c 0,23,24
 847 243 847 243 783 155 c 0
 719 67 719 67 618 21.5 c 0
 517 -24 517 -24 402 -24 c 0,25,26
 298 -24 298 -24 207.5 17.5 c 0
 117 59 117 59 66 122 c 5,0,-1
EndSplineSet
Fore
SplineSet
591 1184 m 128,-1,1
 517 1184 517 1184 456.5 1130 c 128,-1,2
 396 1076 396 1076 396 977.5 c 128,-1,3
 396 879 396 879 494 807 c 0,4,5
 538 775 538 775 590 743 c 0,6,7
 722 663 722 663 790 600 c 0,8,9
 888 510 888 510 887 380 c 0,10,11
 887 288 887 288 842.5 210.5 c 128,-1,12
 798 133 798 133 726 82 c 0,13,14
 575 -25 575 -25 377 -25 c 0,15,16
 271 -25 271 -25 183 17.5 c 128,-1,17
 95 60 95 60 64 122 c 1,18,-1
 121 390 l 1,19,-1
 220 375 l 1,20,-1
 226 187 l 1,21,22
 248 137 248 137 297 107.5 c 128,-1,23
 346 78 346 78 399 78 c 128,-1,24
 452 78 452 78 489 86 c 0,25,26
 571 105 571 105 630.5 162.5 c 128,-1,27
 690 220 690 220 690 306.5 c 128,-1,28
 690 393 690 393 595 461 c 0,29,30
 554 491 554 491 502 522 c 0,31,32
 374 598 374 598 306 662 c 0,33,34
 211 751 211 751 211 880 c 0,35,36
 211 972 211 972 250 1048 c 0,37,38
 288 1122 288 1122 352 1170 c 0,39,40
 485 1270 485 1270 662 1270 c 128,-1,41
 839 1270 839 1270 923 1169 c 1,42,-1
 857 887 l 1,43,-1
 760 898 l 1,44,-1
 763 1090 l 1,45,46
 756 1117 756 1117 710.5 1150.5 c 128,-1,0
 665 1184 665 1184 591 1184 c 128,-1,1
EndSplineSet
Colour: ffffff
EndChar

StartChar: uni0054
Encoding: 84 84 40
Width: 1119
VWidth: 1691
Flags: HMW
LayerCount: 2
Back
SplineSet
23 1244 m 1,0,-1
 1134 1244 l 1,1,-1
 1100 906 l 1,2,-1
 1005 921 l 1,3,-1
 967 1152 l 1,4,-1
 662 1152 l 1,5,-1
 662 114 l 1,6,-1
 847 80 l 1,7,-1
 833 0 l 1,8,-1
 294 0 l 1,9,-1
 301 74 l 1,10,-1
 470 121 l 1,11,-1
 470 1152 l 1,12,-1
 175 1152 l 1,13,-1
 122 909 l 1,14,-1
 31 922 l 1,15,-1
 23 1244 l 1,0,-1
EndSplineSet
Fore
SplineSet
205 1244 m 1,0,-1
 1316 1244 l 1,1,-1
 1230 907 l 1,2,-1
 1138 922 l 1,3,-1
 1135 1153 l 1,4,-1
 831 1153 l 1,5,-1
 667 114 l 1,6,-1
 846 81 l 1,7,-1
 819 0 l 1,8,-1
 279 0 l 1,9,-1
 301 74 l 1,10,-1
 477 121 l 1,11,-1
 639 1153 l 1,12,-1
 344 1153 l 1,13,-1
 253 910 l 1,14,-1
 163 923 l 1,15,-1
 205 1244 l 1,0,-1
EndSplineSet
Colour: ffffff
EndChar

StartChar: uni0055
Encoding: 85 85 41
Width: 1369
VWidth: 1691
Flags: HMW
LayerCount: 2
Back
SplineSet
22 1168 m 1,0,-1
 35 1244 l 1,1,-1
 577 1244 l 1,2,-1
 568 1168 l 1,3,-1
 399 1130 l 1,4,-1
 399 510 l 2,5,6
 399 304 399 304 492.5 204.5 c 0
 586 105 586 105 747 105 c 0,7,8
 903 105 903 105 987 198 c 0
 1071 291 1071 291 1072 482 c 2,9,-1
 1075 1126 l 1,10,-1
 892 1168 l 1,11,-1
 902 1244 l 1,12,-1
 1380 1244 l 1,13,-1
 1369 1168 l 1,14,-1
 1203 1130 l 1,15,-1
 1198 515 l 2,16,17
 1196 241 1196 241 1075 107 c 0
 954 -27 954 -27 697 -27 c 0,18,19
 620 -27 620 -27 556.5 -16.5 c 0
 493 -6 493 -6 425.5 26.5 c 0
 358 59 358 59 311.5 112 c 0
 265 165 265 165 235.5 256 c 0
 206 347 206 347 206 469 c 2,20,-1
 206 1126 l 1,21,-1
 22 1168 l 1,0,-1
EndSplineSet
Fore
SplineSet
748 92 m 0,0,1
 834 92 834 92 901 118.5 c 128,-1,2
 968 145 968 145 1007 183 c 0,3,4
 1103 276 1103 276 1135 481 c 2,5,-1
 1237 1126 l 1,6,-1
 1062 1168 l 1,7,-1
 1082 1244 l 1,8,-1
 1561 1244 l 1,9,-1
 1539 1168 l 1,10,-1
 1366 1130 l 1,11,-1
 1262 499 l 2,12,13
 1175 -26 1175 -26 662 -26 c 0,14,15
 525 -26 525 -26 438 19.5 c 128,-1,16
 351 65 351 65 314 127 c 0,17,18
 258 221 258 221 258 305.5 c 128,-1,19
 258 390 258 390 268 469 c 1,20,-1
 372 1126 l 1,21,-1
 192 1168 l 1,22,-1
 215 1244 l 1,23,-1
 756 1244 l 1,24,-1
 737 1168 l 1,25,-1
 562 1130 l 1,26,-1
 462 494 l 2,27,28
 430 288 430 288 508 190 c 128,-1,29
 586 92 586 92 748 92 c 0,0,1
EndSplineSet
Colour: ffffff
EndChar

StartChar: uni0056
Encoding: 86 86 42
Width: 1284
VWidth: 1691
Flags: HMW
LayerCount: 2
Back
SplineSet
-21 1168 m 1,0,-1
 -11 1244 l 1,1,-1
 527 1244 l 1,2,-1
 517 1168 l 1,3,-1
 347 1130 l 1,4,-1
 660 251 l 1,5,-1
 980 1126 l 1,6,-1
 798 1168 l 1,7,-1
 805 1244 l 1,8,-1
 1260 1244 l 1,9,-1
 1253 1168 l 1,10,-1
 1121 1130 l 1,11,-1
 696 4 l 1,12,-1
 544 -24 l 1,13,-1
 126 1126 l 1,14,-1
 -21 1168 l 1,0,-1
EndSplineSet
Fore
SplineSet
644 -25 m 1,0,-1
 324 1126 l 1,1,-1
 185 1168 l 1,2,-1
 206 1244 l 1,3,-1
 733 1244 l 1,4,-1
 712 1168 l 1,5,-1
 538 1130 l 1,6,-1
 776 240 l 1,7,-1
 1179 1126 l 1,8,-1
 1002 1168 l 1,9,-1
 1022 1244 l 1,10,-1
 1478 1244 l 1,11,-1
 1458 1168 l 1,12,-1
 1323 1130 l 1,13,-1
 799 5 l 1,14,-1
 644 -25 l 1,0,-1
EndSplineSet
Colour: ffffff
EndChar

StartChar: uni0057
Encoding: 87 87 43
Width: 1844
VWidth: 1691
Flags: HMW
LayerCount: 2
Back
SplineSet
-11 1168 m 1,0,-1
 -2 1244 l 1,1,-1
 512 1244 l 1,2,-1
 497 1168 l 1,3,-1
 330 1130 l 1,4,-1
 572 271 l 1,5,-1
 853 1194 l 1,6,-1
 1029 1219 l 1,7,-1
 1277 287 l 1,8,-1
 1538 1126 l 1,9,-1
 1357 1168 l 1,10,-1
 1368 1244 l 1,11,-1
 1817 1244 l 1,12,-1
 1806 1168 l 1,13,-1
 1683 1130 l 1,14,-1
 1318 4 l 1,15,-1
 1164 -24 l 1,16,-1
 902 951 l 1,17,-1
 617 4 l 1,18,-1
 454 -24 l 1,19,-1
 129 1126 l 1,20,-1
 -11 1168 l 1,0,-1
EndSplineSet
Fore
SplineSet
1219 -25 m 1,0,-1
 1071 951 l 1,1,-1
 676 5 l 1,2,-1
 511 -25 l 1,3,-1
 324 1126 l 1,4,-1
 192 1168 l 1,5,-1
 211 1244 l 1,6,-1
 725 1244 l 1,7,-1
 700 1168 l 1,8,-1
 527 1130 l 1,9,-1
 654 252 l 1,10,-1
 1048 1194 l 1,11,-1
 1229 1219 l 1,12,-1
 1371 269 l 1,13,-1
 1714 1126 l 1,14,-1
 1539 1168 l 1,15,-1
 1562 1244 l 1,16,-1
 2011 1244 l 1,17,-1
 1988 1168 l 1,18,-1
 1861 1130 l 1,19,-1
 1378 5 l 1,20,-1
 1219 -25 l 1,0,-1
EndSplineSet
Colour: ffffff
EndChar

StartChar: uni0058
Encoding: 88 88 44
Width: 1202
VWidth: 1691
Flags: HMW
LayerCount: 2
Back
SplineSet
-1 0 m 1,0,-1
 11 76 l 1,1,-1
 138 121 l 1,2,-1
 504 615 l 1,3,-1
 165 1123 l 1,4,-1
 28 1166 l 1,5,-1
 40 1244 l 1,6,-1
 553 1244 l 1,7,-1
 543 1166 l 1,8,-1
 386 1121 l 1,9,-1
 633 750 l 1,10,-1
 904 1126 l 1,11,-1
 734 1166 l 1,12,-1
 747 1244 l 1,13,-1
 1182 1244 l 1,14,-1
 1174 1168 l 1,15,-1
 1047 1130 l 1,16,-1
 709 657 l 1,17,-1
 1050 114 l 1,18,-1
 1185 80 l 1,19,-1
 1172 0 l 1,20,-1
 669 0 l 1,21,-1
 682 74 l 1,22,-1
 842 121 l 1,23,-1
 580 529 l 1,24,-1
 288 117 l 1,25,-1
 454 83 l 1,26,-1
 439 0 l 1,27,-1
 -1 0 l 1,0,-1
EndSplineSet
Fore
SplineSet
815 637 m 1,0,-1
 1073 114 l 1,1,-1
 1207 81 l 1,2,-1
 1181 0 l 1,3,-1
 667 0 l 1,4,-1
 692 74 l 1,5,-1
 867 121 l 1,6,-1
 654 536 l 1,7,-1
 307 114 l 1,8,-1
 484 81 l 1,9,-1
 461 0 l 1,10,-1
 8 0 l 1,11,-1
 33 74 l 1,12,-1
 162 121 l 1,13,-1
 603 627 l 1,14,-1
 345 1118 l 1,15,-1
 220 1168 l 1,16,-1
 243 1244 l 1,17,-1
 770 1244 l 1,18,-1
 746 1168 l 1,19,-1
 568 1121 l 1,20,-1
 760 725 l 1,21,-1
 1088 1126 l 1,22,-1
 907 1168 l 1,23,-1
 930 1244 l 1,24,-1
 1382 1244 l 1,25,-1
 1362 1168 l 1,26,-1
 1230 1130 l 1,27,-1
 815 637 l 1,0,-1
EndSplineSet
Colour: ffffff
EndChar

StartChar: uni0059
Encoding: 89 89 45
Width: 1210
VWidth: 1691
Flags: HMW
LayerCount: 2
Back
SplineSet
-21 1168 m 1,0,-1
 -8 1244 l 1,1,-1
 500 1244 l 1,2,-1
 488 1168 l 1,3,-1
 330 1130 l 1,4,-1
 607 640 l 1,5,-1
 871 1126 l 1,6,-1
 688 1168 l 1,7,-1
 698 1244 l 1,8,-1
 1143 1244 l 1,9,-1
 1133 1168 l 1,10,-1
 1008 1130 l 1,11,-1
 663 529 l 1,12,-1
 663 114 l 1,13,-1
 826 80 l 1,14,-1
 816 0 l 1,15,-1
 310 0 l 1,16,-1
 320 74 l 1,17,-1
 470 121 l 1,18,-1
 470 504 l 1,19,-1
 117 1126 l 1,20,-1
 -21 1168 l 1,0,-1
EndSplineSet
Fore
SplineSet
798 528 m 1,0,-1
 733 114 l 1,1,-1
 892 81 l 1,2,-1
 869 0 l 1,3,-1
 362 0 l 1,4,-1
 383 74 l 1,5,-1
 542 121 l 1,6,-1
 603 505 l 1,7,-1
 345 1126 l 1,8,-1
 215 1168 l 1,9,-1
 239 1244 l 1,10,-1
 746 1244 l 1,11,-1
 723 1168 l 1,12,-1
 560 1130 l 1,13,-1
 760 641 l 1,14,-1
 1060 1126 l 1,15,-1
 883 1168 l 1,16,-1
 905 1244 l 1,17,-1
 1349 1244 l 1,18,-1
 1327 1168 l 1,19,-1
 1199 1130 l 1,20,-1
 798 528 l 1,0,-1
EndSplineSet
Colour: ffffff
EndChar

StartChar: uni005A
Encoding: 90 90 46
Width: 1009
VWidth: 1691
Flags: HMW
LayerCount: 2
Back
SplineSet
47 104 m 1,0,-1
 792 1149 l 1,1,-1
 255 1149 l 1,2,-1
 178 903 l 1,3,-1
 88 921 l 1,4,-1
 98 1244 l 1,5,-1
 1026 1244 l 1,6,-1
 1026 1168 l 1,7,-1
 262 100 l 1,8,-1
 832 100 l 1,9,-1
 955 351 l 1,10,-1
 1048 335 l 1,11,-1
 991 0 l 1,12,-1
 55 0 l 1,13,-1
 47 104 l 1,0,-1
EndSplineSet
Fore
SplineSet
226 1244 m 1,0,-1
 1144 1244 l 1,1,-1
 1133 1168 l 1,2,-1
 231 101 l 1,3,-1
 821 101 l 1,4,-1
 953 350 l 1,5,-1
 1044 335 l 1,6,-1
 965 0 l 1,7,-1
 8 0 l 1,8,-1
 17 104 l 1,9,-1
 886 1149 l 1,10,-1
 370 1149 l 1,11,-1
 272 903 l 1,12,-1
 185 922 l 1,13,-1
 226 1244 l 1,0,-1
EndSplineSet
Colour: ffffff
EndChar

StartChar: uni005B
Encoding: 91 91 47
Width: 483
VWidth: 0
Flags: HMW
LayerCount: 2
Back
SplineSet
109 -376 m 1,0,-1
 109 1255 l 1,1,-1
 463 1255 l 1,2,-1
 474 1166 l 1,3,-1
 260 1146 l 1,4,-1
 260 -260 l 1,5,-1
 476 -279 l 1,6,-1
 466 -375 l 1,7,-1
 109 -376 l 1,0,-1
EndSplineSet
Fore
SplineSet
365 -375 m 1,0,-1
 89 -377 l 1,1,-1
 350 1255 l 1,2,-1
 621 1255 l 1,3,-1
 617 1166 l 1,4,-1
 474 1146 l 1,5,-1
 252 -259 l 1,6,-1
 391 -279 l 1,7,-1
 365 -375 l 1,0,-1
EndSplineSet
Colour: ffffff
EndChar

StartChar: uni005C
Encoding: 92 92 48
Width: 548
VWidth: 0
Flags: HMW
LayerCount: 2
Back
SplineSet
37 1274 m 1,0,-1
 171 1266 l 1,1,-1
 632 -376 l 1,2,-1
 504 -368 l 1,3,-1
 37 1274 l 1,0,-1
EndSplineSet
Fore
SplineSet
304 1235 m 1,0,-1
 514 -363 l 1,1,-1
 386 -355 l 1,2,-1
 173 1244 l 1,3,-1
 304 1235 l 1,0,-1
EndSplineSet
Colour: ffffff
EndChar

StartChar: uni005D
Encoding: 93 93 49
Width: 483
VWidth: 0
Flags: HMW
LayerCount: 2
Back
SplineSet
0 -279 m 1,0,-1
 217 -260 l 1,1,-1
 217 1146 l 1,2,-1
 1 1166 l 1,3,-1
 13 1255 l 1,4,-1
 366 1255 l 1,5,-1
 368 -376 l 1,6,-1
 10 -375 l 1,7,-1
 0 -279 l 1,0,-1
EndSplineSet
Fore
SplineSet
0 -375 m 1,0,-1
 5 -279 l 1,1,-1
 150 -259 l 1,2,-1
 373 1146 l 1,3,-1
 236 1166 l 1,4,-1
 261 1255 l 1,5,-1
 532 1255 l 1,6,-1
 276 -377 l 1,7,-1
 0 -375 l 1,0,-1
EndSplineSet
Colour: ffffff
EndChar

StartChar: uni005E
Encoding: 94 94 50
Width: 751
VWidth: 0
Flags: HMW
LayerCount: 2
Back
SplineSet
42 826 m 1,0,-1
 331 1237 l 1,1,-1
 386 1250 l 1,2,-1
 681 824 l 1,3,-1
 624 787 l 1,4,-1
 353 1073 l 1,5,-1
 343 1073 l 1,6,-1
 92 793 l 1,7,-1
 42 826 l 1,0,-1
EndSplineSet
Fore
SplineSet
598 1250 m 1,0,-1
 826 824 l 1,1,-1
 765 788 l 1,2,-1
 537 1073 l 1,3,-1
 527 1073 l 1,4,-1
 231 793 l 1,5,-1
 187 826 l 1,6,-1
 542 1237 l 1,7,-1
 598 1250 l 1,0,-1
EndSplineSet
Colour: ffffff
EndChar

StartChar: uni005F
Encoding: 95 95 51
Width: 838
VWidth: 0
Flags: HMW
LayerCount: 2
Back
SplineSet
-1 -132 m 1,0,-1
 11 -27 l 1,1,-1
 839 -27 l 1,2,-1
 828 -132 l 1,3,-1
 -1 -132 l 1,0,-1
EndSplineSet
Fore
SplineSet
-1 -132 m 1,0,-1
 11 -27 l 1,1,-1
 839 -27 l 1,2,-1
 828 -132 l 1,3,-1
 -1 -132 l 1,0,-1
EndSplineSet
Colour: ffffff
EndChar

StartChar: uni0060
Encoding: 96 96 52
Width: 535
VWidth: 0
Flags: HMW
LayerCount: 2
Back
SplineSet
122 1659 m 1,0,-1
 237 1697 l 1,1,-1
 369 1364 l 1,2,-1
 313 1329 l 1,3,-1
 122 1659 l 1,0,-1
EndSplineSet
Fore
SplineSet
122 1659 m 1,0,-1
 237 1697 l 1,1,-1
 369 1364 l 1,2,-1
 313 1329 l 1,3,-1
 122 1659 l 1,0,-1
EndSplineSet
Colour: ff
EndChar

StartChar: uni0061
Encoding: 97 97 53
Width: 842
VWidth: 0
Flags: HMW
LayerCount: 2
Back
SplineSet
47 168 m 4,0,1
 47 225 47 225 74 276.5 c 0
 101 328 101 328 154.5 372.5 c 0
 208 417 208 417 299 447 c 0
 390 477 390 477 508 485 c 1,2,-1
 508 540 l 2,3,4
 508 594 508 594 499.5 639 c 0
 491 684 491 684 471.5 723.5 c 0
 452 763 452 763 416.5 785 c 0
 381 807 381 807 331 807 c 0,5,6
 303 807 303 807 285 801 c 0
 267 795 267 795 256 781 c 0
 245 767 245 767 239 743.5 c 0
 233 720 233 720 229 687 c 0
 225 654 225 654 221.364 608.061 c 0
 220 597 220 597 220 592 c 1,7,8
 199 592 199 592 184.5 593 c 0
 170 594 170 594 148.5 600 c 0
 127 606 127 606 114 616 c 0
 101 626 101 626 91 646.5 c 0
 81 667 81 667 81 695 c 0,9,10
 81 747 81 747 138 795.5 c 0
 195 844 195 844 274 872 c 0
 353 900 353 900 423 900 c 0,11,12
 555 900 555 900 612.5 826.5 c 0
 670 753 670 753 670 593 c 2,13,-1
 670 230 l 2,14,15
 670 160 670 160 691.5 133.5 c 0
 713 107 713 107 782 96 c 1,16,-1
 832 87 l 1,17,-1
 819 1 l 1,18,19
 811 0 811 0 764.5 -9 c 0
 718 -18 718 -18 683 -18 c 0,20,21
 604 -18 604 -18 566 23 c 0
 528 64 528 64 528 116 c 2,22,-1
 528 131 l 1,23,-1
 517 131 l 1,24,25
 505 107 505 107 485 83.5 c 0
 465 60 465 60 432.5 34 c 0
 400 8 400 8 350.5 -8 c 0
 301 -24 301 -24 243 -24 c 0,26,27
 161 -24 161 -24 104 28 c 0
 47 80 47 80 47 168 c 4,0,1
222 215 m 4,28,29
 222 173 222 173 252.5 136 c 0
 283 99 283 99 334 99 c 0,30,31
 382 99 382 99 430 127 c 0
 478 155 478 155 508 188 c 1,32,-1
 508 428 l 1,33,34
 352 397 352 397 287 344.5 c 0
 222 292 222 292 222 215 c 4,28,29
EndSplineSet
Fore
SplineSet
506.5 781 m 128,-1,1
 428 781 428 781 366.5 709.5 c 128,-1,2
 305 638 305 638 274.5 533.5 c 128,-1,3
 244 429 244 429 244 320 c 0,4,5
 244 106 244 106 365 106 c 0,6,7
 417 106 417 106 456.5 130.5 c 128,-1,8
 496 155 496 155 537 201 c 1,9,-1
 623 746 l 1,10,0
 585 781 585 781 506.5 781 c 128,-1,1
654 -17 m 128,-1,12
 586 -17 586 -17 550 25 c 128,-1,13
 514 67 514 67 532 132 c 1,14,-1
 520 132 l 1,15,16
 484 66 484 66 420 22.5 c 128,-1,17
 356 -21 356 -21 274 -21 c 128,-1,18
 192 -21 192 -21 137.5 58 c 128,-1,19
 83 137 83 137 83 262.5 c 128,-1,20
 83 388 83 388 115 488 c 0,21,22
 174 672 174 672 312.5 778.5 c 128,-1,23
 451 885 451 885 588 885 c 128,-1,24
 725 885 725 885 779 851 c 1,25,-1
 794 832 l 1,26,-1
 722 378 l 2,27,28
 690 168 690 168 708 125 c 0,29,30
 718 101 718 101 750 96 c 2,31,-1
 826 84 l 1,32,-1
 808 15 l 1,33,11
 722 -17 722 -17 654 -17 c 128,-1,12
EndSplineSet
Colour: ffffff
EndChar

StartChar: uni0062
Encoding: 98 98 54
Width: 914
VWidth: 0
Flags: HMW
LayerCount: 2
Back
SplineSet
-15 1161 m 1,0,-1
 -2 1237 l 1,1,-1
 275 1258 l 1,2,-1
 299 1235 l 1,3,-1
 299 849 l 1,4,-1
 285 744 l 1,5,-1
 296 744 l 1,6,7
 434 899 434 899 581 899 c 0,8,9
 726 899 726 899 815 780.5 c 0
 904 662 904 662 904 472 c 0,10,11
 904 319 904 319 834.5 204.5 c 0
 765 90 765 90 654 33.5 c 0
 543 -23 543 -23 411 -23 c 0,12,13
 251 -23 251 -23 136 49 c 1,14,-1
 136 1108 l 1,15,-1
 -15 1161 l 1,0,-1
299 155 m 1,16,17
 329 125 329 125 387 106 c 0
 445 87 445 87 510 87 c 0,18,19
 602 87 602 87 663.5 168.5 c 0
 725 250 725 250 725 408 c 0,20,21
 725 456 725 456 719.5 502.5 c 0
 714 549 714 549 699.5 598.5 c 0
 685 648 685 648 662 684.5 c 0
 639 721 639 721 600.5 744.5 c 0
 562 768 562 768 513 768 c 0,22,23
 390 768 390 768 299 672 c 1,24,-1
 299 155 l 1,16,17
EndSplineSet
Fore
SplineSet
689 484.5 m 128,-1,1
 689 558 689 558 674 612 c 128,-1,2
 659 666 659 666 625.5 707 c 128,-1,3
 592 748 592 748 540 748 c 0,4,5
 451 748 451 748 363 666 c 1,6,-1
 277 155 l 1,7,8
 296 125 296 125 340 107 c 128,-1,9
 384 89 384 89 426 89 c 128,-1,10
 468 89 468 89 499.5 100.5 c 128,-1,11
 531 112 531 112 565.5 142 c 128,-1,12
 600 172 600 172 627 217 c 128,-1,13
 654 262 654 262 671.5 336.5 c 128,-1,0
 689 411 689 411 689 484.5 c 128,-1,1
627 890 m 128,-1,15
 694 890 694 890 748 840 c 0,16,17
 858 737 858 737 857 535 c 0,18,19
 857 383 857 383 790 255 c 128,-1,20
 723 127 723 127 603.5 52 c 128,-1,21
 484 -23 484 -23 339 -23 c 0,22,23
 278 -23 278 -23 212 -4.5 c 128,-1,24
 146 14 146 14 107 50 c 1,25,-1
 279 1126 l 1,26,-1
 145 1149 l 1,27,-1
 155 1225 l 1,28,-1
 428 1250 l 1,29,-1
 448 1227 l 1,30,-1
 386 842 l 1,31,-1
 360 722 l 1,32,-1
 372 722 l 1,33,34
 412 791 412 791 486 840.5 c 128,-1,14
 560 890 560 890 627 890 c 128,-1,15
EndSplineSet
Colour: ffffff
EndChar

StartChar: uni0063
Encoding: 99 99 55
Width: 677
VWidth: 0
Flags: HMW
LayerCount: 2
Back
SplineSet
50 415 m 0,0,1
 50 523 50 523 86 615.5 c 0
 122 708 122 708 181.5 769.5 c 0
 241 831 241 831 317 865.5 c 0
 393 900 393 900 475 900 c 0,2,3
 593 900 593 900 654.5 855.5 c 0
 716 811 716 811 716 747 c 0,4,5
 716 702 716 702 683 674 c 0
 650 646 650 646 589 642 c 1,6,7
 576 674 576 674 563.5 697 c 0
 551 720 551 720 531 748 c 0
 511 776 511 776 485 791 c 0
 459 806 459 806 428 806 c 0,8,9
 339 806 339 806 285 724.5 c 0
 231 643 231 643 231 507 c 0,10,11
 231 441 231 441 249 371 c 0
 267 301 267 301 301 236.5 c 0
 335 172 335 172 394.5 131 c 0
 454 90 454 90 528 90 c 0,12,13
 595 90 595 90 640 106 c 0
 685 122 685 122 730 151 c 1,14,-1
 755 93 l 1,15,16
 713 43 713 43 625.5 6.5 c 0
 538 -30 538 -30 445 -30 c 0,17,18
 270 -30 270 -30 160 100 c 0
 50 230 50 230 50 415 c 0,0,1
EndSplineSet
Fore
SplineSet
372.5 92 m 128,-1,1
 439 92 439 92 479.5 108.5 c 128,-1,2
 520 125 520 125 566 157 c 1,3,-1
 590 106 l 1,4,5
 543 48 543 48 468 9 c 128,-1,6
 393 -30 393 -30 322 -30 c 0,7,8
 199 -30 199 -30 129 58.5 c 128,-1,9
 59 147 59 147 59 292.5 c 128,-1,10
 59 438 59 438 105 553.5 c 128,-1,11
 151 669 151 669 220 742.5 c 128,-1,12
 289 816 289 816 366 858 c 128,-1,13
 443 900 443 900 515.5 900 c 128,-1,14
 588 900 588 900 632.5 861 c 128,-1,15
 677 822 677 822 677 764 c 0,16,17
 677 655 677 655 538 642 c 1,18,19
 526 806 526 806 459 806 c 0,20,21
 379 806 379 806 305 670 c 128,-1,22
 231 534 231 534 231 330 c 0,23,24
 231 220 231 220 268.5 156 c 128,-1,0
 306 92 306 92 372.5 92 c 128,-1,1
EndSplineSet
Colour: ffffff
EndChar

StartChar: uni0064
Encoding: 100 100 56
Width: 809
VWidth: 0
Flags: HMW
LayerCount: 2
Back
SplineSet
54 399 m 0,0,1
 54 504 54 504 93.5 599.5 c 0
 133 695 133 695 195.5 759.5 c 0
 258 824 258 824 336 862 c 0
 414 900 414 900 491 900 c 0,2,3
 540 900 540 900 589 887 c 0
 638 874 638 874 663 856 c 1,4,-1
 670 856 l 1,5,-1
 658 984 l 1,6,-1
 658 1111 l 1,7,-1
 506 1166 l 1,8,-1
 520 1241 l 1,9,-1
 798 1265 l 1,10,-1
 819 1241 l 1,11,-1
 819 215 l 2,12,13
 819 178 819 178 824.5 155.5 c 0
 830 133 830 133 848.5 119.5 c 0
 867 106 867 106 877.5 102 c 0
 888 98 888 98 921.361 90.5002 c 0
 926 90 926 90 928 89 c 2,14,-1
 973 79 l 1,15,-1
 962 -4 l 1,16,17
 887 -23 887 -23 815 -23 c 0,18,19
 743 -23 743 -23 704.5 18 c 0
 666 59 666 59 666 124 c 2,20,-1
 666 131 l 1,21,-1
 657 131 l 1,22,23
 546 -21 546 -21 380 -21 c 0,24,25
 240 -21 240 -21 147 90 c 0
 54 201 54 201 54 399 c 0,0,1
230 462 m 0,26,27
 230 290 230 290 291.5 197.5 c 0
 353 105 353 105 451 105 c 0,28,29
 509 105 509 105 568.5 134 c 0
 628 163 628 163 657 197 c 1,30,-1
 657 666 l 1,31,32
 619 728 619 728 557.5 765 c 0
 496 802 496 802 443 802 c 0,33,34
 332 802 332 802 281 709.5 c 0
 230 617 230 617 230 462 c 0,26,27
EndSplineSet
Fore
SplineSet
221 330 m 0,0,1
 221 106 221 106 345 106 c 0,2,3
 412 106 412 106 463 152 c 0,4,5
 481 168 481 168 509 201 c 1,6,-1
 594 735 l 1,7,8
 539 781 539 781 471 781 c 128,-1,9
 403 781 403 781 342 711 c 128,-1,10
 281 641 281 641 251 539 c 128,-1,11
 221 437 221 437 221 330 c 0,0,1
621 -15 m 0,12,13
 506 -15 506 -15 502 74 c 1,14,15
 502 102 502 102 507 132 c 1,16,-1
 494 132 l 1,17,18
 458 66 458 66 394 22.5 c 128,-1,19
 330 -21 330 -21 258 -21 c 0,20,21
 59 -21 59 -21 59 271 c 0,22,23
 59 402 59 402 102.5 519 c 128,-1,24
 146 636 146 636 214.5 714.5 c 128,-1,25
 283 793 283 793 367 839 c 128,-1,26
 451 885 451 885 520.5 885 c 128,-1,27
 590 885 590 885 626 835 c 1,28,-1
 632 835 l 1,29,-1
 664 1140 l 1,30,-1
 524 1166 l 1,31,-1
 537 1239 l 1,32,-1
 811 1263 l 1,33,-1
 831 1240 l 1,34,-1
 697 380 l 2,35,36
 668 194 668 194 670.5 149 c 128,-1,37
 673 104 673 104 713 97 c 2,38,-1
 779 86 l 1,39,-1
 760 17 l 1,40,41
 679 -15 679 -15 621 -15 c 0,12,13
EndSplineSet
Colour: ffffff
EndChar

StartChar: uni0065
Encoding: 101 101 57
Width: 680
VWidth: 0
Flags: HMW
LayerCount: 2
Back
SplineSet
53 428 m 0,0,1
 53 536 53 536 90 627.5 c 0
 127 719 127 719 186 777 c 0
 245 835 245 835 317.5 867 c 0
 390 899 390 899 464 899 c 0,2,3
 579 899 579 899 655 816 c 0
 731 733 731 733 731 581 c 0,4,5
 731 519 731 519 715 451 c 1,6,-1
 231 445 l 1,7,8
 233 396 233 396 244.5 349 c 0
 256 302 256 302 279 256.5 c 0
 302 211 302 211 333 177 c 0
 364 143 364 143 410 122.5 c 0
 456 102 456 102 510 102 c 0,9,10
 557 102 557 102 580.5 104 c 0
 604 106 604 106 646 118.5 c 0
 688 131 688 131 737 157 c 1,11,-1
 758 104 l 1,12,13
 698 41 698 41 612.5 5.5 c 0
 527 -30 527 -30 429 -30 c 0,14,15
 357 -30 357 -30 290.5 -0.5 c 0
 224 29 224 29 170.5 84.5 c 0
 117 140 117 140 85 229 c 0
 53 318 53 318 53 428 c 0,0,1
233 523 m 1,16,-1
 547 546 l 1,17,18
 553 570 553 570 553 615 c 0,19,20
 553 801 553 801 415 801 c 0,21,22
 348 801 348 801 294 729.5 c 0
 240 658 240 658 233 523 c 1,16,-1
EndSplineSet
Fore
SplineSet
466.5 890 m 128,-1,1
 563 890 563 890 612.5 836.5 c 128,-1,2
 662 783 662 783 662 692 c 0,3,4
 662 557 662 557 539 469 c 0,5,6
 482 428 482 428 397.5 407.5 c 128,-1,7
 313 387 313 387 223 396 c 1,8,9
 218 368 218 368 218 324 c 0,10,11
 218 214 218 214 265.5 158 c 128,-1,12
 313 102 313 102 400 102 c 0,13,14
 438 102 438 102 504 129.5 c 128,-1,15
 570 157 570 157 590 177 c 1,16,-1
 616 132 l 1,17,18
 578 73 578 73 489 21.5 c 128,-1,19
 400 -30 400 -30 306 -30 c 0,20,21
 62 -30 62 -30 58 289 c 1,22,23
 55 445 55 445 113.5 584.5 c 128,-1,24
 172 724 172 724 271 807 c 128,-1,0
 370 890 370 890 466.5 890 c 128,-1,1
420 798 m 0,25,26
 285 798 285 798 232 469 c 1,27,28
 341 456 341 456 426.5 500 c 128,-1,29
 512 544 512 544 512 663 c 0,30,31
 512 719 512 719 487 758.5 c 128,-1,32
 462 798 462 798 420 798 c 0,25,26
EndSplineSet
Colour: ffffff
EndChar

StartChar: uni0066
Encoding: 102 102 58
Width: 539
VWidth: 0
Flags: HMW
LayerCount: 2
Back
SplineSet
35 0 m 1,0,-1
 47 73 l 1,1,-1
 199 116 l 1,2,-1
 199 784 l 1,3,-1
 50 784 l 1,4,-1
 62 857 l 1,5,-1
 200 879 l 1,6,7
 212 982 212 982 252 1066 c 0
 292 1150 292 1150 347 1200.5 c 0
 402 1251 402 1251 461 1277.5 c 0
 520 1304 520 1304 575 1304 c 0,8,9
 659 1304 659 1304 710.5 1275 c 0
 762 1246 762 1246 762 1189 c 0,10,11
 762 1155 762 1155 732 1121.5 c 0
 702 1088 702 1088 673 1077 c 1,12,13
 635 1124 635 1124 587 1161 c 0
 539 1198 539 1198 497 1198 c 0,14,15
 436 1198 436 1198 403.5 1150 c 0
 371 1102 371 1102 368 981 c 2,16,-1
 366 873 l 1,17,-1
 623 873 l 1,18,-1
 611 784 l 1,19,-1
 366 784 l 1,20,-1
 366 121 l 1,21,-1
 611 83 l 1,22,-1
 604 0 l 1,23,-1
 35 0 l 1,0,-1
EndSplineSet
Fore
SplineSet
791 1193 m 0,0,1
 791 1163 791 1163 770 1134 c 128,-1,2
 749 1105 749 1105 709 1090 c 1,3,4
 630 1178 630 1178 585 1178 c 128,-1,5
 540 1178 540 1178 522.5 1166.5 c 0,6,7
 505 1156 505 1156 496 1148 c 0,8,9
 486 1140 486 1140 478 1122 c 0,10,11
 456 1075 456 1075 436 956 c 2,12,-1
 419 858 l 1,13,-1
 605 858 l 1,14,-1
 581 768 l 1,15,-1
 406 768 l 1,16,-1
 302 109 l 1,17,-1
 510 79 l 1,18,-1
 492 2 l 1,19,-1
 3 2 l 1,20,-1
 20 76 l 1,21,-1
 144 109 l 1,22,-1
 245 768 l 1,23,-1
 126 768 l 1,24,-1
 143 836 l 1,25,-1
 266 872 l 1,26,27
 301 1054 301 1054 412.5 1180 c 128,-1,28
 524 1306 524 1306 644 1306 c 0,29,30
 791 1306 791 1306 791 1193 c 0,0,1
EndSplineSet
Colour: ffffff
EndChar

StartChar: uni0067
Encoding: 103 103 59
Width: 810
Flags: HMW
LayerCount: 2
Back
SplineSet
24 -162 m 0,0,1
 24 -130 24 -130 40 -101 c 0
 56 -72 56 -72 88 -46.5 c 0
 120 -21 120 -21 136 -10.5 c 0
 152 -0 152 -0 184 18 c 1,2,-1
 184 27 l 1,3,4
 138 49 138 49 113 85 c 0
 88 121 88 121 88 164 c 0,5,6
 88 203 88 203 142 253.5 c 0
 196 304 196 304 255 328 c 1,7,-1
 255 335 l 1,8,9
 208 347 208 347 150 422.5 c 0
 92 498 92 498 92 589 c 0,10,11
 92 711 92 711 195 803.5 c 0
 298 896 298 896 426 896 c 0,12,13
 548 896 548 896 636 833 c 1,14,15
 851 849 l 1,16,-1
 871 826 l 1,17,-1
 832 715 l 1,18,-1
 816 715 l 1,19,-1
 693 755 l 1,20,-1
 693 738 l 1,21,22
 727 665 727 665 727 599 c 0,23,24
 727 512 727 512 673.5 441.5 c 0
 620 371 620 371 543.5 336 c 0
 467 301 467 301 389 301 c 0,25,26
 336 301 336 301 299 311 c 1,27,28
 249 259 249 259 249 223 c 0,29,30
 249 188 249 188 286.5 169.5 c 0
 324 151 324 151 432 151 c 2,31,-1
 568 151 l 2,32,33
 630 151 630 151 674.5 143.5 c 0
 719 136 719 136 760.5 116 c 0
 802 96 802 96 823.5 54.5 c 0
 845 13 845 13 845 -50 c 0,34,35
 845 -135 845 -135 778 -213.5 c 0
 711 -292 711 -292 604.5 -339 c 0
 498 -386 498 -386 386 -386 c 0,36,37
 313 -386 313 -386 251.5 -375 c 0
 190 -364 190 -364 137 -339 c 0
 84 -314 84 -314 54 -269 c 0
 24 -224 24 -224 24 -162 c 0,0,1
200 -108 m 0,38,39
 200 -279 200 -279 440 -279 c 0,40,41
 547 -279 547 -279 611.5 -236 c 0
 676 -193 676 -193 676 -100 c 0,42,43
 676 -36 676 -36 622.5 -16.5 c 0
 569 3 569 3 426 3 c 2,44,-1
 252 3 l 1,45,46
 250 2 250 2 246.5 0.5 c 0
 243 -1 243 -1 234 -9.5 c 0
 225 -18 225 -18 218 -29 c 0
 211 -40 211 -40 205.5 -61 c 0
 200 -82 200 -82 200 -108 c 0,38,39
252 608 m 0,47,48
 252 510 252 510 304.5 445 c 0
 357 380 357 380 417 380 c 0,49,50
 564 380 564 380 564 580 c 0,51,52
 564 670 564 670 519.5 746.5 c 0
 475 823 475 823 402 823 c 0,53,54
 327 823 327 823 289.5 766 c 0
 252 709 252 709 252 608 c 0,47,48
EndSplineSet
Fore
SplineSet
123 -132.5 m 128,-1,1
 123 -190 123 -190 181 -234.5 c 128,-1,2
 239 -279 239 -279 331.5 -279 c 128,-1,3
 424 -279 424 -279 496 -233 c 128,-1,4
 568 -187 568 -187 568 -113.5 c 128,-1,5
 568 -40 568 -40 523.5 -8.5 c 128,-1,6
 479 23 479 23 359 23 c 2,7,-1
 230 23 l 1,8,9
 195 12 195 12 159 -31.5 c 128,-1,0
 123 -75 123 -75 123 -132.5 c 128,-1,1
393 170 m 2,10,-1
 471 170 l 2,11,12
 737 170 737 170 737 -52 c 0,13,14
 737 -127 737 -127 660 -206 c 128,-1,15
 583 -285 583 -285 470 -335.5 c 128,-1,16
 357 -386 357 -386 278 -386 c 0,17,18
 142 -386 142 -386 53 -343.5 c 128,-1,19
 -36 -301 -36 -301 -38 -201 c 1,20,21
 -42 -120 -42 -120 19.5 -53.5 c 128,-1,22
 81 13 81 13 155 38 c 1,23,-1
 155 46 l 1,24,25
 111 69 111 69 89.5 92.5 c 128,-1,26
 68 116 68 116 68 161.5 c 128,-1,27
 68 207 68 207 127.5 258 c 128,-1,28
 187 309 187 309 250 330 c 1,29,-1
 252 338 l 1,30,31
 209 342 209 342 174 412 c 128,-1,32
 139 482 139 482 139 550 c 0,33,34
 139 687 139 687 250.5 792 c 128,-1,35
 362 897 362 897 502 897 c 0,36,37
 601 897 601 897 659 834 c 1,38,-1
 860 859 l 1,39,-1
 877 836 l 1,40,-1
 832 715 l 1,41,-1
 816 715 l 1,42,-1
 697 755 l 1,43,-1
 695 738 l 1,44,45
 710 686 710 686 710 625.5 c 128,-1,46
 710 565 710 565 673 500 c 128,-1,47
 636 435 636 435 581.5 391.5 c 128,-1,48
 527 348 527 348 462 324.5 c 128,-1,49
 397 301 397 301 344 311 c 1,50,51
 307 301 307 301 276 274.5 c 128,-1,52
 245 248 245 248 245 218.5 c 128,-1,53
 245 189 245 189 279 179.5 c 128,-1,54
 313 170 313 170 393 170 c 2,10,-1
466 822 m 0,55,56
 414 822 414 822 372.5 777.5 c 128,-1,57
 331 733 331 733 311 670 c 128,-1,58
 291 607 291 607 291 542.5 c 128,-1,59
 291 478 291 478 320.5 429 c 128,-1,60
 350 380 350 380 402 380 c 128,-1,61
 454 380 454 380 492 424 c 0,62,63
 562 506 562 506 562 664 c 128,-1,64
 562 822 562 822 466 822 c 0,55,56
EndSplineSet
Colour: ffffff
EndChar

StartChar: uni0068
Encoding: 104 104 60
Width: 903
VWidth: 0
Flags: HMW
LayerCount: 2
Back
SplineSet
10 0 m 1,0,-1
 21 79 l 1,1,-1
 175 116 l 1,2,-1
 175 1117 l 1,3,-1
 15 1171 l 1,4,-1
 27 1247 l 1,5,-1
 316 1269 l 1,6,-1
 341 1245 l 1,7,-1
 341 850 l 1,8,-1
 325 744 l 1,9,-1
 335 744 l 1,10,11
 476 900 476 900 629 900 c 0,12,13
 684 900 684 900 725.5 886.5 c 0
 767 873 767 873 801.5 841 c 0
 836 809 836 809 854 748 c 0
 872 687 872 687 872 599 c 2,14,-1
 872 114 l 1,15,-1
 1017 79 l 1,16,-1
 1005 0 l 1,17,-1
 556 0 l 1,18,-1
 568 74 l 1,19,-1
 703 114 l 1,20,-1
 706 580 l 2,21,22
 706 677 706 677 655 720.5 c 0
 604 764 604 764 534 764 c 0,23,24
 426 764 426 764 341 675 c 1,25,-1
 341 116 l 1,26,-1
 487 80 l 1,27,-1
 475 0 l 1,28,-1
 10 0 l 1,0,-1
EndSplineSet
Fore
SplineSet
580 745 m 0,0,1
 498 745 498 745 438 701 c 0,2,3
 418 686 418 686 393 662 c 1,4,-1
 304 102 l 1,5,-1
 426 71 l 1,6,-1
 408 0 l 1,7,-1
 3 0 l 1,8,-1
 25 74 l 1,9,-1
 145 107 l 1,10,-1
 307 1126 l 1,11,-1
 173 1149 l 1,12,-1
 185 1225 l 1,13,-1
 459 1250 l 1,14,-1
 481 1227 l 1,15,-1
 419 846 l 1,16,-1
 391 722 l 1,17,-1
 403 722 l 1,18,19
 454 790 454 790 529.5 841.5 c 128,-1,20
 605 893 605 893 687 893 c 0,21,22
 870 893 870 893 826 613 c 1,23,-1
 743 101 l 1,24,-1
 867 73 l 1,25,-1
 846 0 l 1,26,-1
 575 0 l 1,27,-1
 659 525 l 1,28,29
 693 745 693 745 580 745 c 0,0,1
EndSplineSet
Colour: ffffff
EndChar

StartChar: uni0069
Encoding: 105 105 61
Width: 473
VWidth: 0
Flags: HMW
LayerCount: 2
Back
SplineSet
37 0 m 1,0,-1
 49 79 l 1,1,-1
 200 116 l 1,2,-1
 200 731 l 1,3,-1
 49 786 l 1,4,-1
 62 862 l 1,5,-1
 343 885 l 1,6,-1
 368 860 l 1,7,-1
 368 116 l 1,8,-1
 528 80 l 1,9,-1
 517 0 l 1,10,-1
 37 0 l 1,0,-1
156 1194 m 0,11,12
 156 1241 156 1241 191.5 1273.5 c 0
 227 1306 227 1306 275 1306 c 0,13,14
 325 1306 325 1306 361 1273 c 0
 397 1240 397 1240 397 1192 c 0,15,16
 397 1142 397 1142 361 1106 c 0
 325 1070 325 1070 275 1070 c 0,17,18
 226 1070 226 1070 191 1106.5 c 0
 156 1143 156 1143 156 1194 c 0,11,12
EndSplineSet
Fore
SplineSet
396.5 1301 m 128,-1,1
 442 1301 442 1301 468.5 1271.5 c 128,-1,2
 495 1242 495 1242 495 1195 c 128,-1,3
 495 1148 495 1148 460 1112.5 c 128,-1,4
 425 1077 425 1077 380 1077 c 128,-1,5
 335 1077 335 1077 304.5 1108 c 128,-1,6
 274 1139 274 1139 274 1183.5 c 128,-1,7
 274 1228 274 1228 312.5 1264.5 c 128,-1,0
 351 1301 351 1301 396.5 1301 c 128,-1,1
144 106 m 1,8,-1
 244 746 l 1,9,-1
 114 768 l 1,10,-1
 124 844 l 1,11,-1
 398 869 l 1,12,-1
 418 846 l 1,13,-1
 302 102 l 1,14,-1
 428 71 l 1,15,-1
 411 -2 l 1,16,-1
 3 -2 l 1,17,-1
 21 73 l 1,18,-1
 144 106 l 1,8,-1
EndSplineSet
Colour: ffffff
EndChar

StartChar: uni006A
Encoding: 106 106 62
Width: 450
VWidth: 0
Flags: HMW
LayerCount: 2
Back
SplineSet
-34 -295 m 1,0,1
 3 -268 3 -268 31 -241.5 c 0
 59 -215 59 -215 90 -173.5 c 0
 121 -132 121 -132 141 -85.5 c 0
 161 -39 161 -39 174 27.5 c 0
 187 94 187 94 187 172 c 2,2,-1
 187 731 l 1,3,-1
 37 786 l 1,4,-1
 52 866 l 1,5,-1
 331 887 l 1,6,-1
 356 862 l 1,7,-1
 356 151 l 2,8,9
 356 -193 356 -193 61 -359 c 1,10,-1
 15 -383 l 1,11,-1
 -34 -295 l 1,0,1
139 1189 m 0,12,13
 139 1239 139 1239 175.5 1273.5 c 0
 212 1308 212 1308 263 1308 c 0,14,15
 313 1308 313 1308 348.5 1272.5 c 0
 384 1237 384 1237 384 1188 c 0,16,17
 384 1137 384 1137 348 1100 c 0
 312 1063 312 1063 262 1063 c 0,18,19
 212 1063 212 1063 175.5 1100.5 c 0
 139 1138 139 1138 139 1189 c 0,12,13
EndSplineSet
Fore
SplineSet
-149 -307 m 1,0,1
 73 -145 73 -145 109 99 c 1,2,-1
 211 748 l 1,3,-1
 79 770 l 1,4,-1
 89 846 l 1,5,-1
 363 870 l 1,6,-1
 385 847 l 1,7,-1
 264 86 l 2,8,9
 228 -132 228 -132 60 -280 c 0,10,11
 -14 -345 -14 -345 -99 -386 c 1,12,-1
 -149 -307 l 1,0,1
364.5 1303 m 128,-1,14
 412 1303 412 1303 440.5 1272 c 128,-1,15
 469 1241 469 1241 469 1192 c 128,-1,16
 469 1143 469 1143 431.5 1105 c 128,-1,17
 394 1067 394 1067 347 1067 c 128,-1,18
 300 1067 300 1067 269 1098.5 c 128,-1,19
 238 1130 238 1130 238 1176.5 c 128,-1,20
 238 1223 238 1223 277.5 1263 c 128,-1,13
 317 1303 317 1303 364.5 1303 c 128,-1,14
EndSplineSet
Colour: ffffff
EndChar

StartChar: uni006B
Encoding: 107 107 63
Width: 885
VWidth: 0
Flags: HMW
LayerCount: 2
Back
SplineSet
10 0 m 1,0,-1
 21 79 l 1,1,-1
 174 116 l 1,2,-1
 174 1108 l 1,3,-1
 16 1161 l 1,4,-1
 28 1237 l 1,5,-1
 316 1260 l 1,6,-1
 341 1235 l 1,7,-1
 341 116 l 1,8,-1
 500 80 l 1,9,-1
 488 0 l 1,10,-1
 10 0 l 1,0,-1
365 432 m 1,11,-1
 365 452 l 1,12,-1
 624 777 l 1,13,-1
 491 817 l 1,14,-1
 501 893 l 1,15,-1
 927 893 l 1,16,-1
 913 819 l 1,17,-1
 764 777 l 1,18,-1
 527 487 l 1,19,-1
 606 386 l 2,20,21
 631 354 631 354 671 301.5 c 0
 711 249 711 249 728.5 226.5 c 0
 746 204 746 204 775 171.5 c 0
 804 139 804 139 824.5 125.5 c 0
 845 112 845 112 872.5 99.5 c 0
 900 87 900 87 931 83 c 2,22,-1
 971 77 l 1,23,-1
 960 0 l 1,24,25
 889 -19 889 -19 841 -19 c 0,26,27
 747 -19 747 -19 675 44 c 0
 603 107 603 107 470 287 c 1,28,-1
 365 432 l 1,11,-1
EndSplineSet
Fore
SplineSet
144 107 m 1,0,-1
 306 1126 l 1,1,-1
 173 1148 l 1,2,-1
 185 1224 l 1,3,-1
 457 1249 l 1,4,-1
 479 1225 l 1,5,-1
 302 104 l 1,6,-1
 428 73 l 1,7,-1
 411 0 l 1,8,-1
 3 0 l 1,9,-1
 20 74 l 1,10,-1
 144 107 l 1,0,-1
687 -20 m 128,-1,12
 614 -20 614 -20 564.5 43.5 c 128,-1,13
 515 107 515 107 439 287 c 1,14,-1
 378 434 l 1,15,-1
 381 451 l 1,16,-1
 644 770 l 1,17,-1
 522 803 l 1,18,-1
 537 874 l 1,19,-1
 917 874 l 1,20,-1
 895 798 l 1,21,-1
 763 765 l 1,22,-1
 524 487 l 1,23,-1
 573 383 l 2,24,25
 582 364 582 364 599.5 324.5 c 128,-1,26
 617 285 617 285 624.5 269.5 c 128,-1,27
 632 254 632 254 646.5 224 c 0,28,29
 662 194 662 194 670 182 c 0,30,31
 678 168 678 168 692 148 c 0,32,33
 737 84 737 84 819 73 c 2,34,-1
 854 68 l 1,35,-1
 832 -2 l 1,36,11
 760 -20 760 -20 687 -20 c 128,-1,12
EndSplineSet
Colour: ffffff
EndChar

StartChar: uni006C
Encoding: 108 108 64
Width: 457
VWidth: 0
Flags: HMW
LayerCount: 2
Back
SplineSet
10 0 m 1,0,-1
 21 79 l 1,1,-1
 174 116 l 1,2,-1
 174 1117 l 1,3,-1
 16 1171 l 1,4,-1
 28 1247 l 1,5,-1
 316 1269 l 1,6,-1
 341 1245 l 1,7,-1
 341 116 l 1,8,-1
 500 80 l 1,9,-1
 488 0 l 1,10,-1
 10 0 l 1,0,-1
EndSplineSet
Fore
SplineSet
144 107 m 1,0,-1
 306 1126 l 1,1,-1
 173 1148 l 1,2,-1
 185 1224 l 1,3,-1
 457 1249 l 1,4,-1
 479 1225 l 1,5,-1
 302 104 l 1,6,-1
 429 73 l 1,7,-1
 411 0 l 1,8,-1
 3 0 l 1,9,-1
 21 74 l 1,10,-1
 144 107 l 1,0,-1
EndSplineSet
Colour: ffffff
EndChar

StartChar: uni006D
Encoding: 109 109 65
Width: 1337
VWidth: 0
Flags: HMW
LayerCount: 2
Back
SplineSet
43 0 m 1,0,-1
 53 74 l 1,1,-1
 203 114 l 1,2,-1
 203 719 l 1,3,-1
 43 770 l 1,4,-1
 53 845 l 1,5,-1
 357 887 l 1,6,-1
 375 866 l 1,7,-1
 357 740 l 1,8,-1
 366 740 l 1,9,10
 419 806 419 806 498.5 851 c 0
 578 896 578 896 666 896 c 0,11,12
 742 896 742 896 803.5 856 c 0
 865 816 865 816 887 731 c 1,13,-1
 899 731 l 1,14,15
 952 799 952 799 1028.5 843.5 c 0
 1105 888 1105 888 1194 888 c 0,16,17
 1430 888 1430 888 1430 609 c 2,18,-1
 1430 116 l 1,19,-1
 1568 80 l 1,20,-1
 1555 1 l 1,21,-1
 1130 1 l 1,22,-1
 1137 74 l 1,23,-1
 1262 114 l 1,24,-1
 1262 585 l 2,25,26
 1262 660 1262 660 1217 710 c 0
 1172 760 1172 760 1094 760 c 0,27,28
 1034 760 1034 760 990.5 733.5 c 0
 947 707 947 707 903 660 c 1,29,-1
 903 114 l 1,30,-1
 1051 79 l 1,31,-1
 1041 0 l 1,32,-1
 598 0 l 1,33,-1
 609 74 l 1,34,-1
 740 114 l 1,35,-1
 740 585 l 2,36,37
 740 663 740 663 691 711.5 c 0
 642 760 642 760 569 760 c 0,38,39
 448 760 448 760 372 673 c 1,40,-1
 372 114 l 1,41,-1
 515 79 l 1,42,-1
 504 0 l 1,43,-1
 43 0 l 1,0,-1
EndSplineSet
Fore
SplineSet
1021 746 m 0,0,1
 913 746 913 746 829 662 c 1,2,3
 821 593 821 593 806 509 c 1,4,-1
 742 102 l 1,5,-1
 865 74 l 1,6,-1
 844 2 l 1,7,-1
 581 2 l 1,8,-1
 570 15 l 1,9,-1
 652 525 l 1,10,11
 671 620 671 620 657 683 c 128,-1,12
 643 746 643 746 585 746 c 0,13,14
 485 746 485 746 396 662 c 1,15,-1
 309 104 l 1,16,-1
 431 73 l 1,17,-1
 413 0 l 1,18,-1
 3 0 l 1,19,-1
 25 76 l 1,20,-1
 145 109 l 1,21,-1
 241 742 l 1,22,-1
 111 763 l 1,23,-1
 124 846 l 1,24,-1
 405 870 l 1,25,-1
 426 847 l 1,26,-1
 395 722 l 1,27,-1
 406 722 l 1,28,29
 438 769 438 769 490 812 c 0,30,31
 590 893 590 893 690 893 c 0,32,33
 757 893 757 893 796.5 853 c 128,-1,34
 836 813 836 813 832 730 c 1,35,-1
 844 730 l 1,36,37
 967 893 967 893 1121 893 c 0,38,39
 1212 893 1212 893 1242 825 c 128,-1,40
 1272 757 1272 757 1252 613 c 1,41,-1
 1177 101 l 1,42,-1
 1301 73 l 1,43,-1
 1280 0 l 1,44,-1
 1017 0 l 1,45,-1
 1006 13 l 1,46,-1
 1085 525 l 1,47,48
 1118 746 1118 746 1021 746 c 0,0,1
EndSplineSet
Colour: ffffff
EndChar

StartChar: uni006E
Encoding: 110 110 66
Width: 898
VWidth: 0
Flags: HMW
LayerCount: 2
Back
SplineSet
37 0 m 1,0,-1
 47 73 l 1,1,-1
 198 114 l 1,2,-1
 198 721 l 1,3,-1
 44 773 l 1,4,-1
 54 849 l 1,5,-1
 352 888 l 1,6,-1
 369 869 l 1,7,-1
 352 741 l 1,8,-1
 362 741 l 1,9,10
 419 809 419 809 497 854 c 0
 575 899 575 899 663 899 c 0,11,12
 780 899 780 899 842 825 c 0
 904 751 904 751 904 616 c 2,13,-1
 904 114 l 1,14,-1
 1048 79 l 1,15,-1
 1038 0 l 1,16,-1
 589 0 l 1,17,-1
 599 73 l 1,18,-1
 737 114 l 1,19,-1
 737 577 l 2,20,21
 737 670 737 670 689.5 715.5 c 0
 642 761 642 761 563 761 c 0,22,23
 443 761 443 761 366 675 c 1,24,-1
 366 114 l 1,25,-1
 515 79 l 1,26,-1
 501 0 l 1,27,-1
 37 0 l 1,0,-1
EndSplineSet
Fore
SplineSet
575 743 m 0,0,1
 474 743 474 743 391 664 c 1,2,-1
 302 106 l 1,3,-1
 424 74 l 1,4,-1
 406 2 l 1,5,-1
 3 2 l 1,6,-1
 25 74 l 1,7,-1
 145 107 l 1,8,-1
 241 742 l 1,9,-1
 111 763 l 1,10,-1
 124 846 l 1,11,-1
 401 870 l 1,12,-1
 423 847 l 1,13,-1
 388 722 l 1,14,-1
 400 722 l 1,15,16
 448 786 448 786 530 839.5 c 128,-1,17
 612 893 612 893 692.5 893 c 128,-1,18
 773 893 773 893 806.5 831.5 c 128,-1,19
 840 770 840 770 817 613 c 1,20,-1
 738 104 l 1,21,-1
 862 76 l 1,22,-1
 841 3 l 1,23,-1
 575 3 l 1,24,-1
 563 17 l 1,25,-1
 646 525 l 1,26,27
 676 686 676 686 632 726 c 0,28,29
 614 743 614 743 575 743 c 0,0,1
EndSplineSet
Colour: ffffff
EndChar

StartChar: uni006F
Encoding: 111 111 67
Width: 832
VWidth: 0
Flags: HMW
LayerCount: 2
Back
SplineSet
52 426 m 4,0,1
 52 536 52 536 88.5 628 c 0
 125 720 125 720 186 779 c 0
 247 838 247 838 325 870.5 c 0
 403 903 403 903 487 903 c 0,2,3
 670 903 670 903 776 776.5 c 0
 882 650 882 650 882 441 c 0,4,5
 882 235 882 235 761.5 104 c 0
 641 -27 641 -27 463 -27 c 0,6,7
 270 -27 270 -27 161 100 c 0
 52 227 52 227 52 426 c 4,0,1
230 497 m 4,8,9
 230 416 230 416 244.5 343 c 0
 259 270 259 270 289 207 c 0
 319 144 319 144 372.5 107 c 0
 426 70 426 70 497 70 c 0,10,11
 596 70 596 70 650 156.5 c 0
 704 243 704 243 704 359 c 0,12,13
 704 438 704 438 689.5 512 c 0
 675 586 675 586 646 652 c 0
 617 718 617 718 565 758 c 0
 513 798 513 798 445 798 c 0,14,15
 373 798 373 798 323 754.5 c 0
 273 711 273 711 251.5 645 c 0
 230 579 230 579 230 497 c 4,8,9
EndSplineSet
Fore
SplineSet
333 -26 m 128,-1,1
 204 -26 204 -26 131 73 c 128,-1,2
 58 172 58 172 58 320 c 128,-1,3
 58 468 58 468 116.5 597.5 c 128,-1,4
 175 727 175 727 283 810 c 128,-1,5
 391 893 391 893 532 893 c 0,6,7
 672 893 672 893 738 739 c 0,8,9
 774 653 774 653 774.5 525.5 c 128,-1,10
 775 398 775 398 720.5 269.5 c 128,-1,11
 666 141 666 141 564 57.5 c 128,-1,0
 462 -26 462 -26 333 -26 c 128,-1,1
570.5 728 m 128,-1,13
 542 816 542 816 471 816 c 128,-1,14
 400 816 400 816 344 742 c 0,15,16
 239 604 239 604 239 320 c 0,17,18
 239 164 239 164 297 88 c 0,19,20
 328 48 328 48 370 48 c 0,21,22
 440 48 440 48 493.5 123 c 128,-1,23
 547 198 547 198 573 311 c 128,-1,24
 599 424 599 424 599 532 c 128,-1,12
 599 640 599 640 570.5 728 c 128,-1,13
EndSplineSet
Colour: ffffff
EndChar

StartChar: uni0070
Encoding: 112 112 68
Width: 923
VWidth: 0
Flags: HMW
LayerCount: 2
Back
SplineSet
13 -372 m 1,0,-1
 19 -294 l 1,1,-1
 172 -256 l 1,2,-1
 172 722 l 1,3,-1
 18 768 l 1,4,-1
 30 845 l 1,5,-1
 321 882 l 1,6,-1
 342 863 l 1,7,-1
 328 734 l 1,8,-1
 335 734 l 1,9,10
 383 801 383 801 453 850 c 0
 523 899 523 899 611 899 c 0,11,12
 747 899 747 899 830.5 792 c 0
 914 685 914 685 914 467 c 0,13,14
 914 254 914 254 788 117.5 c 0
 662 -19 662 -19 469 -19 c 0,15,16
 425 -19 425 -19 375 -10 c 1,17,-1
 369 111 l 1,18,19
 403 98 403 98 433 93.5 c 0
 463 89 463 89 522 89 c 0,20,21
 623 89 623 89 677 175 c 0
 731 261 731 261 731 406 c 0,22,23
 731 768 731 768 540 768 c 0,24,25
 433 768 433 768 335 666 c 1,26,-1
 335 -257 l 1,27,-1
 491 -292 l 1,28,-1
 479 -372 l 1,29,-1
 13 -372 l 1,0,-1
EndSplineSet
Fore
SplineSet
628 890 m 0,0,1
 727 890 727 890 796 786 c 128,-1,2
 865 682 865 682 865 544 c 0,3,4
 865 277 865 277 719.5 129.5 c 128,-1,5
 574 -18 574 -18 390 -18 c 0,6,7
 317 -18 317 -18 297 -7 c 1,8,-1
 319 107 l 1,9,10
 355 89 355 89 394 89 c 128,-1,11
 433 89 433 89 454.5 91 c 128,-1,12
 476 93 476 93 506.5 102 c 128,-1,13
 537 111 537 111 561 127 c 0,14,15
 690 213 690 213 690 470 c 0,16,17
 690 605 690 605 651 675.5 c 128,-1,18
 612 746 612 746 556.5 746 c 128,-1,19
 501 746 501 746 463.5 727.5 c 128,-1,20
 426 709 426 709 372 661 c 1,21,-1
 233 -263 l 1,22,-1
 388 -294 l 1,23,-1
 370 -365 l 1,24,-1
 -66 -365 l 1,25,-1
 -46 -291 l 1,26,-1
 74 -258 l 1,27,-1
 220 748 l 1,28,-1
 88 770 l 1,29,-1
 99 846 l 1,30,-1
 381 870 l 1,31,-1
 401 847 l 1,32,-1
 370 720 l 1,33,-1
 381 720 l 1,34,35
 414 783 414 783 488 836.5 c 128,-1,36
 562 890 562 890 628 890 c 0,0,1
EndSplineSet
Colour: ffffff
EndChar

StartChar: uni0071
Encoding: 113 113 69
Width: 837
VWidth: 0
Flags: HMW
LayerCount: 2
Back
SplineSet
54 412 m 0,0,1
 54 510 54 510 93.5 602 c 0
 133 694 133 694 195.5 758.5 c 0
 258 823 258 823 337 861.5 c 0
 416 900 416 900 494 900 c 0,2,3
 538 900 538 900 587.5 884.5 c 0
 637 869 637 869 667 853 c 1,4,-1
 784 892 l 1,5,-1
 813 890 l 1,6,-1
 813 -251 l 1,7,-1
 973 -285 l 1,8,-1
 962 -366 l 1,9,-1
 486 -366 l 1,10,-1
 496 -287 l 1,11,-1
 647 -251 l 1,12,-1
 647 663 l 1,13,14
 616 719 616 719 564.5 760 c 0
 513 801 513 801 445 801 c 0,15,16
 351 801 351 801 289.5 712 c 0
 228 623 228 623 228 474 c 0,17,18
 228 300 228 300 288.5 202 c 0
 349 104 349 104 446 104 c 0,19,20
 476 104 476 104 530.5 116 c 0
 585 128 585 128 618 148 c 1,21,-1
 621 73 l 1,22,23
 577 31 577 31 507 5 c 0
 437 -21 437 -21 381 -21 c 0,24,25
 239 -21 239 -21 146.5 89.5 c 0
 54 200 54 200 54 412 c 0,0,1
EndSplineSet
Fore
SplineSet
481 779 m 128,-1,1
 422 779 422 779 371 735.5 c 128,-1,2
 320 692 320 692 289 624 c 0,3,4
 225 485 225 485 225 359 c 0,5,6
 225 102 225 102 340 102 c 0,7,8
 427 102 427 102 481 147 c 1,9,-1
 489 96 l 1,10,11
 447 41 447 41 392.5 10 c 128,-1,12
 338 -21 338 -21 248.5 -21 c 128,-1,13
 159 -21 159 -21 107.5 58.5 c 128,-1,14
 56 138 56 138 56 262 c 128,-1,15
 56 386 56 386 98.5 501.5 c 128,-1,16
 141 617 141 617 209 700 c 128,-1,17
 277 783 277 783 366 833.5 c 128,-1,18
 455 884 455 884 545 884 c 0,19,20
 589 884 589 884 646 848 c 1,21,-1
 758 879 l 1,22,-1
 775 872 l 1,23,-1
 606 -263 l 1,24,-1
 742 -294 l 1,25,-1
 723 -365 l 1,26,-1
 277 -365 l 1,27,-1
 297 -291 l 1,28,-1
 451 -258 l 1,29,-1
 598 745 l 1,30,0
 540 779 540 779 481 779 c 128,-1,1
EndSplineSet
Colour: ffffff
EndChar

StartChar: uni0072
Encoding: 114 114 70
Width: 655
VWidth: 0
Flags: HMW
LayerCount: 2
Back
SplineSet
40 0 m 1,0,-1
 50 74 l 1,1,-1
 203 114 l 1,2,-1
 203 728 l 1,3,-1
 40 777 l 1,4,-1
 54 853 l 1,5,-1
 341 890 l 1,6,-1
 364 866 l 1,7,-1
 344 636 l 1,8,-1
 363 636 l 1,9,10
 401 765 401 765 466.5 835.5 c 0
 532 906 532 906 598 906 c 0,11,12
 652 906 652 906 685 872.5 c 0
 718 839 718 839 718 793 c 0,13,14
 718 726 718 726 640 673 c 1,15,16
 584 722 584 722 530 722 c 0,17,18
 483 722 483 722 433 664.5 c 0
 383 607 383 607 369 504 c 1,19,-1
 369 121 l 1,20,-1
 602 87 l 1,21,-1
 592 0 l 1,22,-1
 40 0 l 1,0,-1
EndSplineSet
Fore
SplineSet
608 892 m 0,0,1
 641 892 641 892 668.5 867.5 c 128,-1,2
 696 843 696 843 696 806 c 128,-1,3
 696 769 696 769 679 725 c 128,-1,4
 662 681 662 681 641 670 c 1,5,6
 621 680 621 680 614 685 c 0,7,8
 583 707 583 707 546 707 c 128,-1,9
 509 707 509 707 453 645.5 c 128,-1,10
 397 584 397 584 363 508 c 1,11,-1
 301 106 l 1,12,-1
 494 74 l 1,13,-1
 476 2 l 1,14,-1
 3 2 l 1,15,-1
 25 74 l 1,16,-1
 144 107 l 1,17,-1
 243 742 l 1,18,-1
 111 763 l 1,19,-1
 122 846 l 1,20,-1
 400 870 l 1,21,-1
 421 847 l 1,22,-1
 362 597 l 1,23,-1
 373 597 l 1,24,25
 407 708 407 708 475.5 800 c 128,-1,26
 544 892 544 892 608 892 c 0,0,1
EndSplineSet
Colour: ffffff
EndChar

StartChar: uni0073
Encoding: 115 115 71
Width: 746
VWidth: 0
Flags: HMW
LayerCount: 2
Back
SplineSet
50 141 m 0,0,1
 50 193 50 193 85.5 230 c 0
 121 267 121 267 182 271 c 1,2,3
 213 168 213 168 262.5 116 c 0
 312 64 312 64 371 64 c 0,4,5
 429 64 429 64 466 88.5 c 0
 503 113 503 113 503 165 c 0,6,7
 503 197 503 197 479.5 226.5 c 0
 456 256 456 256 418 280 c 0
 380 304 380 304 334 329.5 c 0
 288 355 288 355 242.5 385 c 0
 197 415 197 415 159 449 c 0
 121 483 121 483 97.5 531 c 0
 74 579 74 579 74 635 c 0,8,9
 74 680 74 680 92.5 725.5 c 0
 111 771 111 771 146.5 810.5 c 0
 182 850 182 850 241 875 c 0
 300 900 300 900 372 900 c 0,10,11
 476 900 476 900 546.5 856.5 c 0
 617 813 617 813 617 734 c 0,12,13
 617 672 617 672 579.5 632.5 c 0
 542 593 542 593 477 589 c 1,14,-1
 470 632 l 1,15,16
 435 816 435 816 321 816 c 0,17,18
 270 816 270 816 239.5 781 c 0
 209 746 209 746 209 696 c 0,19,20
 209 658 209 658 233 625 c 0
 257 592 257 592 296 566 c 0
 335 540 335 540 381.5 514.5 c 0
 428 489 428 489 475 460 c 0
 522 431 522 431 561 398.5 c 0
 600 366 600 366 624 320 c 0
 648 274 648 274 648 220 c 0,21,22
 648 149 648 149 603 89.5 c 0
 558 30 558 30 487.5 -2 c 0
 417 -34 417 -34 340 -34 c 0,23,24
 211 -34 211 -34 130.5 18 c 0
 50 70 50 70 50 141 c 0,0,1
EndSplineSet
Fore
SplineSet
684 764.5 m 128,-1,1
 684 697 684 697 650 658.5 c 128,-1,2
 616 620 616 620 555 614 c 1,3,-1
 552 637 l 1,4,5
 537 826 537 826 453 826 c 0,6,7
 401 826 401 826 365.5 793 c 128,-1,8
 330 760 330 760 330 703 c 128,-1,9
 330 646 330 646 361.5 598.5 c 128,-1,10
 393 551 393 551 437.5 512.5 c 128,-1,11
 482 474 482 474 526 436 c 0,12,13
 634 343 634 343 634 244 c 0,14,15
 634 183 634 183 602 128.5 c 128,-1,16
 570 74 570 74 520 40 c 0,17,18
 413 -34 413 -34 310 -34.5 c 128,-1,19
 207 -35 207 -35 146.5 12 c 128,-1,20
 86 59 86 59 86 115 c 128,-1,21
 86 171 86 171 118.5 206.5 c 128,-1,22
 151 242 151 242 208 248 c 1,23,24
 256 54 256 54 350 54 c 0,25,26
 401 54 401 54 445 88.5 c 128,-1,27
 489 123 489 123 489 170.5 c 128,-1,28
 489 218 489 218 457.5 254 c 128,-1,29
 426 290 426 290 382 324 c 0,30,31
 336 360 336 360 292 398 c 0,32,33
 184 491 184 491 184.5 608 c 128,-1,34
 185 725 185 725 279 813.5 c 128,-1,35
 373 902 373 902 504 902 c 0,36,37
 584 902 584 902 634 867 c 128,-1,0
 684 832 684 832 684 764.5 c 128,-1,1
EndSplineSet
Colour: ffffff
EndChar

StartChar: uni0074
Encoding: 116 116 72
Width: 591
VWidth: 0
Flags: HMW
LayerCount: 2
Back
SplineSet
28 783 m 1,0,-1
 28 837 l 1,1,2
 156 936 156 936 275 1087 c 1,3,-1
 328 1087 l 1,4,-1
 328 869 l 1,5,-1
 611 869 l 1,6,-1
 602 781 l 1,7,-1
 326 781 l 1,8,-1
 323 319 l 2,9,10
 323 208 323 208 357 165 c 0
 391 122 391 122 470 122 c 0,11,12
 503 122 503 122 539 136 c 0
 575 150 575 150 594.5 164 c 2
 614 178 l 1,13,-1
 635 124 l 1,14,15
 588 55 588 55 518 16 c 0
 448 -23 448 -23 364 -23 c 0,16,17
 315 -23 315 -23 278.5 -9.5 c 0
 242 4 242 4 211.5 34.5 c 0
 181 65 181 65 165.5 122 c 0
 150 179 150 179 151 260 c 2,18,-1
 155 783 l 1,19,-1
 28 783 l 1,0,-1
EndSplineSet
Fore
SplineSet
269 234 m 0,0,1
 269 122 269 122 339 122 c 0,2,3
 414 122 414 122 484 155 c 1,4,-1
 497 102 l 1,5,6
 453 52 453 52 385 15.5 c 128,-1,7
 317 -21 317 -21 252 -21 c 0,8,9
 73 -21 73 -21 112 259 c 1,10,-1
 195 776 l 1,11,-1
 84 776 l 1,12,-1
 94 824 l 1,13,14
 162 872 162 872 217.5 933.5 c 128,-1,15
 273 995 273 995 337 1080 c 1,16,-1
 401 1080 l 1,17,-1
 367 872 l 1,18,-1
 581 872 l 1,19,-1
 562 776 l 1,20,-1
 347 776 l 1,21,-1
 279 347 l 2,22,23
 269 284 269 284 269 234 c 0,0,1
EndSplineSet
Colour: ffffff
EndChar

StartChar: uni0075
Encoding: 117 117 73
Width: 867
VWidth: 0
Flags: HMW
LayerCount: 2
Back
SplineSet
19 783 m 1,0,-1
 33 862 l 1,1,-1
 301 883 l 1,2,-1
 326 859 l 1,3,-1
 326 317 l 2,4,5
 326 114 326 114 480 114 c 0,6,7
 591 114 591 114 666 191 c 1,8,-1
 666 722 l 1,9,-1
 507 764 l 1,10,-1
 517 856 l 1,11,-1
 811 883 l 1,12,-1
 832 859 l 1,13,-1
 832 215 l 2,14,15
 832 179 832 179 838.5 156 c 0
 845 133 845 133 862 120 c 0
 879 107 879 107 894 101.5 c 0
 909 96 909 96 940 89 c 2,16,-1
 986 79 l 1,17,-1
 977 -4 l 1,18,19
 898 -23 898 -23 826 -23 c 0,20,21
 754 -23 754 -23 716.5 17 c 0
 679 57 679 57 679 122 c 2,22,-1
 679 131 l 1,23,-1
 666 131 l 1,24,25
 560 -23 560 -23 380 -23 c 0,26,27
 157 -23 157 -23 157 267 c 2,28,-1
 157 728 l 1,29,-1
 19 783 l 1,0,-1
EndSplineSet
Fore
SplineSet
682 -17 m 0,0,1
 538 -17 538 -17 555 130 c 1,2,-1
 545 130 l 1,3,4
 518 80 518 80 444.5 30 c 128,-1,5
 371 -20 371 -20 272 -20 c 0,6,7
 173 -20 173 -20 144 64 c 0,8,9
 115 148 115 148 137 264 c 1,10,-1
 210 746 l 1,11,-1
 79 770 l 1,12,-1
 89 844 l 1,13,-1
 372 869 l 1,14,-1
 391 846 l 1,15,-1
 312 375 l 1,16,17
 286 242 286 242 299 179.5 c 128,-1,18
 312 117 312 117 377 117 c 0,19,20
 474 117 474 117 557 200 c 1,21,-1
 639 746 l 1,22,-1
 505 770 l 1,23,-1
 515 844 l 1,24,-1
 801 869 l 1,25,-1
 821 846 l 1,26,-1
 745 370 l 2,27,28
 712 156 712 156 738 118 c 0,29,30
 750 101 750 101 775 96 c 2,31,-1
 841 84 l 1,32,-1
 823 15 l 1,33,34
 737 -17 737 -17 682 -17 c 0,0,1
EndSplineSet
Colour: ffffff
EndChar

StartChar: uni0076
Encoding: 118 118 74
Width: 791
VWidth: 0
Flags: HMW
LayerCount: 2
Back
SplineSet
-6 798 m 1,0,-1
 4 873 l 1,1,-1
 451 873 l 1,2,-1
 443 799 l 1,3,-1
 298 758 l 1,4,-1
 486 194 l 1,5,-1
 678 756 l 1,6,-1
 517 798 l 1,7,-1
 531 873 l 1,8,-1
 914 873 l 1,9,-1
 902 799 l 1,10,-1
 794 758 l 1,11,-1
 521 -10 l 1,12,-1
 394 -28 l 1,13,-1
 116 756 l 1,14,-1
 -6 798 l 1,0,-1
EndSplineSet
Fore
SplineSet
223 -28 m 1,0,-1
 96 771 l 1,1,-1
 0 803 l 1,2,-1
 18 874 l 1,3,-1
 366 874 l 1,4,-1
 348 804 l 1,5,-1
 256 766 l 1,6,-1
 325 215 l 1,7,-1
 565 770 l 1,8,-1
 443 803 l 1,9,-1
 459 874 l 1,10,-1
 791 874 l 1,11,-1
 771 799 l 1,12,-1
 672 765 l 1,13,-1
 327 -10 l 1,14,-1
 223 -28 l 1,0,-1
EndSplineSet
Colour: ffffff
EndChar

StartChar: uni0077
Encoding: 119 119 75
Width: 1235
VWidth: 0
Flags: HMW
LayerCount: 2
Back
SplineSet
-2 799 m 1,0,-1
 8 875 l 1,1,-1
 423 875 l 1,2,-1
 414 801 l 1,3,-1
 279 760 l 1,4,-1
 390 360 l 1,5,-1
 414 240 l 1,6,-1
 565 811 l 1,7,-1
 704 829 l 1,8,-1
 841 345 l 1,9,-1
 862 234 l 1,10,-1
 998 758 l 1,11,-1
 848 799 l 1,12,-1
 858 875 l 1,13,-1
 1241 875 l 1,14,-1
 1229 801 l 1,15,-1
 1121 760 l 1,16,-1
 909 -10 l 1,17,-1
 790 -28 l 1,18,-1
 617 586 l 1,19,-1
 460 -10 l 1,20,-1
 341 -28 l 1,21,-1
 113 758 l 1,22,-1
 -2 799 l 1,0,-1
EndSplineSet
Fore
SplineSet
586 809 m 1,0,-1
 720 827 l 1,1,-1
 779 347 l 1,2,-1
 784 215 l 1,3,-1
 1014 771 l 1,4,-1
 893 803 l 1,5,-1
 910 874 l 1,6,-1
 1235 874 l 1,7,-1
 1215 799 l 1,8,-1
 1120 766 l 1,9,-1
 783 -12 l 1,10,-1
 677 -30 l 1,11,-1
 598 603 l 1,12,-1
 339 -12 l 1,13,-1
 223 -30 l 1,14,-1
 147 771 l 1,15,-1
 50 803 l 1,16,-1
 68 874 l 1,17,-1
 421 874 l 1,18,-1
 403 799 l 1,19,-1
 282 766 l 1,20,-1
 332 362 l 1,21,-1
 340 226 l 1,22,-1
 586 809 l 1,0,-1
EndSplineSet
Colour: ffffff
EndChar

StartChar: uni0078
Encoding: 120 120 76
Width: 987
VWidth: 0
Flags: HMW
LayerCount: 2
Back
SplineSet
21 0 m 1,0,-1
 31 73 l 1,1,-1
 138 114 l 1,2,-1
 383 436 l 1,3,-1
 154 764 l 1,4,-1
 36 806 l 1,5,-1
 46 882 l 1,6,-1
 480 882 l 1,7,-1
 467 807 l 1,8,-1
 352 767 l 1,9,-1
 508 549 l 1,10,-1
 675 764 l 1,11,-1
 538 806 l 1,12,-1
 552 882 l 1,13,-1
 927 882 l 1,14,-1
 914 807 l 1,15,-1
 810 767 l 1,16,-1
 580 467 l 1,17,-1
 823 114 l 1,18,-1
 936 74 l 1,19,-1
 927 0 l 1,20,-1
 482 0 l 1,21,-1
 495 73 l 1,22,-1
 623 114 l 1,23,-1
 458 351 l 1,24,-1
 277 114 l 1,25,-1
 419 74 l 1,26,-1
 409 0 l 1,27,-1
 21 0 l 1,0,-1
EndSplineSet
Fore
SplineSet
779 104 m 1,0,-1
 874 69 l 1,1,-1
 855 0 l 1,2,-1
 461 0 l 1,3,-1
 481 69 l 1,4,-1
 603 104 l 1,5,-1
 489 352 l 1,6,-1
 289 106 l 1,7,-1
 416 71 l 1,8,-1
 396 0 l 1,9,-1
 50 0 l 1,10,-1
 69 69 l 1,11,-1
 165 104 l 1,12,-1
 451 434 l 1,13,-1
 297 771 l 1,14,-1
 201 801 l 1,15,-1
 220 872 l 1,16,-1
 599 872 l 1,17,-1
 580 803 l 1,18,-1
 462 771 l 1,19,-1
 575 535 l 1,20,-1
 761 768 l 1,21,-1
 657 801 l 1,22,-1
 675 872 l 1,23,-1
 988 872 l 1,24,-1
 966 801 l 1,25,-1
 867 765 l 1,26,-1
 608 464 l 1,27,-1
 779 104 l 1,0,-1
EndSplineSet
Colour: ffffff
EndChar

StartChar: uni0079
Encoding: 121 121 77
Width: 873
VWidth: 0
Flags: HMW
LayerCount: 2
Back
SplineSet
8 -261 m 0,0,1
 8 -190 8 -190 64 -141 c 1,2,3
 141 -194 141 -194 215 -194 c 0,4,5
 238 -194 238 -194 256 -189.5 c 0
 274 -185 274 -185 298 -172 c 0
 322 -159 322 -159 344.5 -128 c 0
 367 -97 367 -97 386 -49 c 2,6,-1
 406 0 l 1,7,-1
 121 758 l 1,8,-1
 -3 796 l 1,9,-1
 8 873 l 1,10,-1
 428 873 l 1,11,-1
 419 799 l 1,12,-1
 292 761 l 1,13,-1
 496 222 l 1,14,-1
 712 756 l 1,15,-1
 581 798 l 1,16,-1
 595 873 l 1,17,-1
 937 873 l 1,18,-1
 930 799 l 1,19,-1
 829 758 l 1,20,-1
 498 -53 l 2,21,22
 421 -242 421 -242 349 -311 c 0
 277 -380 277 -380 162 -380 c 0,23,24
 96 -380 96 -380 52 -343 c 0
 8 -306 8 -306 8 -261 c 0,0,1
EndSplineSet
Fore
SplineSet
-30 -380 m 0,0,1
 -96 -380 -96 -380 -129 -349 c 128,-1,2
 -162 -318 -162 -318 -162 -276 c 0,3,4
 -162 -185 -162 -185 -103 -155 c 1,5,6
 -65 -191 -65 -191 -35 -209.5 c 128,-1,7
 -5 -228 -5 -228 45.5 -228 c 128,-1,8
 96 -228 96 -228 138 -179 c 128,-1,9
 180 -130 180 -130 250 9 c 1,10,-1
 112 771 l 1,11,-1
 18 803 l 1,12,-1
 35 874 l 1,13,-1
 419 874 l 1,14,-1
 401 804 l 1,15,-1
 277 765 l 1,16,-1
 361 204 l 1,17,-1
 642 770 l 1,18,-1
 520 803 l 1,19,-1
 540 874 l 1,20,-1
 874 874 l 1,21,-1
 854 799 l 1,22,-1
 758 768 l 1,23,-1
 330 -53 l 2,24,25
 235 -237 235 -237 154.5 -308.5 c 128,-1,26
 74 -380 74 -380 -30 -380 c 0,0,1
EndSplineSet
Colour: ffffff
EndChar

StartChar: uni007A
Encoding: 122 122 78
Width: 786
VWidth: 0
Flags: HMW
LayerCount: 2
Back
SplineSet
53 87 m 1,0,-1
 543 780 l 1,1,-1
 206 780 l 1,2,-1
 147 595 l 1,3,-1
 70 608 l 1,4,-1
 78 873 l 1,5,-1
 750 873 l 1,6,-1
 750 799 l 1,7,-1
 248 99 l 1,8,-1
 608 99 l 1,9,-1
 703 275 l 1,10,-1
 770 267 l 1,11,-1
 728 0 l 1,12,-1
 57 0 l 1,13,-1
 53 87 l 1,0,-1
EndSplineSet
Fore
SplineSet
162 634 m 1,0,-1
 208 874 l 1,1,-1
 786 874 l 1,2,-1
 776 806 l 1,3,-1
 226 88 l 1,4,-1
 528 88 l 1,5,-1
 644 251 l 1,6,-1
 707 243 l 1,7,-1
 628 -2 l 1,8,-1
 50 -2 l 1,9,-1
 58 79 l 1,10,-1
 599 789 l 1,11,-1
 314 789 l 1,12,-1
 226 621 l 1,13,-1
 162 634 l 1,0,-1
EndSplineSet
Colour: ffffff
EndChar

StartChar: uni007B
Encoding: 123 123 79
Width: 667
VWidth: 0
Flags: HMW
LayerCount: 2
Back
SplineSet
4 389 m 1,0,-1
 4 488 l 1,1,-1
 53 497 l 2,2,3
 112 507 112 507 143.5 554.5 c 0
 175 602 175 602 183.5 669.5 c 0
 192 737 192 737 193 816 c 0
 194 895 194 895 200 972.5 c 0
 206 1050 206 1050 224 1113.5 c 0
 242 1177 242 1177 292.5 1216 c 0
 343 1255 343 1255 426 1255 c 2,4,-1
 527 1255 l 1,5,-1
 518 1155 l 1,6,-1
 436 1149 l 2,7,8
 390 1145 390 1145 377 1089.5 c 0
 364 1034 364 1034 364 921 c 2,9,-1
 364 862 l 2,10,11
 364 797 364 797 362 754.5 c 0
 360 712 360 712 350.5 654.5 c 0
 341 597 341 597 324 560 c 0
 307 523 307 523 274 490.5 c 0
 241 458 241 458 194 445 c 1,12,-1
 194 438 l 1,13,14
 254 421 254 421 291.5 372.5 c 0
 329 324 329 324 343 261.5 c 0
 357 199 357 199 361.5 127 c 0
 366 55 366 55 365.5 -14 c 0
 365 -83 365 -83 369.5 -140 c 0
 374 -197 374 -197 393 -233 c 0
 412 -269 412 -269 449 -271 c 2,15,-1
 523 -277 l 1,16,-1
 531 -378 l 1,17,-1
 429 -378 l 2,18,19
 345 -378 345 -378 293.5 -338.5 c 0
 242 -299 242 -299 223.5 -235.5 c 0
 205 -172 205 -172 199 -94 c 0
 193 -16 193 -16 192 63.5 c 0
 191 143 191 143 183.5 210.5 c 0
 176 278 176 278 145 325 c 0
 114 372 114 372 56 381 c 2,20,-1
 4 389 l 1,0,-1
EndSplineSet
Fore
SplineSet
463 -378 m 2,0,1
 332 -378 332 -378 298 -292.5 c 128,-1,2
 264 -207 264 -207 278 -77 c 0,3,4
 285 -16 285 -16 294 45 c 0,5,6
 315 191 315 191 307 267 c 0,7,8
 296 367 296 367 210 381 c 1,9,-1
 162 390 l 1,10,-1
 176 489 l 1,11,-1
 225 497 l 2,12,13
 318 513 318 513 362 613 c 0,14,15
 395 690 395 690 413 792.5 c 128,-1,16
 431 895 431 895 443 956 c 0,17,18
 470 1086 470 1086 530 1170.5 c 128,-1,19
 590 1255 590 1255 720 1255 c 2,20,-1
 779 1255 l 1,21,-1
 754 1156 l 1,22,-1
 714 1149 l 2,23,24
 648 1138 648 1138 621 1012 c 0,25,26
 609 955 609 955 599.5 887 c 128,-1,27
 590 819 590 819 574.5 748.5 c 128,-1,28
 559 678 559 678 536 616.5 c 128,-1,29
 513 555 513 555 467.5 508 c 128,-1,30
 422 461 422 461 359 444 c 1,31,-1
 358 438 l 1,32,33
 471 404 471 404 479 264 c 0,34,35
 485 161 485 161 466.5 42 c 128,-1,36
 448 -77 448 -77 443 -134 c 0,37,38
 432 -262 432 -262 500 -272 c 2,39,-1
 533 -277 l 1,40,-1
 524 -378 l 1,41,-1
 463 -378 l 2,0,1
EndSplineSet
Colour: ffffff
EndChar

StartChar: uni007C
Encoding: 124 124 80
Width: 569
VWidth: 0
Flags: HMW
LayerCount: 2
Back
SplineSet
109 -366 m 1,0,-1
 109 1260 l 1,1,-1
 224 1248 l 1,2,-1
 224 -380 l 1,3,-1
 109 -366 l 1,0,-1
EndSplineSet
Fore
SplineSet
291 -363 m 1,0,-1
 177 -350 l 1,1,-1
 431 1255 l 1,2,-1
 545 1244 l 1,3,-1
 291 -363 l 1,0,-1
EndSplineSet
Colour: ffffff
EndChar

StartChar: uni007D
Encoding: 125 125 81
Width: 667
VWidth: 0
Flags: HMW
LayerCount: 2
Back
SplineSet
22 -378 m 1,0,-1
 31 -277 l 1,1,-1
 105 -271 l 2,2,3
 142 -269 142 -269 161 -233 c 0
 180 -197 180 -197 184.5 -140 c 0
 189 -83 189 -83 188.5 -14 c 0
 188 55 188 55 192.5 127 c 0
 197 199 197 199 211 261.5 c 0
 225 324 225 324 262.5 372.5 c 0
 300 421 300 421 360 438 c 1,4,-1
 360 445 l 1,5,6
 300 459 300 459 262.5 505 c 0
 225 551 225 551 212 613 c 0
 199 675 199 675 195 746.5 c 0
 191 818 191 818 192 887.5 c 0
 193 957 193 957 190 1014.5 c 0
 187 1072 187 1072 169.5 1109 c 0
 152 1146 152 1146 117 1149 c 2,7,-1
 35 1155 l 1,8,-1
 28 1255 l 1,9,-1
 129 1255 l 2,10,11
 194 1255 194 1255 239.5 1230.5 c 0
 285 1206 285 1206 307.5 1165 c 0
 330 1124 330 1124 342 1070 c 0
 354 1016 354 1016 356.5 955.5 c 0
 359 895 359 895 359.5 834 c 0
 360 773 360 773 365 716 c 0
 370 659 370 659 382.5 613 c 0
 395 567 395 567 424.5 536 c 0
 454 505 454 505 500 497 c 2,12,-1
 549 488 l 1,13,-1
 549 389 l 1,14,-1
 497 381 l 2,15,16
 439 372 439 372 408.5 325 c 0
 378 278 378 278 370 210.5 c 0
 362 143 362 143 361.5 63.5 c 0
 361 -16 361 -16 355.5 -94 c 0
 350 -172 350 -172 331.5 -235.5 c 0
 313 -299 313 -299 261.5 -338.5 c 0
 210 -378 210 -378 126 -378 c 2,17,-1
 22 -378 l 1,0,-1
EndSplineSet
Fore
SplineSet
345 1255 m 2,0,1
 428 1255 428 1255 472.5 1216 c 128,-1,2
 517 1177 517 1177 525.5 1113.5 c 128,-1,3
 534 1050 534 1050 527.5 973 c 0,4,5
 522 896 522 896 510 816 c 0,6,7
 498 738 498 738 496 670 c 0,8,9
 490 517 490 517 599 497 c 2,10,-1
 646 489 l 1,11,-1
 629 390 l 1,12,-1
 578 381 l 1,13,14
 466 364 466 364 424 210 c 0,15,16
 406 142 406 142 392 63 c 128,-1,17
 378 -16 378 -16 359.5 -94 c 128,-1,18
 341 -172 341 -172 312.5 -235.5 c 128,-1,19
 284 -299 284 -299 226 -338.5 c 128,-1,20
 168 -378 168 -378 84 -378 c 2,21,-1
 23 -378 l 1,22,-1
 46 -277 l 1,23,-1
 81 -272 l 1,24,25
 153 -261 153 -261 182 -134 c 0,26,27
 195 -77 195 -77 205.5 -8.5 c 128,-1,28
 216 60 216 60 232 131.5 c 128,-1,29
 248 203 248 203 271.5 264.5 c 128,-1,30
 295 326 295 326 340 373.5 c 128,-1,31
 385 421 385 421 448 438 c 1,32,-1
 449 444 l 1,33,34
 391 461 391 461 360.5 508 c 128,-1,35
 330 555 330 555 326 616.5 c 128,-1,36
 322 678 322 678 329.5 748.5 c 0,37,38
 336 819 336 819 348 887 c 0,39,40
 360 956 360 956 366 1012 c 0,41,42
 379 1138 379 1138 317 1149 c 2,43,-1
 279 1156 l 1,44,-1
 286 1255 l 1,45,-1
 345 1255 l 2,0,1
EndSplineSet
Colour: ffffff
EndChar

StartChar: uni007E
Encoding: 126 126 82
Width: 947
VWidth: 0
Flags: HMW
LayerCount: 2
Back
SplineSet
149 413 m 1,0,1
 152 422 152 422 158.5 436 c 0
 165 450 165 450 186.5 486 c 0
 208 522 208 522 232 548.5 c 0
 256 575 256 575 293.5 595 c 0
 331 615 331 615 370 611 c 2,2,-1
 808 566 l 2,3,4
 825 564 825 564 848.5 579.5 c 0
 872 595 872 595 887.5 611.5 c 2
 903 628 l 1,5,-1
 968 626 l 1,6,7
 964 617 964 617 957 602.5 c 0
 950 588 950 588 927 551 c 0
 904 514 904 514 879 487 c 0
 854 460 854 460 815.5 439.5 c 0
 777 419 777 419 738 424 c 2,8,-1
 299 469 l 2,9,10
 280 471 280 471 255 454 c 0
 230 437 230 437 215 418.5 c 2
 200 400 l 1,11,-1
 149 413 l 1,0,1
EndSplineSet
Fore
SplineSet
83 412 m 1,0,1
 88 435 88 435 109 478 c 128,-1,2
 130 521 130 521 150 547.5 c 128,-1,3
 170 574 170 574 203.5 594.5 c 128,-1,4
 237 615 237 615 274 611 c 2,5,-1
 724 566 l 1,6,7
 756 564 756 564 806 628 c 1,8,-1
 870 626 l 1,9,10
 823 486 823 486 745 440 c 0,11,12
 710 420 710 420 672 424 c 2,13,-1
 222 469 l 2,14,15
 204 471 204 471 183 453.5 c 128,-1,16
 162 436 162 436 150 418 c 2,17,-1
 138 399 l 1,18,-1
 83 412 l 1,0,1
EndSplineSet
Colour: ffffff
EndChar

StartChar: uni00A1
Encoding: 161 161 83
Width: 412
VWidth: 0
Flags: HMW
LayerCount: 2
Back
SplineSet
97 -378 m 0,0,1
 97 -110 97 -110 151 534 c 1,2,-1
 151 540 l 1,3,-1
 240 520 l 1,4,-1
 240 517 l 1,5,6
 294 -208 294 -208 294 -375 c 2,7,-1
 294 -378 l 1,8,9
 289 -397 289 -397 243.5 -407.5 c 0
 198 -418 198 -418 162 -418 c 0,10,11
 137 -418 137 -418 117 -408.5 c 0
 97 -399 97 -399 97 -378 c 0,0,1
70 784 m 0,12,13
 70 836 70 836 107 873 c 0
 144 910 144 910 196 910 c 0,14,15
 248 910 248 910 284 873 c 0
 320 836 320 836 320 783 c 0,16,17
 320 734 320 734 283 700 c 0
 246 666 246 666 196 666 c 0,18,19
 145 666 145 666 107.5 700 c 0
 70 734 70 734 70 784 c 0,12,13
EndSplineSet
Fore
SplineSet
-4 -383 m 0,0,1
 -4 -343 -4 -343 70.5 7.5 c 128,-1,2
 145 358 145 358 193 519 c 1,3,-1
 277 500 l 1,4,5
 266 393 266 393 237 61 c 128,-1,6
 208 -271 208 -271 193 -369 c 0,7,8
 186 -416 186 -416 91 -416 c 128,-1,9
 -4 -416 -4 -416 -4 -383 c 0,0,1
265.5 666 m 128,-1,11
 215 666 215 666 183.5 699.5 c 128,-1,12
 152 733 152 733 152 785 c 128,-1,13
 152 837 152 837 196.5 874.5 c 128,-1,14
 241 912 241 912 292.5 912 c 128,-1,15
 344 912 344 912 373.5 877 c 128,-1,16
 403 842 403 842 403 789.5 c 128,-1,17
 403 737 403 737 359.5 701.5 c 128,-1,10
 316 666 316 666 265.5 666 c 128,-1,11
EndSplineSet
Colour: ffffff
EndChar

StartChar: uni00A3
Encoding: 163 163 84
Width: 1113
VWidth: 0
Flags: HMW
LayerCount: 2
Back
SplineSet
43 0 m 1,0,-1
 50 74 l 1,1,-1
 218 121 l 1,2,3
 240 191 240 191 247 264 c 0
 254 337 254 337 257 461 c 1,4,-1
 260 549 l 1,5,-1
 80 538 l 1,6,-1
 92 639 l 1,7,-1
 263 649 l 1,8,-1
 266 786 l 1,9,10
 273 1018 273 1018 383.5 1134 c 0
 494 1250 494 1250 673 1250 c 0,11,12
 813 1250 813 1250 906 1211 c 1,13,-1
 875 895 l 1,14,-1
 789 907 l 1,15,-1
 748 1121 l 1,16,17
 706 1143 706 1143 663 1143 c 0,18,19
 612 1143 612 1143 578 1128.5 c 0
 544 1114 544 1114 520.5 1085 c 0
 497 1056 497 1056 484.5 1001 c 0
 472 946 472 946 466 877.5 c 0
 460 809 460 809 458 703 c 1,20,-1
 458 655 l 1,21,-1
 676 669 l 1,22,-1
 666 568 l 1,23,-1
 455 555 l 1,24,-1
 454 515 l 1,25,26
 448 213 448 213 393 99 c 1,27,-1
 853 96 l 1,28,-1
 984 349 l 1,29,-1
 1070 331 l 1,30,-1
 1032 0 l 1,31,-1
 43 0 l 1,0,-1
EndSplineSet
Fore
SplineSet
897 1250 m 0,0,1
 1010 1250 1010 1250 1098 1211 c 1,2,-1
 1017 895 l 1,3,-1
 933 907 l 1,4,-1
 926 1121 l 1,5,6
 887 1143 887 1143 840 1143 c 128,-1,7
 793 1143 793 1143 757 1128 c 0,8,9
 682 1098 682 1098 643.5 1001 c 128,-1,10
 605 904 605 904 569 703 c 1,11,-1
 562 655 l 1,12,-1
 782 669 l 1,13,-1
 756 568 l 1,14,-1
 543 555 l 1,15,-1
 536 515 l 1,16,17
 482 213 482 213 409 99 c 1,18,-1
 868 96 l 1,19,-1
 1039 349 l 1,20,-1
 1122 331 l 1,21,-1
 1032 0 l 1,22,-1
 43 0 l 1,23,-1
 62 74 l 1,24,-1
 237 121 l 1,25,26
 289 232 289 232 330 461 c 1,27,-1
 347 549 l 1,28,-1
 165 538 l 1,29,-1
 193 639 l 1,30,-1
 366 649 l 1,31,-1
 390 786 l 1,32,33
 478 1250 478 1250 897 1250 c 0,0,1
EndSplineSet
Colour: ffffff
EndChar

StartChar: uni00A5
Encoding: 165 165 85
Width: 1210
VWidth: 0
Flags: HMW
LayerCount: 2
Back
SplineSet
42 1168 m 5,0,-1
 55 1244 l 1,1,-1
 515 1244 l 1,2,-1
 504 1168 l 1,3,-1
 371 1130 l 1,4,-1
 589 636 l 1,5,-1
 806 1126 l 1,6,-1
 649 1168 l 1,7,-1
 658 1244 l 1,8,-1
 1054 1244 l 1,9,-1
 1045 1168 l 1,10,-1
 921 1130 l 1,11,-1
 667 578 l 1,12,-1
 968 578 l 1,13,-1
 957 480 l 1,14,-1
 640 480 l 1,15,-1
 640 338 l 1,16,-1
 964 338 l 1,17,-1
 953 240 l 1,18,-1
 640 240 l 1,19,-1
 640 113 l 1,20,-1
 804 78 l 1,21,-1
 794 0 l 1,22,-1
 294 0 l 1,23,-1
 304 71 l 1,24,-1
 453 119 l 1,25,-1
 453 240 l 1,26,-1
 143 240 l 1,27,-1
 155 338 l 1,28,-1
 453 338 l 1,29,-1
 453 480 l 1,30,-1
 147 480 l 1,31,-1
 159 578 l 1,32,-1
 426 578 l 1,33,-1
 178 1126 l 1,34,-1
 42 1168 l 5,0,-1
EndSplineSet
Fore
SplineSet
596 472 m 1,0,-1
 289 472 l 1,1,-1
 317 578 l 1,2,-1
 581 578 l 1,3,-1
 428 1126 l 1,4,-1
 297 1168 l 1,5,-1
 322 1244 l 1,6,-1
 789 1244 l 1,7,-1
 766 1168 l 1,8,-1
 628 1130 l 1,9,-1
 760 641 l 1,10,-1
 1055 1126 l 1,11,-1
 905 1168 l 1,12,-1
 926 1244 l 1,13,-1
 1323 1244 l 1,14,-1
 1301 1168 l 1,15,-1
 1171 1130 l 1,16,-1
 829 578 l 1,17,-1
 1133 578 l 1,18,-1
 1105 472 l 1,19,-1
 789 472 l 1,20,-1
 770 345 l 1,21,-1
 1093 345 l 1,22,-1
 1065 239 l 1,23,-1
 753 239 l 1,24,-1
 733 114 l 1,25,-1
 892 81 l 1,26,-1
 869 0 l 1,27,-1
 362 0 l 1,28,-1
 383 74 l 1,29,-1
 542 121 l 1,30,-1
 560 239 l 1,31,-1
 249 239 l 1,32,-1
 277 345 l 1,33,-1
 576 345 l 1,34,-1
 596 472 l 1,0,-1
EndSplineSet
Colour: ffffff
EndChar

StartChar: uni00A6
Encoding: 166 166 86
Width: 569
VWidth: 0
Flags: HMW
LayerCount: 2
Back
SplineSet
109 -366 m 1,0,-1
 109 423 l 1,1,-1
 228 411 l 1,2,-1
 228 -380 l 1,3,-1
 109 -366 l 1,0,-1
109 540 m 1,4,-1
 109 1260 l 1,5,-1
 227 1248 l 1,6,-1
 225 529 l 1,7,-1
 109 540 l 1,4,-1
EndSplineSet
Fore
SplineSet
319 540 m 1,0,-1
 431 1255 l 1,1,-1
 540 1244 l 1,2,-1
 423 528 l 1,3,-1
 319 540 l 1,0,-1
177 -350 m 1,4,-1
 301 431 l 1,5,-1
 410 419 l 1,6,-1
 286 -363 l 1,7,-1
 177 -350 l 1,4,-1
EndSplineSet
Colour: ffffff
EndChar

StartChar: uni00A8
Encoding: 168 168 87
Width: 687
VWidth: 0
Flags: HMW
LayerCount: 2
Back
SplineSet
92 1465 m 0,0,1
 92 1498 92 1498 118.5 1520 c 0
 145 1542 145 1542 177 1542 c 0,2,3
 211 1542 211 1542 237 1520 c 0
 263 1498 263 1498 263 1465 c 0,4,5
 263 1429 263 1429 237 1406 c 0
 211 1383 211 1383 177 1383 c 0,6,7
 143 1383 143 1383 117.5 1406.5 c 0
 92 1430 92 1430 92 1465 c 0,0,1
360 1465 m 0,8,9
 360 1498 360 1498 386.5 1520 c 0
 413 1542 413 1542 445 1542 c 0,10,11
 479 1542 479 1542 505.5 1520 c 0
 532 1498 532 1498 532 1465 c 0,12,13
 532 1430 532 1430 505.5 1406.5 c 0
 479 1383 479 1383 445 1383 c 0,14,15
 411 1383 411 1383 385.5 1406.5 c 0
 360 1430 360 1430 360 1465 c 0,8,9
EndSplineSet
Fore
SplineSet
454 1542 m 128,-1,1
 488 1542 488 1542 509 1520.5 c 128,-1,2
 530 1499 530 1499 524.5 1464 c 128,-1,3
 519 1429 519 1429 491 1406.5 c 128,-1,4
 463 1384 463 1384 428.5 1384 c 128,-1,5
 394 1384 394 1384 371.5 1406.5 c 128,-1,6
 349 1429 349 1429 355 1464 c 128,-1,7
 361 1499 361 1499 390.5 1520.5 c 128,-1,0
 420 1542 420 1542 454 1542 c 128,-1,1
721 1542 m 128,-1,9
 755 1542 755 1542 777 1520.5 c 128,-1,10
 799 1499 799 1499 793.5 1464 c 128,-1,11
 788 1429 788 1429 759 1406.5 c 128,-1,12
 730 1384 730 1384 695.5 1384 c 128,-1,13
 661 1384 661 1384 639 1406.5 c 128,-1,14
 617 1429 617 1429 623 1464 c 128,-1,15
 629 1499 629 1499 658 1520.5 c 128,-1,8
 687 1542 687 1542 721 1542 c 128,-1,9
EndSplineSet
Colour: ffffff
EndChar

StartChar: uni00A9
Encoding: 169 169 88
Width: 1377
VWidth: 0
Flags: HMW
LayerCount: 2
Back
SplineSet
53 645 m 0,0,1
 53 831 53 831 140 987 c 0
 227 1143 227 1143 372 1231.5 c 0
 517 1320 517 1320 684 1320 c 0,2,3
 877 1320 877 1320 1024.5 1232.5 c 0
 1172 1145 1172 1145 1249.5 993 c 0
 1327 841 1327 841 1327 649 c 0,4,5
 1327 517 1327 517 1276 395 c 0
 1225 273 1225 273 1138.5 183 c 0
 1052 93 1052 93 930.5 39 c 0
 809 -15 809 -15 675 -15 c 0,6,7
 495 -15 495 -15 352.5 71.5 c 0
 210 158 210 158 131.5 308.5 c 0
 53 459 53 459 53 645 c 0,0,1
176 657 m 0,8,9
 176 411 176 411 318.5 251.5 c 0
 461 92 461 92 683 92 c 0,10,11
 790 92 790 92 886 133.5 c 0
 982 175 982 175 1052 247 c 0
 1122 319 1122 319 1163.5 421.5 c 0
 1205 524 1205 524 1205 639 c 0,12,13
 1205 803 1205 803 1145.5 932.5 c 0
 1086 1062 1086 1062 966.5 1139.5 c 0
 847 1217 847 1217 684 1217 c 0,14,15
 543 1217 543 1217 425.5 1140.5 c 0
 308 1064 308 1064 242 935.5 c 0
 176 807 176 807 176 657 c 0,8,9
344.5 643.75 m 0,16,17
 344.5 735.515 344.5 735.515 374.983 814.182 c 0
 405.466 892.85 405.466 892.85 455.98 945.028 c 0
 506.494 997.205 506.494 997.205 571.466 1026.6 c 0
 636.438 1056 636.438 1056 705.75 1056 c 0,18,19
 806.116 1056 806.116 1056 858.358 1018.35 c 0
 910.6 980.706 910.6 980.706 910.6 925.95 c 0,20,21
 910.6 887.766 910.6 887.766 882.713 864.119 c 0
 854.825 840.472 854.825 840.472 802.65 836.7 c 1,22,23
 791.283 863.898 791.283 863.898 780.958 883.481 c 0
 770.633 903.063 770.633 903.063 753.699 926.783 c 0
 736.766 950.502 736.766 950.502 714.366 963.301 c 0
 691.966 976.1 691.966 976.1 665.8 976.1 c 0,24,25
 589.899 976.1 589.899 976.1 544.124 906.689 c 0
 498.35 837.279 498.35 837.279 498.35 721.95 c 0,26,27
 498.35 677.715 498.35 677.715 507.368 630.514 c 0
 516.386 583.312 516.386 583.312 536.558 535.926 c 0
 556.729 488.539 556.729 488.539 585.296 451.32 c 0
 613.863 414.101 613.863 414.101 656.918 390.8 c 0
 699.973 367.5 699.973 367.5 750.8 367.5 c 0,28,29
 807.339 367.5 807.339 367.5 845.778 381.207 c 0
 884.216 394.914 884.216 394.914 922.5 419.35 c 1,30,-1
 943.75 370.05 l 1,31,32
 908.403 327.367 908.403 327.367 833.959 296.433 c 0
 759.515 265.5 759.515 265.5 680.25 265.5 c 0,33,34
 581.137 265.5 581.137 265.5 503.534 317.661 c 0
 425.932 369.823 425.932 369.823 385.216 455.589 c 0
 344.5 541.355 344.5 541.355 344.5 643.75 c 0,16,17
EndSplineSet
Fore
SplineSet
176 657 m 0,0,1
 176 411 176 411 318.5 251.5 c 128,-1,2
 461 92 461 92 683 92 c 0,3,4
 790 92 790 92 886 133.5 c 128,-1,5
 982 175 982 175 1052 247 c 128,-1,6
 1122 319 1122 319 1163.5 421.5 c 128,-1,7
 1205 524 1205 524 1205 663.5 c 128,-1,8
 1205 803 1205 803 1145.5 932.5 c 128,-1,9
 1086 1062 1086 1062 966.5 1139.5 c 128,-1,10
 847 1217 847 1217 695 1217 c 128,-1,11
 543 1217 543 1217 425.5 1140.5 c 128,-1,12
 308 1064 308 1064 242 935.5 c 128,-1,13
 176 807 176 807 176 657 c 0,0,1
53 645 m 128,-1,15
 53 831 53 831 140 987 c 128,-1,16
 227 1143 227 1143 372 1231.5 c 128,-1,17
 517 1320 517 1320 697 1320 c 128,-1,18
 877 1320 877 1320 1024.5 1232.5 c 128,-1,19
 1172 1145 1172 1145 1249.5 993 c 128,-1,20
 1327 841 1327 841 1327 679 c 128,-1,21
 1327 517 1327 517 1276 395 c 128,-1,22
 1225 273 1225 273 1138.5 183 c 128,-1,23
 1052 93 1052 93 930.5 39 c 128,-1,24
 809 -15 809 -15 652 -15 c 128,-1,25
 495 -15 495 -15 352.5 71.5 c 128,-1,26
 210 158 210 158 131.5 308.5 c 128,-1,14
 53 459 53 459 53 645 c 128,-1,15
670.5 266 m 128,-1,28
 581 266 581 266 503.5 318 c 128,-1,29
 426 370 426 370 385 455.5 c 128,-1,30
 344 541 344 541 344 638 c 0,31,32
 344 829 344 829 453.5 942.5 c 128,-1,33
 563 1056 563 1056 706 1056 c 0,34,35
 806 1056 806 1056 858.5 1018.5 c 128,-1,36
 911 981 911 981 911 934 c 0,37,38
 911 844 911 844 803 837 c 1,39,40
 761 937 761 937 714 963 c 0,41,42
 692 976 692 976 666 976 c 0,43,44
 590 976 590 976 544 906.5 c 128,-1,45
 498 837 498 837 498 701 c 128,-1,46
 498 565 498 565 585 451 c 0,47,48
 649 368 649 368 771 368 c 0,49,50
 842 368 842 368 922 419 c 1,51,-1
 944 370 l 1,52,53
 909 327 909 327 834.5 296.5 c 128,-1,27
 760 266 760 266 670.5 266 c 128,-1,28
EndSplineSet
Colour: ffffff
EndChar

StartChar: uni00AB
Encoding: 171 171 89
Width: 721
VWidth: 0
Flags: HMW
LayerCount: 2
Back
SplineSet
23 469 m 1,0,-1
 292 820 l 1,1,-1
 335 761 l 1,2,-1
 171 461 l 1,3,-1
 338 141 l 1,4,-1
 286 77 l 1,5,-1
 24 449 l 1,6,-1
 23 469 l 1,0,-1
270 469 m 1,7,-1
 538 820 l 1,8,-1
 583 761 l 1,9,-1
 418 461 l 1,10,-1
 586 141 l 1,11,-1
 534 77 l 1,12,-1
 271 449 l 1,13,-1
 270 469 l 1,7,-1
EndSplineSet
Fore
SplineSet
154 469 m 1,0,-1
 477 821 l 1,1,-1
 512 761 l 1,2,-1
 299 461 l 1,3,-1
 416 140 l 1,4,-1
 353 78 l 1,5,-1
 152 449 l 1,6,-1
 154 469 l 1,0,-1
401 469 m 1,7,-1
 725 821 l 1,8,-1
 760 761 l 1,9,-1
 547 461 l 1,10,-1
 664 140 l 1,11,-1
 601 78 l 1,12,-1
 400 449 l 1,13,-1
 401 469 l 1,7,-1
EndSplineSet
Colour: ffffff
EndChar

StartChar: uni00AC
Encoding: 172 172 90
Width: 956
VWidth: 0
Flags: HMW
LayerCount: 2
Back
SplineSet
74 559 m 1,0,-1
 86 663 l 1,1,-1
 830 663 l 1,2,-1
 832 351 l 1,3,-1
 726 332 l 1,4,-1
 726 559 l 1,5,-1
 74 559 l 1,0,-1
EndSplineSet
Fore
SplineSet
200 664 m 1,0,-1
 945 664 l 1,1,-1
 897 350 l 1,2,-1
 788 332 l 1,3,-1
 824 558 l 1,4,-1
 172 558 l 1,5,-1
 200 664 l 1,0,-1
EndSplineSet
Colour: ffffff
EndChar

StartChar: uni00AD
Encoding: 173 173 91
Width: 569
VWidth: 0
Flags: HMW
LayerCount: 2
Back
SplineSet
85 406 m 1,0,-1
 92 521 l 1,1,-1
 500 581 l 1,2,-1
 492 465 l 1,3,-1
 85 406 l 1,0,-1
EndSplineSet
Fore
SplineSet
170 522 m 1,0,-1
 588 581 l 1,1,-1
 562 466 l 1,2,-1
 144 406 l 1,3,-1
 170 522 l 1,0,-1
EndSplineSet
Colour: ffffff
EndChar

StartChar: uni00B5
Encoding: 181 181 92
Width: 701
VWidth: 0
Flags: HMW
LayerCount: 2
Fore
SplineSet
372 1480 m 1,0,-1
 813 1480 l 1,1,-1
 783 1379 l 1,2,-1
 342 1379 l 1,3,-1
 372 1480 l 1,0,-1
EndSplineSet
Colour: ffffff
EndChar

StartChar: uni00B7
Encoding: 183 183 93
Width: 406
VWidth: 0
Flags: HMW
LayerCount: 2
Back
SplineSet
83 504 m 0,0,1
 83 551 83 551 118.5 584.5 c 0
 154 618 154 618 203 618 c 0,2,3
 253 618 253 618 289 585 c 0
 325 552 325 552 325 504 c 0,4,5
 325 454 325 454 289 417.5 c 0
 253 381 253 381 203 381 c 0,6,7
 154 381 154 381 118.5 417.5 c 0
 83 454 83 454 83 504 c 0,0,1
EndSplineSet
Fore
SplineSet
83 502.5 m 128,-1,1
 83 551 83 551 118.5 584.5 c 128,-1,2
 154 618 154 618 203.5 618 c 128,-1,3
 253 618 253 618 289 585 c 128,-1,4
 325 552 325 552 325 503 c 128,-1,5
 325 454 325 454 289 417.5 c 128,-1,6
 253 381 253 381 203.5 381 c 128,-1,7
 154 381 154 381 118.5 417.5 c 128,-1,0
 83 454 83 454 83 502.5 c 128,-1,1
EndSplineSet
Colour: ffffff
EndChar

StartChar: uni00AF
Encoding: 175 175 94
Width: 637
VWidth: 0
Flags: HMW
LayerCount: 2
Back
SplineSet
372 1480 m 1,0,-1
 813 1480 l 1,1,-1
 783 1379 l 1,2,-1
 342 1379 l 1,3,-1
 372 1480 l 1,0,-1
545 1239 m 0
EndSplineSet
Fore
SplineSet
92 1379 m 1,0,-1
 105 1479 l 1,1,-1
 547 1479 l 1,2,-1
 534 1379 l 1,3,-1
 92 1379 l 1,0,-1
EndSplineSet
Colour: ffffff
EndChar

StartChar: uni00B0
Encoding: 176 176 95
Width: 424
VWidth: 0
Flags: HMW
LayerCount: 2
Back
SplineSet
390 1237 m 0,0,1
 348 1237 348 1237 320.5 1204 c 0
 293 1171 293 1171 286 1125 c 0,2,3
 278 1075 278 1075 297.5 1035.5 c 0
 317 996 317 996 362 996 c 0,4,5
 402 996 402 996 428.5 1025.5 c 0
 455 1055 455 1055 464 1110 c 0,6,7
 472 1161 472 1161 453.5 1199 c 0
 435 1237 435 1237 390 1237 c 0,0,1
408 1285 m 0,8,9
 479 1285 479 1285 514 1240 c 0
 549 1195 549 1195 538 1123 c 1,10,11
 526 1052 526 1052 471 1000 c 0
 416 948 416 948 342 948 c 0,12,13
 272 948 272 948 236 992.5 c 0
 200 1037 200 1037 213 1113 c 0,14,15
 224 1183 224 1183 281 1234 c 0
 338 1285 338 1285 408 1285 c 0,8,9
EndSplineSet
Fore
SplineSet
123 1126 m 128,-1,1
 123 1078 123 1078 148.5 1036.5 c 128,-1,2
 174 995 174 995 219 995 c 0,3,4
 304 995 304 995 304 1105 c 0,5,6
 304 1156 304 1156 278.5 1196.5 c 128,-1,7
 253 1237 253 1237 210 1237 c 128,-1,8
 167 1237 167 1237 145 1205.5 c 128,-1,0
 123 1174 123 1174 123 1126 c 128,-1,1
32 1103.5 m 128,-1,10
 32 1186 32 1186 88.5 1245 c 128,-1,11
 145 1304 145 1304 227.5 1304 c 128,-1,12
 310 1304 310 1304 353 1258 c 128,-1,13
 396 1212 396 1212 396 1127.5 c 128,-1,14
 396 1043 396 1043 339 985.5 c 128,-1,15
 282 928 282 928 202.5 928 c 128,-1,16
 123 928 123 928 77.5 974.5 c 128,-1,9
 32 1021 32 1021 32 1103.5 c 128,-1,10
EndSplineSet
Colour: ffffff
EndChar

StartChar: uni00B1
Encoding: 177 177 96
Width: 792
VWidth: 0
Flags: HMW
LayerCount: 2
Back
SplineSet
58 13 m 1,0,-1
 74 117 l 1,1,-1
 686 123 l 1,2,-1
 670 19 l 1,3,-1
 58 13 l 1,0,-1
83 475 m 1,4,-1
 95 575 l 1,5,-1
 304 575 l 1,6,-1
 304 807 l 1,7,-1
 412 795 l 1,8,-1
 414 575 l 1,9,-1
 633 575 l 1,10,-1
 621 475 l 1,11,-1
 414 475 l 1,12,-1
 415 240 l 1,13,-1
 304 251 l 1,14,-1
 304 475 l 1,15,-1
 83 475 l 1,4,-1
EndSplineSet
Fore
SplineSet
81 117 m 1,0,-1
 693 124 l 1,1,-1
 677 20 l 1,2,-1
 65 13 l 1,3,-1
 81 117 l 1,0,-1
293 591 m 1,4,-1
 293 822 l 1,5,-1
 402 810 l 1,6,-1
 403 591 l 1,7,-1
 623 591 l 1,8,-1
 611 490 l 1,9,-1
 403 490 l 1,10,-1
 405 255 l 1,11,-1
 293 266 l 1,12,-1
 293 490 l 1,13,-1
 72 490 l 1,14,-1
 84 591 l 1,15,-1
 293 591 l 1,4,-1
EndSplineSet
Colour: ffffff
EndChar

StartChar: uni00B4
Encoding: 180 180 97
Width: 520
VWidth: 0
Flags: HMW
LayerCount: 2
Back
SplineSet
727 1666 m 1,0,-1
 494 1349 l 1,1,-1
 448 1381 l 1,2,-1
 623 1706 l 1,3,-1
 727 1666 l 1,0,-1
505 1239 m 0
EndSplineSet
Fore
SplineSet
172 1380 m 1,0,-1
 295 1705 l 1,1,-1
 406 1666 l 1,2,-1
 223 1348 l 1,3,-1
 172 1380 l 1,0,-1
EndSplineSet
Colour: ffffff
EndChar

StartChar: uni00B8
Encoding: 184 184 98
Width: 341
VWidth: 0
Flags: HMW
LayerCount: 2
Back
SplineSet
201 -76 m 1,0,1
 277 -152 277 -152 266 -226 c 1,2,3
 249 -330 249 -330 41 -390 c 1,4,-1
 30 -330 l 1,5,6
 120 -300 120 -300 129 -248 c 1,7,8
 135 -206 135 -206 74 -137 c 1,9,-1
 193 3 l 1,10,-1
 268 3 l 1,11,-1
 201 -76 l 1,0,1
226 0 m 0
EndSplineSet
Fore
SplineSet
148 -240 m 0,0,1
 148 -208 148 -208 74 -138 c 1,2,-1
 172 3 l 1,3,-1
 246 3 l 1,4,-1
 193 -76 l 1,5,6
 282 -155 282 -155 282 -227 c 0,7,8
 282 -330 282 -330 81 -389 c 1,9,-1
 62 -331 l 1,10,11
 148 -302 148 -302 148 -240 c 0,0,1
EndSplineSet
Colour: ffffff
EndChar

StartChar: uni00BB
Encoding: 187 187 99
Width: 721
VWidth: 0
Flags: HMW
LayerCount: 2
Back
SplineSet
61 141 m 1,0,-1
 228 461 l 1,1,-1
 64 761 l 1,2,-1
 108 820 l 1,3,-1
 376 469 l 1,4,-1
 374 449 l 1,5,-1
 113 77 l 1,6,-1
 61 141 l 1,0,-1
308 141 m 1,7,-1
 476 461 l 1,8,-1
 311 761 l 1,9,-1
 355 820 l 1,10,-1
 623 469 l 1,11,-1
 621 449 l 1,12,-1
 360 77 l 1,13,-1
 308 141 l 1,7,-1
EndSplineSet
Fore
SplineSet
658 430 m 1,0,-1
 335 78 l 1,1,-1
 300 138 l 1,2,-1
 513 438 l 1,3,-1
 396 759 l 1,4,-1
 459 821 l 1,5,-1
 660 450 l 1,6,-1
 658 430 l 1,0,-1
411 430 m 1,7,-1
 87 78 l 1,8,-1
 52 138 l 1,9,-1
 265 438 l 1,10,-1
 148 759 l 1,11,-1
 211 821 l 1,12,-1
 412 450 l 1,13,-1
 411 430 l 1,7,-1
EndSplineSet
Colour: ffffff
EndChar

StartChar: uni00BF
Encoding: 191 191 100
Width: 601
VWidth: 0
Flags: HMW
LayerCount: 2
Back
SplineSet
53 40 m 0,0,1
 53 96 53 96 74.5 138 c 0
 96 180 96 180 128 203.5 c 0
 160 227 160 227 197 249 c 0
 234 271 234 271 266 287 c 0
 298 303 298 303 319.5 330 c 0
 341 357 341 357 341 391 c 0,2,3
 341 445 341 445 319 517 c 1,4,-1
 393 534 l 1,5,6
 420 495 420 495 445 431.5 c 0
 470 368 470 368 470 314 c 0,7,8
 470 269 470 269 453 235 c 0
 436 201 436 201 409 181 c 0
 382 161 382 161 349.5 145.5 c 0
 317 130 317 130 284.5 114.5 c 0
 252 99 252 99 225 81 c 0
 198 63 198 63 181 32 c 0
 164 1 164 1 164 -40 c 0,9,10
 164 -104 164 -104 221.5 -158.5 c 0
 279 -213 279 -213 328 -213 c 0,11,12
 453 -213 453 -213 519 -142 c 1,13,14
 547 -153 547 -153 570 -184 c 0
 593 -215 593 -215 593 -253 c 0,15,16
 593 -304 593 -304 547 -346 c 0
 501 -388 501 -388 396 -388 c 0,17,18
 338 -388 338 -388 277 -356 c 0
 216 -324 216 -324 166 -269.5 c 0
 116 -215 116 -215 84.5 -133.5 c 0
 53 -52 53 -52 53 40 c 0,0,1
233 810 m 0,19,20
 233 862 233 862 269.5 899 c 0
 306 936 306 936 359 936 c 0,21,22
 411 936 411 936 446.5 898 c 0
 482 860 482 860 482 807 c 0,23,24
 482 757 482 757 445.5 723.5 c 0
 409 690 409 690 359 690 c 0,25,26
 308 690 308 690 270.5 725 c 0
 233 760 233 760 233 810 c 0,19,20
EndSplineSet
Fore
SplineSet
342.5 937 m 128,-1,1
 393 937 393 937 423 906.5 c 128,-1,2
 453 876 453 876 453 823.5 c 128,-1,3
 453 771 453 771 409.5 731 c 128,-1,4
 366 691 366 691 314.5 691 c 128,-1,5
 263 691 263 691 232 719.5 c 128,-1,6
 201 748 201 748 201 800 c 128,-1,7
 201 852 201 852 246.5 894.5 c 128,-1,0
 292 937 292 937 342.5 937 c 128,-1,1
134 -212 m 0,8,9
 260 -212 260 -212 337 -141 c 1,10,11
 360 -151 360 -151 378 -177 c 128,-1,12
 396 -203 396 -203 396 -233 c 0,13,14
 396 -292 396 -292 344 -339.5 c 128,-1,15
 292 -387 292 -387 180.5 -387 c 128,-1,16
 69 -387 69 -387 -18.5 -289.5 c 128,-1,17
 -106 -192 -106 -192 -106 -36 c 0,18,19
 -106 160 -106 160 42 225 c 0,20,21
 71 238 71 238 100 250 c 0,22,23
 168 278 168 278 208 317.5 c 128,-1,24
 248 357 248 357 248 447 c 0,25,26
 248 477 248 477 242 518 c 1,27,-1
 319 534 l 1,28,29
 365 442 365 442 365 372.5 c 128,-1,30
 365 303 365 303 349.5 265 c 128,-1,31
 334 227 334 227 308 205 c 128,-1,32
 282 183 282 183 249 164 c 128,-1,33
 216 145 216 145 181 134 c 0,34,35
 110 110 110 110 54 68.5 c 128,-1,36
 -2 27 -2 27 -2 -45.5 c 128,-1,37
 -2 -118 -2 -118 44 -165 c 128,-1,38
 90 -212 90 -212 134 -212 c 0,8,9
EndSplineSet
Colour: ffffff
EndChar

StartChar: uni00DF
Encoding: 223 223 101
Width: 1036
VWidth: 0
Flags: HMW
LayerCount: 2
Back
SplineSet
1038 1172 m 13,0,-1
 852 104 l 1,1,-1
 979 73 l 1,2,-1
 961 0 l 1,3,-1
 553 0 l 1,4,-1
 571 74 l 1,5,-1
 694 107 l 1,6,-1
 864 1132 l 1,7,8
 844 1149 844 1149 782.5 1163.5 c 0
 721 1178 721 1178 673 1178 c 0,9,10
 475 1178 475 1178 436 956 c 2,11,-1
 419 858 l 1,12,-1
 710 858 l 1,13,-1
 686 768 l 1,14,-1
 406 768 l 1,15,-1
 302 109 l 1,16,-1
 510 79 l 1,17,-1
 492 2 l 1,18,-1
 3 2 l 1,19,-1
 20 76 l 1,20,-1
 144 109 l 1,21,-1
 245 768 l 1,22,-1
 126 768 l 1,23,-1
 143 836 l 1,24,-1
 266 872 l 1,25,26
 283 960 283 960 333.5 1042.5 c 0
 384 1125 384 1125 448.5 1181.5 c 0
 513 1238 513 1238 584 1272 c 0
 655 1306 655 1306 714 1306 c 0,27,28
 848 1306 848 1306 937 1259.5 c 0
 1026 1213 1026 1213 1038 1172 c 13,0,-1
EndSplineSet
Fore
SplineSet
773 150 m 128,-1,1
 773 191 773 191 758 218.5 c 128,-1,2
 743 246 743 246 719 270 c 128,-1,3
 695 294 695 294 666 319 c 0,4,5
 594 381 594 381 547 440 c 128,-1,6
 500 499 500 499 500 578 c 128,-1,7
 500 657 500 657 561 726 c 0,8,9
 591 760 591 760 655 818.5 c 128,-1,10
 719 877 719 877 746 907 c 0,11,12
 807 974 807 974 807 1043 c 0,13,14
 807 1187 807 1187 667 1187 c 0,15,16
 571 1187 571 1187 512 1124 c 128,-1,17
 453 1061 453 1061 429 909 c 2,18,-1
 286 0 l 1,19,-1
 -6 0 l 1,20,-1
 18 78 l 1,21,-1
 143 111 l 1,22,-1
 249 784 l 1,23,-1
 127 784 l 1,24,-1
 146 859 l 1,25,-1
 269 884 l 1,26,27
 307 1053 307 1053 442.5 1179 c 128,-1,28
 578 1305 578 1305 749 1305 c 0,29,30
 881 1305 881 1305 929 1193 c 0,31,32
 951 1143 951 1143 951 1093.5 c 128,-1,33
 951 1044 951 1044 934 1000 c 128,-1,34
 917 956 917 956 889.5 924.5 c 128,-1,35
 862 893 862 893 829 864.5 c 128,-1,36
 796 836 796 836 762.5 811.5 c 128,-1,37
 729 787 729 787 702 763 c 0,38,39
 640 710 640 710 640 655.5 c 128,-1,40
 640 601 640 601 696 543 c 0,41,42
 721 517 721 517 751 490 c 0,43,44
 826 422 826 422 873 362.5 c 128,-1,45
 920 303 920 303 918 224 c 0,46,47
 915 115 915 115 822 40 c 128,-1,48
 729 -35 729 -35 625 -35 c 128,-1,49
 521 -35 521 -35 460.5 12 c 128,-1,50
 400 59 400 59 400 115 c 128,-1,51
 400 171 400 171 432.5 206.5 c 128,-1,52
 465 242 465 242 522 248 c 1,53,54
 570 54 570 54 664 54 c 0,55,56
 712 54 712 54 742.5 81.5 c 128,-1,0
 773 109 773 109 773 150 c 128,-1,1
EndSplineSet
Colour: ffffff
EndChar

StartChar: uni00C0
Encoding: 192 192 102
Width: 1278
VWidth: 0
Flags: HMW
LayerCount: 2
Back
SplineSet
-37 0 m 1,0,-1
 -28 74 l 1,1,-1
 121 129 l 1,2,-1
 559 1237 l 1,3,-1
 710 1268 l 1,4,-1
 1100 124 l 1,5,-1
 1237 80 l 1,6,-1
 1228 0 l 1,7,-1
 713 0 l 1,8,-1
 725 74 l 1,9,-1
 896 129 l 1,10,-1
 787 432 l 1,11,-1
 368 432 l 1,12,-1
 256 124 l 1,13,-1
 442 80 l 1,14,-1
 431 0 l 1,15,-1
 -37 0 l 1,0,-1
406 534 m 1,16,-1
 758 534 l 1,17,-1
 592 1034 l 1,18,-1
 406 534 l 1,16,-1
436 1664 m 1,19,-1
 552 1702 l 1,20,-1
 684 1368 l 1,21,-1
 627 1334 l 1,22,-1
 436 1664 l 1,19,-1
EndSplineSet
Fore
SplineSet
143 1642 m 25,0,-1
 351 1642 l 1,1,-1
 351 1570 l 1,2,-1
 127 1566 l 1,3,-1
771 1725 m 1,4,-1
 886 1763 l 1,5,-1
 1018 1430 l 1,6,-1
 962 1395 l 1,7,-1
 771 1725 l 1,4,-1
528 533 m 1,8,-1
 880 533 l 1,9,-1
 794 1034 l 1,10,-1
 528 533 l 1,8,-1
942 1268 m 1,11,-1
 1161 124 l 1,12,-1
 1290 81 l 1,13,-1
 1268 0 l 1,14,-1
 753 0 l 1,15,-1
 776 74 l 1,16,-1
 958 129 l 1,17,-1
 895 433 l 1,18,-1
 476 433 l 1,19,-1
 317 124 l 1,20,-1
 495 81 l 1,21,-1
 471 0 l 1,22,-1
 2 0 l 1,23,-1
 23 74 l 1,24,-1
 182 129 l 1,25,-1
 785 1237 l 1,26,-1
 942 1268 l 1,11,-1
EndSplineSet
Colour: ffff
EndChar

StartChar: uni00C1
Encoding: 193 193 103
Width: 1278
VWidth: 0
Flags: HMW
LayerCount: 2
Back
SplineSet
-37 0 m 1,0,-1
 -28 74 l 1,1,-1
 121 129 l 1,2,-1
 559 1237 l 1,3,-1
 710 1268 l 1,4,-1
 1100 124 l 1,5,-1
 1237 80 l 1,6,-1
 1228 0 l 1,7,-1
 713 0 l 1,8,-1
 725 74 l 1,9,-1
 896 129 l 1,10,-1
 787 432 l 1,11,-1
 368 432 l 1,12,-1
 256 124 l 1,13,-1
 442 80 l 1,14,-1
 431 0 l 1,15,-1
 -37 0 l 1,0,-1
406 534 m 1,16,-1
 758 534 l 1,17,-1
 592 1034 l 1,18,-1
 406 534 l 1,16,-1
593 1385 m 1,19,-1
 716 1710 l 1,20,-1
 827 1670 l 1,21,-1
 643 1354 l 1,22,-1
 593 1385 l 1,19,-1
EndSplineSet
Fore
SplineSet
143 1642 m 25,0,-1
 351 1642 l 1,1,-1
 351 1570 l 1,2,-1
 127 1566 l 1,3,-1
911 1427 m 1,4,-1
 1034 1752 l 1,5,-1
 1145 1713 l 1,6,-1
 962 1395 l 1,7,-1
 911 1427 l 1,4,-1
528 533 m 1,8,-1
 880 533 l 1,9,-1
 794 1034 l 1,10,-1
 528 533 l 1,8,-1
942 1268 m 1,11,-1
 1161 124 l 1,12,-1
 1290 81 l 1,13,-1
 1268 0 l 1,14,-1
 753 0 l 1,15,-1
 776 74 l 1,16,-1
 958 129 l 1,17,-1
 895 433 l 1,18,-1
 476 433 l 1,19,-1
 317 124 l 1,20,-1
 495 81 l 1,21,-1
 471 0 l 1,22,-1
 2 0 l 1,23,-1
 23 74 l 1,24,-1
 182 129 l 1,25,-1
 785 1237 l 1,26,-1
 942 1268 l 1,11,-1
EndSplineSet
Colour: ffff
EndChar

StartChar: uni00C2
Encoding: 194 194 104
Width: 1278
VWidth: 0
Flags: HMW
LayerCount: 2
Back
SplineSet
-37 0 m 1,0,-1
 -28 74 l 1,1,-1
 121 129 l 1,2,-1
 559 1237 l 1,3,-1
 710 1268 l 1,4,-1
 1100 124 l 1,5,-1
 1237 80 l 1,6,-1
 1228 0 l 1,7,-1
 713 0 l 1,8,-1
 725 74 l 1,9,-1
 896 129 l 1,10,-1
 787 432 l 1,11,-1
 368 432 l 1,12,-1
 256 124 l 1,13,-1
 442 80 l 1,14,-1
 431 0 l 1,15,-1
 -37 0 l 1,0,-1
406 534 m 1,16,-1
 758 534 l 1,17,-1
 592 1034 l 1,18,-1
 406 534 l 1,16,-1
443 1392 m 1,19,-1
 611 1572 l 1,20,-1
 666 1585 l 1,21,-1
 844 1400 l 1,22,-1
 794 1364 l 1,23,-1
 632 1472 l 1,24,-1
 621 1472 l 1,25,-1
 480 1361 l 1,26,-1
 443 1392 l 1,19,-1
EndSplineSet
Fore
SplineSet
143 1642 m 25,0,-1
 351 1642 l 1,1,-1
 351 1570 l 1,2,-1
 127 1566 l 1,3,-1
767 1425 m 1,4,-1
 935 1604 l 1,5,-1
 990 1619 l 1,6,-1
 1168 1433 l 1,7,-1
 1119 1396 l 1,8,-1
 956 1506 l 1,9,-1
 945 1506 l 1,10,-1
 806 1395 l 1,11,-1
 767 1425 l 1,4,-1
528 533 m 1,12,-1
 880 533 l 1,13,-1
 794 1034 l 1,14,-1
 528 533 l 1,12,-1
942 1268 m 1,15,-1
 1161 124 l 1,16,-1
 1290 81 l 1,17,-1
 1268 0 l 1,18,-1
 753 0 l 1,19,-1
 776 74 l 1,20,-1
 958 129 l 1,21,-1
 895 433 l 1,22,-1
 476 433 l 1,23,-1
 317 124 l 1,24,-1
 495 81 l 1,25,-1
 471 0 l 1,26,-1
 2 0 l 1,27,-1
 23 74 l 1,28,-1
 182 129 l 1,29,-1
 785 1237 l 1,30,-1
 942 1268 l 1,15,-1
EndSplineSet
Colour: ffff
EndChar

StartChar: uni00C3
Encoding: 195 195 105
Width: 1278
VWidth: 0
Flags: HMW
LayerCount: 2
Back
SplineSet
-37 0 m 1,0,-1
 -28 74 l 1,1,-1
 121 129 l 1,2,-1
 559 1237 l 1,3,-1
 710 1268 l 1,4,-1
 1100 124 l 1,5,-1
 1237 80 l 1,6,-1
 1228 0 l 1,7,-1
 713 0 l 1,8,-1
 725 74 l 1,9,-1
 896 129 l 1,10,-1
 787 432 l 1,11,-1
 368 432 l 1,12,-1
 256 124 l 1,13,-1
 442 80 l 1,14,-1
 431 0 l 1,15,-1
 -37 0 l 1,0,-1
406 534 m 1,16,-1
 758 534 l 1,17,-1
 592 1034 l 1,18,-1
 406 534 l 1,16,-1
406 1383 m 1,19,20
 407 1389 407 1389 410 1398.5 c 0
 413 1408 413 1408 423.5 1432.5 c 0
 434 1457 434 1457 447 1476 c 0
 460 1495 460 1495 482 1510.5 c 0
 504 1526 504 1526 529 1526 c 2,21,22
 543 1526 l 1,23,-1
 764 1496 l 1,24,-1
 768 1496 l 2,25,26
 779 1496 779 1496 793.5 1506 c 0
 808 1516 808 1516 816.5 1526 c 2
 825 1536 l 1,27,-1
 872 1535 l 1,28,29
 870 1529 870 1529 867 1519.5 c 0
 864 1510 864 1510 853 1485 c 0
 842 1460 842 1460 828.5 1441 c 0
 815 1422 815 1422 792 1406.5 c 0
 769 1391 769 1391 743 1391 c 0,30,31
 734 1391 734 1391 730 1392 c 2,32,-1
 507 1423 l 1,33,-1
 504 1423 l 2,34,35
 492 1423 492 1423 477 1411.5 c 0
 462 1400 462 1400 453.5 1388 c 2
 445 1376 l 1,36,-1
 406 1383 l 1,19,20
EndSplineSet
Fore
SplineSet
143 1642 m 25,0,-1
 351 1642 l 1,1,-1
 351 1570 l 1,2,-1
 127 1566 l 1,3,-1
742 1404 m 1,4,5
 767 1500 767 1500 827 1535 c 0,6,7
 851 1549 851 1549 878 1546 c 2,8,-1
 1104 1517 l 2,9,10
 1126 1514 1126 1514 1160 1557 c 1,11,-1
 1209 1555 l 1,12,13
 1180 1458 1180 1458 1117 1423 c 0,14,15
 1092 1409 1092 1409 1065 1412 c 2,16,-1
 840 1444 l 2,17,18
 815 1448 815 1448 781 1395 c 1,19,-1
 742 1404 l 1,4,5
528 533 m 1,20,-1
 880 533 l 1,21,-1
 794 1034 l 1,22,-1
 528 533 l 1,20,-1
942 1268 m 1,23,-1
 1161 124 l 1,24,-1
 1290 81 l 1,25,-1
 1268 0 l 1,26,-1
 753 0 l 1,27,-1
 776 74 l 1,28,-1
 958 129 l 1,29,-1
 895 433 l 1,30,-1
 476 433 l 1,31,-1
 317 124 l 1,32,-1
 495 81 l 1,33,-1
 471 0 l 1,34,-1
 2 0 l 1,35,-1
 23 74 l 1,36,-1
 182 129 l 1,37,-1
 785 1237 l 1,38,-1
 942 1268 l 1,23,-1
EndSplineSet
Colour: ffff
EndChar

StartChar: uni00C4
Encoding: 196 196 106
Width: 1278
VWidth: 0
Flags: HMW
LayerCount: 2
Back
SplineSet
-37 0 m 1,0,-1
 -28 74 l 1,1,-1
 121 129 l 1,2,-1
 559 1237 l 1,3,-1
 710 1268 l 1,4,-1
 1100 124 l 1,5,-1
 1237 80 l 1,6,-1
 1228 0 l 1,7,-1
 713 0 l 1,8,-1
 725 74 l 1,9,-1
 896 129 l 1,10,-1
 787 432 l 1,11,-1
 368 432 l 1,12,-1
 256 124 l 1,13,-1
 442 80 l 1,14,-1
 431 0 l 1,15,-1
 -37 0 l 1,0,-1
406 534 m 1,16,-1
 758 534 l 1,17,-1
 592 1034 l 1,18,-1
 406 534 l 1,16,-1
423 1453 m 0,19,20
 423 1487 423 1487 448.5 1508.5 c 0
 474 1530 474 1530 506 1530 c 0,21,22
 540 1530 540 1530 566 1508 c 0
 592 1486 592 1486 592 1453 c 0,23,24
 592 1418 592 1418 566.5 1395.5 c 0
 541 1373 541 1373 506 1373 c 0,25,26
 472 1373 472 1373 447.5 1395.5 c 0
 423 1418 423 1418 423 1453 c 0,19,20
690 1453 m 0,27,28
 690 1487 690 1487 715.5 1508.5 c 0
 741 1530 741 1530 773 1530 c 0,29,30
 808 1530 808 1530 834.5 1508 c 0
 861 1486 861 1486 861 1453 c 0,31,32
 861 1418 861 1418 834.5 1395.5 c 0
 808 1373 808 1373 773 1373 c 0,33,34
 739 1373 739 1373 714.5 1395.5 c 0
 690 1418 690 1418 690 1453 c 0,27,28
EndSplineSet
Fore
SplineSet
143 1642 m 25,0,-1
 351 1642 l 1,1,-1
 351 1570 l 1,2,-1
 127 1566 l 1,3,-1
854.5 1553 m 128,-1,5
 888 1553 888 1553 909.5 1531.5 c 128,-1,6
 931 1510 931 1510 925.5 1475 c 128,-1,7
 920 1440 920 1440 892 1417.5 c 128,-1,8
 864 1395 864 1395 829 1395 c 128,-1,9
 794 1395 794 1395 772 1417.5 c 128,-1,10
 750 1440 750 1440 755.5 1475 c 128,-1,11
 761 1510 761 1510 791 1531.5 c 128,-1,4
 821 1553 821 1553 854.5 1553 c 128,-1,5
1121.5 1553 m 128,-1,13
 1155 1553 1155 1553 1177.5 1531.5 c 128,-1,14
 1200 1510 1200 1510 1194.5 1475 c 128,-1,15
 1189 1440 1189 1440 1160 1417.5 c 128,-1,16
 1131 1395 1131 1395 1096.5 1395 c 128,-1,17
 1062 1395 1062 1395 1040 1417.5 c 128,-1,18
 1018 1440 1018 1440 1023.5 1475 c 128,-1,19
 1029 1510 1029 1510 1058.5 1531.5 c 128,-1,12
 1088 1553 1088 1553 1121.5 1553 c 128,-1,13
528 533 m 1,20,-1
 880 533 l 1,21,-1
 794 1034 l 1,22,-1
 528 533 l 1,20,-1
942 1268 m 1,23,-1
 1161 124 l 1,24,-1
 1290 81 l 1,25,-1
 1268 0 l 1,26,-1
 753 0 l 1,27,-1
 776 74 l 1,28,-1
 958 129 l 1,29,-1
 895 433 l 1,30,-1
 476 433 l 1,31,-1
 317 124 l 1,32,-1
 495 81 l 1,33,-1
 471 0 l 1,34,-1
 2 0 l 1,35,-1
 23 74 l 1,36,-1
 182 129 l 1,37,-1
 785 1237 l 1,38,-1
 942 1268 l 1,23,-1
EndSplineSet
Colour: ffff
EndChar

StartChar: uni00C5
Encoding: 197 197 107
Width: 1278
VWidth: 0
Flags: HMW
LayerCount: 2
Back
SplineSet
-37 0 m 1,0,-1
 -28 74 l 1,1,-1
 121 129 l 1,2,-1
 559 1237 l 1,3,-1
 710 1268 l 1,4,-1
 1100 124 l 1,5,-1
 1237 80 l 1,6,-1
 1228 0 l 1,7,-1
 713 0 l 1,8,-1
 725 74 l 1,9,-1
 896 129 l 1,10,-1
 787 432 l 1,11,-1
 368 432 l 1,12,-1
 256 124 l 1,13,-1
 442 80 l 1,14,-1
 431 0 l 1,15,-1
 -37 0 l 1,0,-1
406 534 m 1,16,-1
 758 534 l 1,17,-1
 592 1034 l 1,18,-1
 406 534 l 1,16,-1
480 1532 m 0,19,20
 480 1601 480 1601 530 1652.5 c 0
 580 1704 580 1704 649 1704 c 0,21,22
 720 1704 720 1704 762 1658.5 c 0
 804 1613 804 1613 804 1542 c 0,23,24
 804 1472 804 1472 757 1419.5 c 0
 710 1367 710 1367 636 1367 c 0,25,26
 566 1367 566 1367 523 1411.5 c 0
 480 1456 480 1456 480 1532 c 0,19,20
552 1543 m 0,27,28
 552 1492 552 1492 577 1453.5 c 0
 602 1415 602 1415 647 1415 c 0,29,30
 688 1415 688 1415 711 1445 c 0
 734 1475 734 1475 734 1529 c 0,31,32
 734 1579 734 1579 707 1617.5 c 0
 680 1656 680 1656 636 1656 c 0,33,34
 595 1656 595 1656 573.5 1623 c 0
 552 1590 552 1590 552 1543 c 0,27,28
EndSplineSet
Fore
SplineSet
143 1642 m 25,0,-1
 351 1642 l 1,1,-1
 351 1570 l 1,2,-1
 127 1566 l 1,3,-1
964 1546 m 0,4,5
 885 1546 885 1546 885 1439 c 0,6,7
 885 1388 885 1388 907.5 1352.5 c 128,-1,8
 930 1317 930 1317 974 1317 c 0,9,10
 1054 1317 1054 1317 1054 1425 c 0,11,12
 1054 1476 1054 1476 1031 1511 c 128,-1,13
 1008 1546 1008 1546 964 1546 c 0,4,5
795 1429.5 m 128,-1,15
 795 1496 795 1496 850 1548 c 128,-1,16
 905 1600 905 1600 976 1600 c 128,-1,17
 1047 1600 1047 1600 1095 1553.5 c 128,-1,18
 1143 1507 1143 1507 1143 1437.5 c 128,-1,19
 1143 1368 1143 1368 1090 1315 c 128,-1,20
 1037 1262 1037 1262 962 1262 c 0,21,22
 952 1262 952 1262 943 1263 c 1,23,-1
 1161 124 l 1,24,-1
 1290 81 l 1,25,-1
 1268 0 l 1,26,-1
 753 0 l 1,27,-1
 776 74 l 1,28,-1
 958 129 l 1,29,-1
 895 433 l 1,30,-1
 476 433 l 1,31,-1
 317 124 l 1,32,-1
 495 81 l 1,33,-1
 471 0 l 1,34,-1
 2 0 l 1,35,-1
 23 74 l 1,36,-1
 182 129 l 1,37,-1
 785 1237 l 1,38,-1
 927 1265 l 1,39,40
 869 1276 869 1276 832 1319.5 c 128,-1,14
 795 1363 795 1363 795 1429.5 c 128,-1,15
528 533 m 1,41,-1
 880 533 l 1,42,-1
 794 1034 l 1,43,-1
 528 533 l 1,41,-1
EndSplineSet
Colour: ffff
EndChar

StartChar: uni00C7
Encoding: 199 199 108
Width: 1111
VWidth: 0
Flags: HMW
LayerCount: 2
Back
SplineSet
61 589 m 0,0,1
 61 681 61 681 83.5 773.5 c 0
 106 866 106 866 156.5 956 c 0
 207 1046 207 1046 280 1115 c 0
 353 1184 353 1184 463 1226.5 c 0
 573 1269 573 1269 705 1269 c 0,2,3
 934 1269 934 1269 1066 1169 c 1,4,-1
 1035 837 l 1,5,-1
 947 850 l 1,6,-1
 906 1070 l 1,7,8
 825 1174 825 1174 647 1174 c 0,9,10
 487 1174 487 1174 381 1034 c 0
 275 894 275 894 275 658 c 0,11,12
 275 528 275 528 312.5 422 c 0
 350 316 350 316 413.5 249 c 0
 477 182 477 182 558 146.5 c 0
 639 111 639 111 729 111 c 0,13,14
 823 111 823 111 915 153.5 c 0
 1007 196 1007 196 1078 261 c 1,15,-1
 1114 185 l 1,16,17
 1058 117 1058 117 959 59 c 0
 860 1 860 1 743 -18 c 1,18,-1
 703 -76 l 1,19,20
 792 -155 792 -155 792 -227 c 0,21,22
 792 -330 792 -330 592 -389 c 1,23,-1
 572 -331 l 1,24,25
 613 -317 613 -317 635.5 -294.5 c 0
 658 -272 658 -272 658 -248 c 0,26,27
 658 -207 658 -207 585 -138 c 1,28,-1
 663 -24 l 1,29,-1
 652 -24 l 2,30,31
 535 -24 535 -24 429.5 16.5 c 0
 324 57 324 57 241.5 132 c 0
 159 207 159 207 110 325.5 c 0
 61 444 61 444 61 589 c 0,0,1
EndSplineSet
Fore
SplineSet
433 -346 m 1,0,1
 519 -317 519 -317 519 -255 c 0,2,3
 519 -223 519 -223 445 -153 c 1,4,-1
 540 -16 l 1,5,6
 365 19 365 19 248.5 167 c 128,-1,7
 132 315 132 315 132 536.5 c 128,-1,8
 132 758 132 758 271 960 c 0,9,10
 364 1095 364 1095 522 1182.5 c 128,-1,11
 680 1270 680 1270 884 1270 c 128,-1,12
 1088 1270 1088 1270 1227 1149 c 1,13,-1
 1144 817 l 1,14,-1
 1060 831 l 1,15,-1
 1052 1050 l 1,16,17
 976 1174 976 1174 803.5 1174 c 128,-1,18
 631 1174 631 1174 496 1016 c 0,19,20
 432 941 432 941 393.5 826.5 c 128,-1,21
 355 712 355 712 355 588 c 0,22,23
 355 350 355 350 466.5 228 c 128,-1,24
 578 106 578 106 741 106 c 0,25,26
 840 106 840 106 926 134 c 128,-1,27
 1012 162 1012 162 1100 240 c 1,28,-1
 1143 185 l 1,29,30
 955 -25 955 -25 637 -25 c 0,31,32
 623 -25 623 -25 609 -24 c 1,33,-1
 564 -91 l 1,34,35
 653 -170 653 -170 653 -242 c 0,36,37
 653 -345 653 -345 452 -404 c 1,38,-1
 433 -346 l 1,0,1
EndSplineSet
Colour: ffff
EndChar

StartChar: uni00C8
Encoding: 200 200 109
Width: 1075
VWidth: 0
Flags: HMW
LayerCount: 2
Back
SplineSet
50 1168 m 1,0,-1
 61 1244 l 1,1,-1
 1056 1244 l 1,2,-1
 1025 924 l 1,3,-1
 938 937 l 1,4,-1
 897 1152 l 1,5,-1
 426 1152 l 1,6,-1
 426 676 l 1,7,-1
 716 676 l 1,8,-1
 758 796 l 1,9,-1
 853 810 l 1,10,-1
 819 421 l 1,11,-1
 734 408 l 1,12,-1
 700 583 l 1,13,-1
 426 583 l 1,14,-1
 426 96 l 1,15,-1
 921 96 l 1,16,-1
 1019 326 l 1,17,-1
 1102 313 l 1,18,-1
 1072 0 l 1,19,-1
 57 0 l 1,20,-1
 65 74 l 1,21,-1
 232 121 l 1,22,-1
 232 1126 l 1,23,-1
 50 1168 l 1,0,-1
443 1664 m 1,24,-1
 559 1702 l 1,25,-1
 691 1368 l 1,26,-1
 633 1334 l 1,27,-1
 443 1664 l 1,24,-1
EndSplineSet
Fore
SplineSet
561 1725 m 1,0,-1
 676 1763 l 1,1,-1
 808 1430 l 1,2,-1
 752 1395 l 1,3,-1
 561 1725 l 1,0,-1
230 1244 m 1,4,-1
 1205 1244 l 1,5,-1
 1136 925 l 1,6,-1
 1052 938 l 1,7,-1
 1032 1153 l 1,8,-1
 580 1153 l 1,9,-1
 507 677 l 1,10,-1
 798 677 l 1,11,-1
 849 796 l 1,12,-1
 945 809 l 1,13,-1
 862 421 l 1,14,-1
 775 408 l 1,15,-1
 768 583 l 1,16,-1
 492 583 l 1,17,-1
 415 96 l 1,18,-1
 922 96 l 1,19,-1
 1035 325 l 1,20,-1
 1118 314 l 1,21,-1
 1057 0 l 1,22,-1
 31 0 l 1,23,-1
 51 74 l 1,24,-1
 226 121 l 1,25,-1
 385 1126 l 1,26,-1
 208 1168 l 1,27,-1
 230 1244 l 1,4,-1
EndSplineSet
Colour: ffff
EndChar

StartChar: uni00C9
Encoding: 201 201 110
Width: 1075
VWidth: 0
Flags: HMW
LayerCount: 2
Back
SplineSet
50 1168 m 1,0,-1
 61 1244 l 1,1,-1
 1056 1244 l 1,2,-1
 1025 924 l 1,3,-1
 938 937 l 1,4,-1
 897 1152 l 1,5,-1
 426 1152 l 1,6,-1
 426 676 l 1,7,-1
 716 676 l 1,8,-1
 758 796 l 1,9,-1
 853 810 l 1,10,-1
 819 421 l 1,11,-1
 734 408 l 1,12,-1
 700 583 l 1,13,-1
 426 583 l 1,14,-1
 426 96 l 1,15,-1
 921 96 l 1,16,-1
 1019 326 l 1,17,-1
 1102 313 l 1,18,-1
 1072 0 l 1,19,-1
 57 0 l 1,20,-1
 65 74 l 1,21,-1
 232 121 l 1,22,-1
 232 1126 l 1,23,-1
 50 1168 l 1,0,-1
517 1385 m 1,24,-1
 640 1710 l 1,25,-1
 751 1670 l 1,26,-1
 568 1354 l 1,27,-1
 517 1385 l 1,24,-1
EndSplineSet
Fore
SplineSet
701 1427 m 1,0,-1
 824 1752 l 1,1,-1
 935 1713 l 1,2,-1
 752 1395 l 1,3,-1
 701 1427 l 1,0,-1
230 1244 m 1,4,-1
 1205 1244 l 1,5,-1
 1136 925 l 1,6,-1
 1052 938 l 1,7,-1
 1032 1153 l 1,8,-1
 580 1153 l 1,9,-1
 507 677 l 1,10,-1
 798 677 l 1,11,-1
 849 796 l 1,12,-1
 945 809 l 1,13,-1
 862 421 l 1,14,-1
 775 408 l 1,15,-1
 768 583 l 1,16,-1
 492 583 l 1,17,-1
 415 96 l 1,18,-1
 922 96 l 1,19,-1
 1035 325 l 1,20,-1
 1118 314 l 1,21,-1
 1057 0 l 1,22,-1
 31 0 l 1,23,-1
 51 74 l 1,24,-1
 226 121 l 1,25,-1
 385 1126 l 1,26,-1
 208 1168 l 1,27,-1
 230 1244 l 1,4,-1
EndSplineSet
Colour: ffff
EndChar

StartChar: uni00CA
Encoding: 202 202 111
Width: 1075
VWidth: 0
Flags: HMW
LayerCount: 2
Back
SplineSet
406 1387 m 1,0,-1
 574 1566 l 1,1,-1
 629 1581 l 1,2,-1
 807 1395 l 1,3,-1
 758 1358 l 1,4,-1
 595 1468 l 1,5,-1
 584 1468 l 1,6,-1
 445 1357 l 1,7,-1
 406 1387 l 1,0,-1
75 1168 m 1,8,-1
 86 1244 l 1,9,-1
 1081 1244 l 1,10,-1
 1050 924 l 1,11,-1
 963 937 l 1,12,-1
 922 1152 l 1,13,-1
 451 1152 l 1,14,-1
 451 676 l 1,15,-1
 741 676 l 1,16,-1
 783 796 l 1,17,-1
 878 810 l 1,18,-1
 844 421 l 1,19,-1
 759 408 l 1,20,-1
 725 583 l 1,21,-1
 451 583 l 1,22,-1
 451 96 l 1,23,-1
 946 96 l 1,24,-1
 1044 326 l 1,25,-1
 1127 313 l 1,26,-1
 1097 0 l 1,27,-1
 82 0 l 1,28,-1
 90 74 l 1,29,-1
 257 121 l 1,30,-1
 257 1126 l 1,31,-1
 75 1168 l 1,8,-1
EndSplineSet
Fore
SplineSet
556 1425 m 1,0,-1
 724 1604 l 1,1,-1
 779 1619 l 1,2,-1
 957 1433 l 1,3,-1
 908 1396 l 1,4,-1
 745 1506 l 1,5,-1
 734 1506 l 1,6,-1
 595 1395 l 1,7,-1
 556 1425 l 1,0,-1
230 1244 m 1,8,-1
 1205 1244 l 1,9,-1
 1136 925 l 1,10,-1
 1052 938 l 1,11,-1
 1032 1153 l 1,12,-1
 580 1153 l 1,13,-1
 507 677 l 1,14,-1
 798 677 l 1,15,-1
 849 796 l 1,16,-1
 945 809 l 1,17,-1
 862 421 l 1,18,-1
 775 408 l 1,19,-1
 768 583 l 1,20,-1
 492 583 l 1,21,-1
 415 96 l 1,22,-1
 922 96 l 1,23,-1
 1035 325 l 1,24,-1
 1118 314 l 1,25,-1
 1057 0 l 1,26,-1
 31 0 l 1,27,-1
 51 74 l 1,28,-1
 226 121 l 1,29,-1
 385 1126 l 1,30,-1
 208 1168 l 1,31,-1
 230 1244 l 1,8,-1
EndSplineSet
Colour: ffff
EndChar

StartChar: uni00CB
Encoding: 203 203 112
Width: 1075
VWidth: 0
Flags: HMW
LayerCount: 2
Back
SplineSet
50 1168 m 1,0,-1
 61 1244 l 1,1,-1
 1056 1244 l 1,2,-1
 1025 924 l 1,3,-1
 938 937 l 1,4,-1
 897 1152 l 1,5,-1
 426 1152 l 1,6,-1
 426 676 l 1,7,-1
 716 676 l 1,8,-1
 758 796 l 1,9,-1
 853 810 l 1,10,-1
 819 421 l 1,11,-1
 734 408 l 1,12,-1
 700 583 l 1,13,-1
 426 583 l 1,14,-1
 426 96 l 1,15,-1
 921 96 l 1,16,-1
 1019 326 l 1,17,-1
 1102 313 l 1,18,-1
 1072 0 l 1,19,-1
 57 0 l 1,20,-1
 65 74 l 1,21,-1
 232 121 l 1,22,-1
 232 1126 l 1,23,-1
 50 1168 l 1,0,-1
380 1453 m 0,24,25
 380 1487 380 1487 405.5 1508.5 c 0
 431 1530 431 1530 463 1530 c 0,26,27
 497 1530 497 1530 523 1508 c 0
 549 1486 549 1486 549 1453 c 0,28,29
 549 1418 549 1418 523.5 1395.5 c 0
 498 1373 498 1373 463 1373 c 0,30,31
 429 1373 429 1373 404.5 1395.5 c 0
 380 1418 380 1418 380 1453 c 0,24,25
647 1453 m 0,32,33
 647 1487 647 1487 672.5 1508.5 c 0
 698 1530 698 1530 730 1530 c 0,34,35
 765 1530 765 1530 791.5 1508 c 0
 818 1486 818 1486 818 1453 c 0,36,37
 818 1418 818 1418 791.5 1395.5 c 0
 765 1373 765 1373 730 1373 c 0,38,39
 696 1373 696 1373 671.5 1395.5 c 0
 647 1418 647 1418 647 1453 c 0,32,33
EndSplineSet
Fore
SplineSet
644 1553 m 128,-1,1
 678 1553 678 1553 699 1531.5 c 128,-1,2
 720 1510 720 1510 714.5 1475 c 128,-1,3
 709 1440 709 1440 681 1417.5 c 128,-1,4
 653 1395 653 1395 618.5 1395 c 128,-1,5
 584 1395 584 1395 561.5 1417.5 c 128,-1,6
 539 1440 539 1440 545 1475 c 128,-1,7
 551 1510 551 1510 580.5 1531.5 c 128,-1,0
 610 1553 610 1553 644 1553 c 128,-1,1
911 1553 m 128,-1,9
 945 1553 945 1553 967 1531.5 c 128,-1,10
 989 1510 989 1510 983.5 1475 c 128,-1,11
 978 1440 978 1440 949 1417.5 c 128,-1,12
 920 1395 920 1395 885.5 1395 c 128,-1,13
 851 1395 851 1395 829 1417.5 c 128,-1,14
 807 1440 807 1440 813 1475 c 128,-1,15
 819 1510 819 1510 848 1531.5 c 128,-1,8
 877 1553 877 1553 911 1553 c 128,-1,9
230 1244 m 1,16,-1
 1205 1244 l 1,17,-1
 1136 925 l 1,18,-1
 1052 938 l 1,19,-1
 1032 1153 l 1,20,-1
 580 1153 l 1,21,-1
 507 677 l 1,22,-1
 798 677 l 1,23,-1
 849 796 l 1,24,-1
 945 809 l 1,25,-1
 862 421 l 1,26,-1
 775 408 l 1,27,-1
 768 583 l 1,28,-1
 492 583 l 1,29,-1
 415 96 l 1,30,-1
 922 96 l 1,31,-1
 1035 325 l 1,32,-1
 1118 314 l 1,33,-1
 1057 0 l 1,34,-1
 31 0 l 1,35,-1
 51 74 l 1,36,-1
 226 121 l 1,37,-1
 385 1126 l 1,38,-1
 208 1168 l 1,39,-1
 230 1244 l 1,16,-1
EndSplineSet
Colour: ffff
EndChar

StartChar: uni00CC
Encoding: 204 204 113
Width: 601
VWidth: 0
Flags: HMW
LayerCount: 2
Back
SplineSet
50 1168 m 1,0,-1
 61 1244 l 1,1,-1
 605 1244 l 1,2,-1
 595 1168 l 1,3,-1
 426 1130 l 1,4,-1
 426 114 l 1,5,-1
 607 80 l 1,6,-1
 597 0 l 1,7,-1
 57 0 l 1,8,-1
 65 74 l 1,9,-1
 232 121 l 1,10,-1
 232 1126 l 1,11,-1
 50 1168 l 1,0,-1
133 1664 m 1,12,-1
 249 1702 l 1,13,-1
 381 1368 l 1,14,-1
 323 1334 l 1,15,-1
 133 1664 l 1,12,-1
EndSplineSet
Fore
SplineSet
336 1725 m 1,0,-1
 451 1763 l 1,1,-1
 583 1430 l 1,2,-1
 527 1395 l 1,3,-1
 336 1725 l 1,0,-1
571 0 m 1,4,-1
 31 0 l 1,5,-1
 51 74 l 1,6,-1
 226 121 l 1,7,-1
 385 1126 l 1,8,-1
 208 1168 l 1,9,-1
 230 1244 l 1,10,-1
 775 1244 l 1,11,-1
 753 1168 l 1,12,-1
 578 1130 l 1,13,-1
 418 114 l 1,14,-1
 595 81 l 1,15,-1
 571 0 l 1,4,-1
EndSplineSet
Colour: ffff
EndChar

StartChar: uni00CD
Encoding: 205 205 114
Width: 601
VWidth: 0
Flags: HMW
LayerCount: 2
Back
SplineSet
50 1168 m 1,0,-1
 61 1244 l 1,1,-1
 605 1244 l 1,2,-1
 595 1168 l 1,3,-1
 426 1130 l 1,4,-1
 426 114 l 1,5,-1
 607 80 l 1,6,-1
 597 0 l 1,7,-1
 57 0 l 1,8,-1
 65 74 l 1,9,-1
 232 121 l 1,10,-1
 232 1126 l 1,11,-1
 50 1168 l 1,0,-1
289 1385 m 1,12,-1
 412 1710 l 1,13,-1
 523 1670 l 1,14,-1
 341 1354 l 1,15,-1
 289 1385 l 1,12,-1
EndSplineSet
Fore
SplineSet
476 1427 m 1,0,-1
 599 1752 l 1,1,-1
 710 1713 l 1,2,-1
 527 1395 l 1,3,-1
 476 1427 l 1,0,-1
571 0 m 1,4,-1
 31 0 l 1,5,-1
 51 74 l 1,6,-1
 226 121 l 1,7,-1
 385 1126 l 1,8,-1
 208 1168 l 1,9,-1
 230 1244 l 1,10,-1
 775 1244 l 1,11,-1
 753 1168 l 1,12,-1
 578 1130 l 1,13,-1
 418 114 l 1,14,-1
 595 81 l 1,15,-1
 571 0 l 1,4,-1
EndSplineSet
Colour: ffff
EndChar

StartChar: uni00CE
Encoding: 206 206 115
Width: 601
VWidth: 0
Flags: HMW
LayerCount: 2
Back
SplineSet
50 1168 m 1,0,-1
 61 1244 l 1,1,-1
 605 1244 l 1,2,-1
 595 1168 l 1,3,-1
 426 1130 l 1,4,-1
 426 114 l 1,5,-1
 607 80 l 1,6,-1
 597 0 l 1,7,-1
 57 0 l 1,8,-1
 65 74 l 1,9,-1
 232 121 l 1,10,-1
 232 1126 l 1,11,-1
 50 1168 l 1,0,-1
132 1392 m 1,12,-1
 299 1572 l 1,13,-1
 354 1585 l 1,14,-1
 532 1400 l 1,15,-1
 483 1364 l 1,16,-1
 319 1472 l 1,17,-1
 309 1472 l 1,18,-1
 169 1361 l 1,19,-1
 132 1392 l 1,12,-1
EndSplineSet
Fore
SplineSet
331 1425 m 1,0,-1
 499 1604 l 1,1,-1
 554 1619 l 1,2,-1
 732 1433 l 1,3,-1
 683 1396 l 1,4,-1
 520 1506 l 1,5,-1
 509 1506 l 1,6,-1
 370 1395 l 1,7,-1
 331 1425 l 1,0,-1
571 0 m 1,8,-1
 31 0 l 1,9,-1
 51 74 l 1,10,-1
 226 121 l 1,11,-1
 385 1126 l 1,12,-1
 208 1168 l 1,13,-1
 230 1244 l 1,14,-1
 775 1244 l 1,15,-1
 753 1168 l 1,16,-1
 578 1130 l 1,17,-1
 418 114 l 1,18,-1
 595 81 l 1,19,-1
 571 0 l 1,8,-1
EndSplineSet
Colour: ffff
EndChar

StartChar: uni00CF
Encoding: 207 207 116
Width: 601
VWidth: 0
Flags: HMW
LayerCount: 2
Back
SplineSet
50 1168 m 1,0,-1
 61 1244 l 1,1,-1
 605 1244 l 1,2,-1
 595 1168 l 1,3,-1
 426 1130 l 1,4,-1
 426 114 l 1,5,-1
 607 80 l 1,6,-1
 597 0 l 1,7,-1
 57 0 l 1,8,-1
 65 74 l 1,9,-1
 232 121 l 1,10,-1
 232 1126 l 1,11,-1
 50 1168 l 1,0,-1
110 1453 m 0,12,13
 110 1487 110 1487 136 1508.5 c 0
 162 1530 162 1530 194 1530 c 0,14,15
 228 1530 228 1530 253.5 1508 c 0
 279 1486 279 1486 279 1453 c 0,16,17
 279 1418 279 1418 253.5 1395.5 c 0
 228 1373 228 1373 194 1373 c 0,18,19
 160 1373 160 1373 135 1395.5 c 0
 110 1418 110 1418 110 1453 c 0,12,13
377 1453 m 0,20,21
 377 1487 377 1487 403 1508.5 c 0
 429 1530 429 1530 461 1530 c 0,22,23
 496 1530 496 1530 522.5 1508 c 0
 549 1486 549 1486 549 1453 c 0,24,25
 549 1418 549 1418 522.5 1395.5 c 0
 496 1373 496 1373 461 1373 c 0,26,27
 427 1373 427 1373 402 1395.5 c 0
 377 1418 377 1418 377 1453 c 0,20,21
EndSplineSet
Fore
SplineSet
419 1553 m 128,-1,1
 453 1553 453 1553 474 1531.5 c 128,-1,2
 495 1510 495 1510 489.5 1475 c 128,-1,3
 484 1440 484 1440 456 1417.5 c 128,-1,4
 428 1395 428 1395 393.5 1395 c 128,-1,5
 359 1395 359 1395 336.5 1417.5 c 128,-1,6
 314 1440 314 1440 320 1475 c 128,-1,7
 326 1510 326 1510 355.5 1531.5 c 128,-1,0
 385 1553 385 1553 419 1553 c 128,-1,1
686 1553 m 128,-1,9
 720 1553 720 1553 742 1531.5 c 128,-1,10
 764 1510 764 1510 758.5 1475 c 128,-1,11
 753 1440 753 1440 724 1417.5 c 128,-1,12
 695 1395 695 1395 660.5 1395 c 128,-1,13
 626 1395 626 1395 604 1417.5 c 128,-1,14
 582 1440 582 1440 588 1475 c 128,-1,15
 594 1510 594 1510 623 1531.5 c 128,-1,8
 652 1553 652 1553 686 1553 c 128,-1,9
571 0 m 1,16,-1
 31 0 l 1,17,-1
 51 74 l 1,18,-1
 226 121 l 1,19,-1
 385 1126 l 1,20,-1
 208 1168 l 1,21,-1
 230 1244 l 1,22,-1
 775 1244 l 1,23,-1
 753 1168 l 1,24,-1
 578 1130 l 1,25,-1
 418 114 l 1,26,-1
 595 81 l 1,27,-1
 571 0 l 1,16,-1
EndSplineSet
Colour: ffff
EndChar

StartChar: uni00D1
Encoding: 209 209 117
Width: 1337
VWidth: 0
Flags: HMW
LayerCount: 2
Back
SplineSet
50 1168 m 1,0,-1
 61 1244 l 1,1,-1
 412 1244 l 1,2,-1
 1054 271 l 1,3,-1
 1054 1126 l 1,4,-1
 869 1168 l 1,5,-1
 881 1244 l 1,6,-1
 1356 1244 l 1,7,-1
 1343 1168 l 1,8,-1
 1176 1130 l 1,9,-1
 1176 1 l 1,10,-1
 1023 -30 l 1,11,-1
 360 961 l 1,12,-1
 360 114 l 1,13,-1
 543 80 l 1,14,-1
 532 0 l 1,15,-1
 57 0 l 1,16,-1
 65 74 l 1,17,-1
 232 121 l 1,18,-1
 232 1117 l 1,19,-1
 50 1168 l 1,0,-1
445 1383 m 1,20,21
 446 1389 446 1389 449 1398.5 c 0
 452 1408 452 1408 462 1432.5 c 0
 472 1457 472 1457 484.5 1476 c 0
 497 1495 497 1495 519 1510.5 c 0
 541 1526 541 1526 566 1526 c 2,22,23
 580 1526 l 1,24,-1
 802 1496 l 1,25,-1
 807 1496 l 2,26,27
 818 1496 818 1496 832 1506 c 0
 846 1516 846 1516 854 1526 c 2
 862 1536 l 1,28,-1
 910 1535 l 1,29,30
 908 1529 908 1529 905 1519.5 c 0
 902 1510 902 1510 891 1485 c 0
 880 1460 880 1460 866.5 1441 c 0
 853 1422 853 1422 830 1406.5 c 0
 807 1391 807 1391 781 1391 c 0,31,32
 772 1391 772 1391 768 1392 c 2,33,-1
 546 1423 l 1,34,-1
 543 1423 l 2,35,36
 531 1423 531 1423 516 1411.5 c 0
 501 1400 501 1400 492 1388 c 2
 483 1376 l 1,37,-1
 445 1383 l 1,20,21
EndSplineSet
Fore
SplineSet
682 1404 m 1,0,1
 707 1500 707 1500 767 1535 c 0,2,3
 791 1549 791 1549 818 1546 c 2,4,-1
 1044 1517 l 2,5,6
 1066 1514 1066 1514 1100 1557 c 1,7,-1
 1149 1555 l 1,8,9
 1120 1458 1120 1458 1057 1423 c 0,10,11
 1032 1409 1032 1409 1005 1412 c 2,12,-1
 780 1444 l 2,13,14
 755 1448 755 1448 721 1395 c 1,15,-1
 682 1404 l 1,0,1
991 -30 m 1,16,-1
 486 961 l 1,17,-1
 352 114 l 1,18,-1
 530 81 l 1,19,-1
 507 0 l 1,20,-1
 31 0 l 1,21,-1
 51 74 l 1,22,-1
 226 121 l 1,23,-1
 383 1118 l 1,24,-1
 208 1168 l 1,25,-1
 230 1244 l 1,26,-1
 578 1244 l 1,27,-1
 1072 262 l 1,28,-1
 1207 1126 l 1,29,-1
 1027 1168 l 1,30,-1
 1050 1244 l 1,31,-1
 1526 1244 l 1,32,-1
 1501 1168 l 1,33,-1
 1329 1130 l 1,34,-1
 1151 2 l 1,35,-1
 991 -30 l 1,16,-1
EndSplineSet
Colour: ffff
EndChar

StartChar: uni00D2
Encoding: 210 210 118
Width: 1322
VWidth: 0
Flags: HMW
LayerCount: 2
Back
SplineSet
61 619 m 0,0,1
 61 911 61 911 236 1091.5 c 0
 411 1272 411 1272 706 1272 c 0,2,3
 838 1272 838 1272 948.5 1219.5 c 0
 1059 1167 1059 1167 1131.5 1077 c 0
 1204 987 1204 987 1244 869 c 0
 1284 751 1284 751 1284 619 c 0,4,5
 1284 489 1284 489 1240.5 372.5 c 0
 1197 256 1197 256 1116.5 167 c 0
 1036 78 1036 78 911.5 25.5 c 0
 787 -27 787 -27 636 -27 c 0,6,7
 467 -27 467 -27 335 59 c 0
 203 145 203 145 132 292 c 0
 61 439 61 439 61 619 c 0,0,1
283 676 m 0,8,9
 283 585 283 585 297 501 c 0
 311 417 311 417 342.5 339.5 c 0
 374 262 374 262 419.5 204.5 c 0
 465 147 465 147 533.5 113 c 0
 602 79 602 79 686 79 c 0,10,11
 774 79 774 79 841.5 107.5 c 0
 909 136 909 136 950 182.5 c 0
 991 229 991 229 1017 295 c 0
 1043 361 1043 361 1052.5 428 c 0
 1062 495 1062 495 1062 573 c 0,12,13
 1062 661 1062 661 1048 745 c 0
 1034 829 1034 829 1002 907.5 c 0
 970 986 970 986 924.5 1045.5 c 0
 879 1105 879 1105 810 1140.5 c 0
 741 1176 741 1176 658 1176 c 0,14,15
 283 1176 283 1176 283 676 c 0,8,9
527 1664 m 1,16,-1
 642 1702 l 1,17,-1
 774 1368 l 1,18,-1
 717 1334 l 1,19,-1
 527 1664 l 1,16,-1
EndSplineSet
Fore
SplineSet
695 1725 m 1,0,-1
 810 1763 l 1,1,-1
 942 1430 l 1,2,-1
 886 1395 l 1,3,-1
 695 1725 l 1,0,-1
1382 705 m 128,-1,5
 1382 574 1382 574 1333.5 439.5 c 128,-1,6
 1285 305 1285 305 1195 200.5 c 128,-1,7
 1105 96 1105 96 964.5 35 c 128,-1,8
 824 -26 824 -26 674 -26 c 0,9,10
 393 -26 393 -26 266 126.5 c 128,-1,11
 139 279 139 279 139 508 c 128,-1,12
 139 737 139 737 225.5 908 c 128,-1,13
 312 1079 312 1079 478 1176 c 128,-1,14
 644 1273 644 1273 867 1273 c 0,15,16
 994 1273 994 1273 1094 1228.5 c 128,-1,17
 1194 1184 1194 1184 1256 1107.5 c 128,-1,18
 1318 1031 1318 1031 1350 933.5 c 128,-1,4
 1382 836 1382 836 1382 705 c 128,-1,5
829.5 1176 m 128,-1,20
 754 1176 754 1176 697 1162.5 c 128,-1,21
 640 1149 640 1149 597 1126 c 128,-1,22
 554 1103 554 1103 519.5 1068.5 c 128,-1,23
 485 1034 485 1034 461.5 997 c 128,-1,24
 438 960 438 960 420 913 c 0,25,26
 368 772 368 772 368 548 c 0,27,28
 368 361 368 361 448 226 c 0,29,30
 488 159 488 159 552.5 119 c 128,-1,31
 617 79 617 79 700.5 79 c 128,-1,32
 784 79 784 79 853.5 101.5 c 128,-1,33
 923 124 923 124 970 160.5 c 128,-1,34
 1017 197 1017 197 1052 250 c 0,35,36
 1158 411 1158 411 1158 678 c 0,37,38
 1158 878 1158 878 1077 1020 c 0,39,40
 1037 1090 1037 1090 971 1133 c 128,-1,19
 905 1176 905 1176 829.5 1176 c 128,-1,20
EndSplineSet
Colour: ffff
EndChar

StartChar: uni00D3
Encoding: 211 211 119
Width: 1322
VWidth: 0
Flags: HMW
LayerCount: 2
Back
SplineSet
73 619 m 0,0,1
 73 911 73 911 248 1091.5 c 0
 423 1272 423 1272 718 1272 c 0,2,3
 850 1272 850 1272 960.5 1219.5 c 0
 1071 1167 1071 1167 1143.5 1077 c 0
 1216 987 1216 987 1256 869 c 0
 1296 751 1296 751 1296 619 c 0,4,5
 1296 489 1296 489 1252.5 372.5 c 0
 1209 256 1209 256 1129 167 c 0
 1049 78 1049 78 924.5 25.5 c 0
 800 -27 800 -27 649 -27 c 0,6,7
 480 -27 480 -27 347.5 59 c 0
 215 145 215 145 144 292 c 0
 73 439 73 439 73 619 c 0,0,1
295 676 m 0,8,9
 295 585 295 585 309 501 c 0
 323 417 323 417 354.5 339.5 c 0
 386 262 386 262 431.5 204.5 c 0
 477 147 477 147 545.5 113 c 0
 614 79 614 79 698 79 c 0,10,11
 786 79 786 79 853.5 107.5 c 0
 921 136 921 136 961.5 182.5 c 0
 1002 229 1002 229 1028 295 c 0
 1054 361 1054 361 1063.5 428 c 0
 1073 495 1073 495 1073 573 c 0,12,13
 1073 661 1073 661 1059 744.5 c 0
 1045 828 1045 828 1013.5 907 c 0
 982 986 982 986 936 1045.5 c 0
 890 1105 890 1105 821.5 1140.5 c 0
 753 1176 753 1176 670 1176 c 0,14,15
 295 1176 295 1176 295 676 c 0,8,9
574 1380 m 1,16,-1
 696 1705 l 1,17,-1
 808 1666 l 1,18,-1
 624 1348 l 1,19,-1
 574 1380 l 1,16,-1
EndSplineSet
Fore
SplineSet
835 1427 m 1,0,-1
 958 1752 l 1,1,-1
 1069 1713 l 1,2,-1
 886 1395 l 1,3,-1
 835 1427 l 1,0,-1
1382 705 m 128,-1,5
 1382 574 1382 574 1333.5 439.5 c 128,-1,6
 1285 305 1285 305 1195 200.5 c 128,-1,7
 1105 96 1105 96 964.5 35 c 128,-1,8
 824 -26 824 -26 674 -26 c 0,9,10
 393 -26 393 -26 266 126.5 c 128,-1,11
 139 279 139 279 139 508 c 128,-1,12
 139 737 139 737 225.5 908 c 128,-1,13
 312 1079 312 1079 478 1176 c 128,-1,14
 644 1273 644 1273 867 1273 c 0,15,16
 994 1273 994 1273 1094 1228.5 c 128,-1,17
 1194 1184 1194 1184 1256 1107.5 c 128,-1,18
 1318 1031 1318 1031 1350 933.5 c 128,-1,4
 1382 836 1382 836 1382 705 c 128,-1,5
829.5 1176 m 128,-1,20
 754 1176 754 1176 697 1162.5 c 128,-1,21
 640 1149 640 1149 597 1126 c 128,-1,22
 554 1103 554 1103 519.5 1068.5 c 128,-1,23
 485 1034 485 1034 461.5 997 c 128,-1,24
 438 960 438 960 420 913 c 0,25,26
 368 772 368 772 368 548 c 0,27,28
 368 361 368 361 448 226 c 0,29,30
 488 159 488 159 552.5 119 c 128,-1,31
 617 79 617 79 700.5 79 c 128,-1,32
 784 79 784 79 853.5 101.5 c 128,-1,33
 923 124 923 124 970 160.5 c 128,-1,34
 1017 197 1017 197 1052 250 c 0,35,36
 1158 411 1158 411 1158 678 c 0,37,38
 1158 878 1158 878 1077 1020 c 0,39,40
 1037 1090 1037 1090 971 1133 c 128,-1,19
 905 1176 905 1176 829.5 1176 c 128,-1,20
EndSplineSet
Colour: ffff
EndChar

StartChar: uni00D4
Encoding: 212 212 120
Width: 1322
VWidth: 0
Flags: HMW
LayerCount: 2
Back
SplineSet
61 619 m 0,0,1
 61 911 61 911 236 1091.5 c 0
 411 1272 411 1272 706 1272 c 0,2,3
 838 1272 838 1272 948.5 1219.5 c 0
 1059 1167 1059 1167 1131.5 1077 c 0
 1204 987 1204 987 1244 869 c 0
 1284 751 1284 751 1284 619 c 0,4,5
 1284 489 1284 489 1240.5 372.5 c 0
 1197 256 1197 256 1116.5 167 c 0
 1036 78 1036 78 911.5 25.5 c 0
 787 -27 787 -27 636 -27 c 0,6,7
 467 -27 467 -27 335 59 c 0
 203 145 203 145 132 292 c 0
 61 439 61 439 61 619 c 0,0,1
283 676 m 0,8,9
 283 585 283 585 297 501 c 0
 311 417 311 417 342.5 339.5 c 0
 374 262 374 262 419.5 204.5 c 0
 465 147 465 147 533.5 113 c 0
 602 79 602 79 686 79 c 0,10,11
 774 79 774 79 841.5 107.5 c 0
 909 136 909 136 950 182.5 c 0
 991 229 991 229 1017 295 c 0
 1043 361 1043 361 1052.5 428 c 0
 1062 495 1062 495 1062 573 c 0,12,13
 1062 661 1062 661 1048 745 c 0
 1034 829 1034 829 1002 907.5 c 0
 970 986 970 986 924.5 1045.5 c 0
 879 1105 879 1105 810 1140.5 c 0
 741 1176 741 1176 658 1176 c 0,14,15
 283 1176 283 1176 283 676 c 0,8,9
484 1392 m 1,16,-1
 652 1572 l 1,17,-1
 707 1585 l 1,18,-1
 885 1400 l 1,19,-1
 836 1364 l 1,20,-1
 672 1472 l 1,21,-1
 662 1472 l 1,22,-1
 522 1361 l 1,23,-1
 484 1392 l 1,16,-1
EndSplineSet
Fore
SplineSet
691 1425 m 1,0,-1
 859 1604 l 1,1,-1
 914 1619 l 1,2,-1
 1092 1433 l 1,3,-1
 1043 1396 l 1,4,-1
 880 1506 l 1,5,-1
 869 1506 l 1,6,-1
 730 1395 l 1,7,-1
 691 1425 l 1,0,-1
1382 705 m 128,-1,9
 1382 574 1382 574 1333.5 439.5 c 128,-1,10
 1285 305 1285 305 1195 200.5 c 128,-1,11
 1105 96 1105 96 964.5 35 c 128,-1,12
 824 -26 824 -26 674 -26 c 0,13,14
 393 -26 393 -26 266 126.5 c 128,-1,15
 139 279 139 279 139 508 c 128,-1,16
 139 737 139 737 225.5 908 c 128,-1,17
 312 1079 312 1079 478 1176 c 128,-1,18
 644 1273 644 1273 867 1273 c 0,19,20
 994 1273 994 1273 1094 1228.5 c 128,-1,21
 1194 1184 1194 1184 1256 1107.5 c 128,-1,22
 1318 1031 1318 1031 1350 933.5 c 128,-1,8
 1382 836 1382 836 1382 705 c 128,-1,9
829.5 1176 m 128,-1,24
 754 1176 754 1176 697 1162.5 c 128,-1,25
 640 1149 640 1149 597 1126 c 128,-1,26
 554 1103 554 1103 519.5 1068.5 c 128,-1,27
 485 1034 485 1034 461.5 997 c 128,-1,28
 438 960 438 960 420 913 c 0,29,30
 368 772 368 772 368 548 c 0,31,32
 368 361 368 361 448 226 c 0,33,34
 488 159 488 159 552.5 119 c 128,-1,35
 617 79 617 79 700.5 79 c 128,-1,36
 784 79 784 79 853.5 101.5 c 128,-1,37
 923 124 923 124 970 160.5 c 128,-1,38
 1017 197 1017 197 1052 250 c 0,39,40
 1158 411 1158 411 1158 678 c 0,41,42
 1158 878 1158 878 1077 1020 c 0,43,44
 1037 1090 1037 1090 971 1133 c 128,-1,23
 905 1176 905 1176 829.5 1176 c 128,-1,24
EndSplineSet
Colour: ffff
EndChar

StartChar: uni00D5
Encoding: 213 213 121
Width: 1322
VWidth: 0
Flags: HMW
LayerCount: 2
Back
SplineSet
61 619 m 0,0,1
 61 911 61 911 236 1091.5 c 0
 411 1272 411 1272 706 1272 c 0,2,3
 838 1272 838 1272 948.5 1219.5 c 0
 1059 1167 1059 1167 1131.5 1077 c 0
 1204 987 1204 987 1244 869 c 0
 1284 751 1284 751 1284 619 c 0,4,5
 1284 489 1284 489 1240.5 372.5 c 0
 1197 256 1197 256 1116.5 167 c 0
 1036 78 1036 78 911.5 25.5 c 0
 787 -27 787 -27 636 -27 c 0,6,7
 467 -27 467 -27 335 59 c 0
 203 145 203 145 132 292 c 0
 61 439 61 439 61 619 c 0,0,1
283 676 m 0,8,9
 283 585 283 585 297 501 c 0
 311 417 311 417 342.5 339.5 c 0
 374 262 374 262 419.5 204.5 c 0
 465 147 465 147 533.5 113 c 0
 602 79 602 79 686 79 c 0,10,11
 774 79 774 79 841.5 107.5 c 0
 909 136 909 136 950 182.5 c 0
 991 229 991 229 1017 295 c 0
 1043 361 1043 361 1052.5 428 c 0
 1062 495 1062 495 1062 573 c 0,12,13
 1062 661 1062 661 1048 745 c 0
 1034 829 1034 829 1002 907.5 c 0
 970 986 970 986 924.5 1045.5 c 0
 879 1105 879 1105 810 1140.5 c 0
 741 1176 741 1176 658 1176 c 0,14,15
 283 1176 283 1176 283 676 c 0,8,9
448 1383 m 1,16,17
 449 1389 449 1389 452 1398.5 c 0
 455 1408 455 1408 465 1432.5 c 0
 475 1457 475 1457 487.5 1476 c 0
 500 1495 500 1495 521.5 1510.5 c 0
 543 1526 543 1526 568 1526 c 2,18,19
 581 1526 l 1,20,-1
 805 1496 l 1,21,-1
 810 1496 l 2,22,23
 821 1496 821 1496 835 1506 c 0
 849 1516 849 1516 857.5 1526 c 2
 866 1536 l 1,24,-1
 913 1535 l 1,25,26
 911 1529 911 1529 908 1519.5 c 0
 905 1510 905 1510 893.5 1485 c 0
 882 1460 882 1460 868.5 1441 c 0
 855 1422 855 1422 832 1406.5 c 0
 809 1391 809 1391 783 1391 c 0,27,28
 775 1391 775 1391 771 1392 c 2,29,-1
 547 1423 l 1,30,-1
 546 1423 l 2,31,32
 534 1423 534 1423 518.5 1411.5 c 0
 503 1400 503 1400 494 1388 c 2
 485 1376 l 1,33,-1
 448 1383 l 1,16,17
EndSplineSet
Fore
SplineSet
666 1404 m 1,0,1
 691 1500 691 1500 751 1535 c 0,2,3
 775 1549 775 1549 802 1546 c 2,4,-1
 1028 1517 l 2,5,6
 1050 1514 1050 1514 1084 1557 c 1,7,-1
 1133 1555 l 1,8,9
 1104 1458 1104 1458 1042 1423 c 0,10,11
 1017 1409 1017 1409 989 1412 c 2,12,-1
 764 1444 l 2,13,14
 739 1448 739 1448 705 1395 c 1,15,-1
 666 1404 l 1,0,1
1382 705 m 128,-1,17
 1382 574 1382 574 1333.5 439.5 c 128,-1,18
 1285 305 1285 305 1195 200.5 c 128,-1,19
 1105 96 1105 96 964.5 35 c 128,-1,20
 824 -26 824 -26 674 -26 c 0,21,22
 393 -26 393 -26 266 126.5 c 128,-1,23
 139 279 139 279 139 508 c 128,-1,24
 139 737 139 737 225.5 908 c 128,-1,25
 312 1079 312 1079 478 1176 c 128,-1,26
 644 1273 644 1273 867 1273 c 0,27,28
 994 1273 994 1273 1094 1228.5 c 128,-1,29
 1194 1184 1194 1184 1256 1107.5 c 128,-1,30
 1318 1031 1318 1031 1350 933.5 c 128,-1,16
 1382 836 1382 836 1382 705 c 128,-1,17
829.5 1176 m 128,-1,32
 754 1176 754 1176 697 1162.5 c 128,-1,33
 640 1149 640 1149 597 1126 c 128,-1,34
 554 1103 554 1103 519.5 1068.5 c 128,-1,35
 485 1034 485 1034 461.5 997 c 128,-1,36
 438 960 438 960 420 913 c 0,37,38
 368 772 368 772 368 548 c 0,39,40
 368 361 368 361 448 226 c 0,41,42
 488 159 488 159 552.5 119 c 128,-1,43
 617 79 617 79 700.5 79 c 128,-1,44
 784 79 784 79 853.5 101.5 c 128,-1,45
 923 124 923 124 970 160.5 c 128,-1,46
 1017 197 1017 197 1052 250 c 0,47,48
 1158 411 1158 411 1158 678 c 0,49,50
 1158 878 1158 878 1077 1020 c 0,51,52
 1037 1090 1037 1090 971 1133 c 128,-1,31
 905 1176 905 1176 829.5 1176 c 128,-1,32
EndSplineSet
Colour: ffff
EndChar

StartChar: uni00D6
Encoding: 214 214 122
Width: 1322
VWidth: 0
Flags: HMW
LayerCount: 2
Back
SplineSet
61 619 m 0,0,1
 61 911 61 911 236 1091.5 c 0
 411 1272 411 1272 706 1272 c 0,2,3
 838 1272 838 1272 948.5 1219.5 c 0
 1059 1167 1059 1167 1131.5 1077 c 0
 1204 987 1204 987 1244 869 c 0
 1284 751 1284 751 1284 619 c 0,4,5
 1284 489 1284 489 1240.5 372.5 c 0
 1197 256 1197 256 1116.5 167 c 0
 1036 78 1036 78 911.5 25.5 c 0
 787 -27 787 -27 636 -27 c 0,6,7
 467 -27 467 -27 335 59 c 0
 203 145 203 145 132 292 c 0
 61 439 61 439 61 619 c 0,0,1
283 676 m 0,8,9
 283 585 283 585 297 501 c 0
 311 417 311 417 342.5 339.5 c 0
 374 262 374 262 419.5 204.5 c 0
 465 147 465 147 533.5 113 c 0
 602 79 602 79 686 79 c 0,10,11
 774 79 774 79 841.5 107.5 c 0
 909 136 909 136 950 182.5 c 0
 991 229 991 229 1017 295 c 0
 1043 361 1043 361 1052.5 428 c 0
 1062 495 1062 495 1062 573 c 0,12,13
 1062 661 1062 661 1048 745 c 0
 1034 829 1034 829 1002 907.5 c 0
 970 986 970 986 924.5 1045.5 c 0
 879 1105 879 1105 810 1140.5 c 0
 741 1176 741 1176 658 1176 c 0,14,15
 283 1176 283 1176 283 676 c 0,8,9
463 1453 m 0,16,17
 463 1487 463 1487 489 1508.5 c 0
 515 1530 515 1530 547 1530 c 0,18,19
 581 1530 581 1530 606.5 1508 c 0
 632 1486 632 1486 632 1453 c 0,20,21
 632 1418 632 1418 606.5 1395.5 c 0
 581 1373 581 1373 547 1373 c 0,22,23
 513 1373 513 1373 488 1395.5 c 0
 463 1418 463 1418 463 1453 c 0,16,17
730 1453 m 0,24,25
 730 1487 730 1487 756 1508.5 c 0
 782 1530 782 1530 814 1530 c 0,26,27
 849 1530 849 1530 875.5 1508 c 0
 902 1486 902 1486 902 1453 c 0,28,29
 902 1418 902 1418 875.5 1395.5 c 0
 849 1373 849 1373 814 1373 c 0,30,31
 780 1373 780 1373 755 1395.5 c 0
 730 1418 730 1418 730 1453 c 0,24,25
EndSplineSet
Fore
SplineSet
778.5 1553 m 128,-1,1
 812 1553 812 1553 833.5 1531.5 c 128,-1,2
 855 1510 855 1510 849.5 1475 c 128,-1,3
 844 1440 844 1440 816 1417.5 c 128,-1,4
 788 1395 788 1395 753.5 1395 c 128,-1,5
 719 1395 719 1395 696.5 1417.5 c 128,-1,6
 674 1440 674 1440 679.5 1475 c 128,-1,7
 685 1510 685 1510 715 1531.5 c 128,-1,0
 745 1553 745 1553 778.5 1553 c 128,-1,1
1046 1553 m 128,-1,9
 1080 1553 1080 1553 1102 1531.5 c 128,-1,10
 1124 1510 1124 1510 1118.5 1475 c 128,-1,11
 1113 1440 1113 1440 1084 1417.5 c 128,-1,12
 1055 1395 1055 1395 1020.5 1395 c 128,-1,13
 986 1395 986 1395 964 1417.5 c 128,-1,14
 942 1440 942 1440 947.5 1475 c 128,-1,15
 953 1510 953 1510 982.5 1531.5 c 128,-1,8
 1012 1553 1012 1553 1046 1553 c 128,-1,9
1382 705 m 128,-1,17
 1382 574 1382 574 1333.5 439.5 c 128,-1,18
 1285 305 1285 305 1195 200.5 c 128,-1,19
 1105 96 1105 96 964.5 35 c 128,-1,20
 824 -26 824 -26 674 -26 c 0,21,22
 393 -26 393 -26 266 126.5 c 128,-1,23
 139 279 139 279 139 508 c 128,-1,24
 139 737 139 737 225.5 908 c 128,-1,25
 312 1079 312 1079 478 1176 c 128,-1,26
 644 1273 644 1273 867 1273 c 0,27,28
 994 1273 994 1273 1094 1228.5 c 128,-1,29
 1194 1184 1194 1184 1256 1107.5 c 128,-1,30
 1318 1031 1318 1031 1350 933.5 c 128,-1,16
 1382 836 1382 836 1382 705 c 128,-1,17
829.5 1176 m 128,-1,32
 754 1176 754 1176 697 1162.5 c 128,-1,33
 640 1149 640 1149 597 1126 c 128,-1,34
 554 1103 554 1103 519.5 1068.5 c 128,-1,35
 485 1034 485 1034 461.5 997 c 128,-1,36
 438 960 438 960 420 913 c 0,37,38
 368 772 368 772 368 548 c 0,39,40
 368 361 368 361 448 226 c 0,41,42
 488 159 488 159 552.5 119 c 128,-1,43
 617 79 617 79 700.5 79 c 128,-1,44
 784 79 784 79 853.5 101.5 c 128,-1,45
 923 124 923 124 970 160.5 c 128,-1,46
 1017 197 1017 197 1052 250 c 0,47,48
 1158 411 1158 411 1158 678 c 0,49,50
 1158 878 1158 878 1077 1020 c 0,51,52
 1037 1090 1037 1090 971 1133 c 128,-1,31
 905 1176 905 1176 829.5 1176 c 128,-1,32
EndSplineSet
Colour: ffff
EndChar

StartChar: uni00D9
Encoding: 217 217 123
Width: 1369
VWidth: 0
Flags: HMW
LayerCount: 2
Back
SplineSet
475 1659 m 1,0,-1
 590 1697 l 1,1,-1
 722 1364 l 1,2,-1
 666 1329 l 1,3,-1
 475 1659 l 1,0,-1
37 1168 m 1,4,-1
 50 1244 l 1,5,-1
 592 1244 l 1,6,-1
 583 1168 l 1,7,-1
 414 1130 l 1,8,-1
 414 510 l 2,9,10
 414 304 414 304 507.5 204.5 c 0
 601 105 601 105 762 105 c 0,11,12
 918 105 918 105 1002 198 c 0
 1086 291 1086 291 1087 482 c 2,13,-1
 1090 1126 l 1,14,-1
 907 1168 l 1,15,-1
 917 1244 l 1,16,-1
 1395 1244 l 1,17,-1
 1384 1168 l 1,18,-1
 1218 1130 l 1,19,-1
 1213 515 l 2,20,21
 1211 241 1211 241 1090 107 c 0
 969 -27 969 -27 712 -27 c 0,22,23
 635 -27 635 -27 571.5 -16.5 c 0
 508 -6 508 -6 440.5 26.5 c 0
 373 59 373 59 326.5 112 c 0
 280 165 280 165 250.5 256 c 0
 221 347 221 347 221 469 c 2,24,-1
 221 1126 l 1,25,-1
 37 1168 l 1,4,-1
EndSplineSet
Fore
SplineSet
721 1725 m 1,0,-1
 836 1763 l 1,1,-1
 968 1430 l 1,2,-1
 912 1395 l 1,3,-1
 721 1725 l 1,0,-1
748 92 m 0,4,5
 834 92 834 92 901 118.5 c 128,-1,6
 968 145 968 145 1007 183 c 0,7,8
 1103 276 1103 276 1135 481 c 2,9,-1
 1237 1126 l 1,10,-1
 1062 1168 l 1,11,-1
 1082 1244 l 1,12,-1
 1561 1244 l 1,13,-1
 1539 1168 l 1,14,-1
 1366 1130 l 1,15,-1
 1262 499 l 2,16,17
 1175 -26 1175 -26 662 -26 c 0,18,19
 525 -26 525 -26 438 19.5 c 128,-1,20
 351 65 351 65 314 127 c 0,21,22
 258 221 258 221 258 305.5 c 128,-1,23
 258 390 258 390 268 469 c 1,24,-1
 372 1126 l 1,25,-1
 192 1168 l 1,26,-1
 215 1244 l 1,27,-1
 756 1244 l 1,28,-1
 737 1168 l 1,29,-1
 562 1130 l 1,30,-1
 462 494 l 2,31,32
 430 288 430 288 508 190 c 128,-1,33
 586 92 586 92 748 92 c 0,4,5
EndSplineSet
Colour: ffff
EndChar

StartChar: uni00DA
Encoding: 218 218 124
Width: 1369
VWidth: 0
Flags: HMW
LayerCount: 2
Back
SplineSet
633 1380 m 1,0,-1
 756 1705 l 1,1,-1
 867 1666 l 1,2,-1
 684 1348 l 1,3,-1
 633 1380 l 1,0,-1
633 1380 m 1,4,-1
 756 1705 l 1,5,-1
 867 1666 l 1,6,-1
 684 1348 l 1,7,-1
 633 1380 l 1,4,-1
37 1168 m 1,8,-1
 50 1244 l 1,9,-1
 592 1244 l 1,10,-1
 583 1168 l 1,11,-1
 414 1130 l 1,12,-1
 414 510 l 2,13,14
 414 304 414 304 507.5 204.5 c 0
 601 105 601 105 762 105 c 0,15,16
 918 105 918 105 1002 198 c 0
 1086 291 1086 291 1087 482 c 2,17,-1
 1090 1126 l 1,18,-1
 907 1168 l 1,19,-1
 917 1244 l 1,20,-1
 1395 1244 l 1,21,-1
 1384 1168 l 1,22,-1
 1218 1130 l 1,23,-1
 1213 515 l 2,24,25
 1211 241 1211 241 1090 107 c 0
 969 -27 969 -27 712 -27 c 0,26,27
 635 -27 635 -27 571.5 -16.5 c 0
 508 -6 508 -6 440.5 26.5 c 0
 373 59 373 59 326.5 112 c 0
 280 165 280 165 250.5 256 c 0
 221 347 221 347 221 469 c 2,28,-1
 221 1126 l 1,29,-1
 37 1168 l 1,8,-1
EndSplineSet
Fore
SplineSet
861 1427 m 1,0,-1
 984 1752 l 1,1,-1
 1095 1713 l 1,2,-1
 912 1395 l 1,3,-1
 861 1427 l 1,0,-1
748 92 m 0,4,5
 834 92 834 92 901 118.5 c 128,-1,6
 968 145 968 145 1007 183 c 0,7,8
 1103 276 1103 276 1135 481 c 2,9,-1
 1237 1126 l 1,10,-1
 1062 1168 l 1,11,-1
 1082 1244 l 1,12,-1
 1561 1244 l 1,13,-1
 1539 1168 l 1,14,-1
 1366 1130 l 1,15,-1
 1262 499 l 2,16,17
 1175 -26 1175 -26 662 -26 c 0,18,19
 525 -26 525 -26 438 19.5 c 128,-1,20
 351 65 351 65 314 127 c 0,21,22
 258 221 258 221 258 305.5 c 128,-1,23
 258 390 258 390 268 469 c 1,24,-1
 372 1126 l 1,25,-1
 192 1168 l 1,26,-1
 215 1244 l 1,27,-1
 756 1244 l 1,28,-1
 737 1168 l 1,29,-1
 562 1130 l 1,30,-1
 462 494 l 2,31,32
 430 288 430 288 508 190 c 128,-1,33
 586 92 586 92 748 92 c 0,4,5
EndSplineSet
Colour: ffff
EndChar

StartChar: uni00DB
Encoding: 219 219 125
Width: 1369
VWidth: 0
Flags: HMW
LayerCount: 2
Back
SplineSet
22 1168 m 1,0,-1
 35 1244 l 1,1,-1
 577 1244 l 1,2,-1
 568 1168 l 1,3,-1
 399 1130 l 1,4,-1
 399 510 l 2,5,6
 399 304 399 304 492.5 204.5 c 0
 586 105 586 105 747 105 c 0,7,8
 903 105 903 105 987 198 c 0
 1071 291 1071 291 1072 482 c 2,9,-1
 1075 1126 l 1,10,-1
 892 1168 l 1,11,-1
 902 1244 l 1,12,-1
 1380 1244 l 1,13,-1
 1369 1168 l 1,14,-1
 1203 1130 l 1,15,-1
 1198 515 l 2,16,17
 1196 241 1196 241 1075 107 c 0
 954 -27 954 -27 697 -27 c 0,18,19
 620 -27 620 -27 556.5 -16.5 c 0
 493 -6 493 -6 425.5 26.5 c 0
 358 59 358 59 311.5 112 c 0
 265 165 265 165 235.5 256 c 0
 206 347 206 347 206 469 c 2,20,-1
 206 1126 l 1,21,-1
 22 1168 l 1,0,-1
537 1392 m 1,22,-1
 704 1572 l 1,23,-1
 759 1585 l 1,24,-1
 937 1400 l 1,25,-1
 887 1364 l 1,26,-1
 724 1472 l 1,27,-1
 713 1472 l 1,28,-1
 574 1361 l 1,29,-1
 537 1392 l 1,22,-1
EndSplineSet
Fore
SplineSet
717 1425 m 1,0,-1
 885 1604 l 1,1,-1
 940 1619 l 1,2,-1
 1118 1433 l 1,3,-1
 1069 1396 l 1,4,-1
 906 1506 l 1,5,-1
 895 1506 l 1,6,-1
 756 1395 l 1,7,-1
 717 1425 l 1,0,-1
748 92 m 0,8,9
 834 92 834 92 901 118.5 c 128,-1,10
 968 145 968 145 1007 183 c 0,11,12
 1103 276 1103 276 1135 481 c 2,13,-1
 1237 1126 l 1,14,-1
 1062 1168 l 1,15,-1
 1082 1244 l 1,16,-1
 1561 1244 l 1,17,-1
 1539 1168 l 1,18,-1
 1366 1130 l 1,19,-1
 1262 499 l 2,20,21
 1175 -26 1175 -26 662 -26 c 0,22,23
 525 -26 525 -26 438 19.5 c 128,-1,24
 351 65 351 65 314 127 c 0,25,26
 258 221 258 221 258 305.5 c 128,-1,27
 258 390 258 390 268 469 c 1,28,-1
 372 1126 l 1,29,-1
 192 1168 l 1,30,-1
 215 1244 l 1,31,-1
 756 1244 l 1,32,-1
 737 1168 l 1,33,-1
 562 1130 l 1,34,-1
 462 494 l 2,35,36
 430 288 430 288 508 190 c 128,-1,37
 586 92 586 92 748 92 c 0,8,9
EndSplineSet
Colour: ffff
EndChar

StartChar: uni00DC
Encoding: 220 220 126
Width: 1369
VWidth: 0
Flags: HMW
LayerCount: 2
Back
SplineSet
22 1168 m 1,0,-1
 35 1244 l 1,1,-1
 577 1244 l 1,2,-1
 568 1168 l 1,3,-1
 399 1130 l 1,4,-1
 399 510 l 2,5,6
 399 304 399 304 492.5 204.5 c 0
 586 105 586 105 747 105 c 0,7,8
 903 105 903 105 987 198 c 0
 1071 291 1071 291 1072 482 c 2,9,-1
 1075 1126 l 1,10,-1
 892 1168 l 1,11,-1
 902 1244 l 1,12,-1
 1380 1244 l 1,13,-1
 1369 1168 l 1,14,-1
 1203 1130 l 1,15,-1
 1198 515 l 2,16,17
 1196 241 1196 241 1075 107 c 0
 954 -27 954 -27 697 -27 c 0,18,19
 620 -27 620 -27 556.5 -16.5 c 0
 493 -6 493 -6 425.5 26.5 c 0
 358 59 358 59 311.5 112 c 0
 265 165 265 165 235.5 256 c 0
 206 347 206 347 206 469 c 2,20,-1
 206 1126 l 1,21,-1
 22 1168 l 1,0,-1
515 1453 m 0,22,23
 515 1487 515 1487 540.5 1508.5 c 0
 566 1530 566 1530 598 1530 c 0,24,25
 632 1530 632 1530 658 1508 c 0
 684 1486 684 1486 684 1453 c 0,26,27
 684 1418 684 1418 658.5 1395.5 c 0
 633 1373 633 1373 598 1373 c 0,28,29
 564 1373 564 1373 539.5 1395.5 c 0
 515 1418 515 1418 515 1453 c 0,22,23
782 1453 m 0,30,31
 782 1487 782 1487 808 1508.5 c 0
 834 1530 834 1530 866 1530 c 0,32,33
 900 1530 900 1530 926.5 1508 c 0
 953 1486 953 1486 953 1453 c 0,34,35
 953 1418 953 1418 927 1395.5 c 0
 901 1373 901 1373 866 1373 c 0,36,37
 832 1373 832 1373 807 1395.5 c 0
 782 1418 782 1418 782 1453 c 0,30,31
EndSplineSet
Fore
SplineSet
804 1553 m 128,-1,1
 838 1553 838 1553 859 1531.5 c 128,-1,2
 880 1510 880 1510 875 1475 c 128,-1,3
 870 1440 870 1440 841.5 1417.5 c 128,-1,4
 813 1395 813 1395 778.5 1395 c 128,-1,5
 744 1395 744 1395 722 1417.5 c 128,-1,6
 700 1440 700 1440 705.5 1475 c 128,-1,7
 711 1510 711 1510 740.5 1531.5 c 128,-1,0
 770 1553 770 1553 804 1553 c 128,-1,1
1071.5 1553 m 128,-1,9
 1105 1553 1105 1553 1127 1531.5 c 128,-1,10
 1149 1510 1149 1510 1144 1475 c 128,-1,11
 1139 1440 1139 1440 1110 1417.5 c 128,-1,12
 1081 1395 1081 1395 1046 1395 c 128,-1,13
 1011 1395 1011 1395 989.5 1417.5 c 128,-1,14
 968 1440 968 1440 973.5 1475 c 128,-1,15
 979 1510 979 1510 1008.5 1531.5 c 128,-1,8
 1038 1553 1038 1553 1071.5 1553 c 128,-1,9
748 92 m 0,16,17
 834 92 834 92 901 118.5 c 128,-1,18
 968 145 968 145 1007 183 c 0,19,20
 1103 276 1103 276 1135 481 c 2,21,-1
 1237 1126 l 1,22,-1
 1062 1168 l 1,23,-1
 1082 1244 l 1,24,-1
 1561 1244 l 1,25,-1
 1539 1168 l 1,26,-1
 1366 1130 l 1,27,-1
 1262 499 l 2,28,29
 1175 -26 1175 -26 662 -26 c 0,30,31
 525 -26 525 -26 438 19.5 c 128,-1,32
 351 65 351 65 314 127 c 0,33,34
 258 221 258 221 258 305.5 c 128,-1,35
 258 390 258 390 268 469 c 1,36,-1
 372 1126 l 1,37,-1
 192 1168 l 1,38,-1
 215 1244 l 1,39,-1
 756 1244 l 1,40,-1
 737 1168 l 1,41,-1
 562 1130 l 1,42,-1
 462 494 l 2,43,44
 430 288 430 288 508 190 c 128,-1,45
 586 92 586 92 748 92 c 0,16,17
EndSplineSet
Colour: ffff
EndChar

StartChar: uni00DD
Encoding: 221 221 127
Width: 1210
VWidth: 0
Flags: HMW
LayerCount: 2
Back
SplineSet
455 1380 m 1,0,-1
 578 1705 l 1,1,-1
 689 1666 l 1,2,-1
 506 1348 l 1,3,-1
 455 1380 l 1,0,-1
-73 1168 m 1,4,-1
 -60 1244 l 1,5,-1
 448 1244 l 1,6,-1
 436 1168 l 1,7,-1
 278 1130 l 1,8,-1
 555 640 l 1,9,-1
 819 1126 l 1,10,-1
 636 1168 l 1,11,-1
 646 1244 l 1,12,-1
 1091 1244 l 1,13,-1
 1081 1168 l 1,14,-1
 956 1130 l 1,15,-1
 611 529 l 1,16,-1
 611 114 l 1,17,-1
 774 80 l 1,18,-1
 764 0 l 1,19,-1
 258 0 l 1,20,-1
 268 74 l 1,21,-1
 418 121 l 1,22,-1
 418 504 l 1,23,-1
 65 1126 l 1,24,-1
 -73 1168 l 1,4,-1
EndSplineSet
Fore
SplineSet
767 1427 m 1,0,-1
 890 1752 l 1,1,-1
 1001 1713 l 1,2,-1
 818 1395 l 1,3,-1
 767 1427 l 1,0,-1
798 528 m 1,4,-1
 733 114 l 1,5,-1
 892 81 l 1,6,-1
 869 0 l 1,7,-1
 362 0 l 1,8,-1
 383 74 l 1,9,-1
 542 121 l 1,10,-1
 603 505 l 1,11,-1
 345 1126 l 1,12,-1
 215 1168 l 1,13,-1
 239 1244 l 1,14,-1
 746 1244 l 1,15,-1
 723 1168 l 1,16,-1
 560 1130 l 1,17,-1
 760 641 l 1,18,-1
 1060 1126 l 1,19,-1
 883 1168 l 1,20,-1
 905 1244 l 1,21,-1
 1349 1244 l 1,22,-1
 1327 1168 l 1,23,-1
 1199 1130 l 1,24,-1
 798 528 l 1,4,-1
EndSplineSet
Colour: ffff
EndChar

StartChar: uni00E0
Encoding: 224 224 128
Width: 842
VWidth: 0
Flags: HMW
LayerCount: 2
Back
SplineSet
158 1291 m 1,0,-1
 273 1329 l 1,1,-1
 405 996 l 1,2,-1
 349 961 l 1,3,-1
 158 1291 l 1,0,-1
28 168 m 4,4,5
 28 225 28 225 55 276.5 c 0
 82 328 82 328 135.5 372.5 c 0
 189 417 189 417 280 447 c 0
 371 477 371 477 489 485 c 1,6,-1
 489 540 l 2,7,8
 489 594 489 594 480.5 639 c 0
 472 684 472 684 452.5 723.5 c 0
 433 763 433 763 397.5 785 c 0
 362 807 362 807 312 807 c 0,9,10
 284 807 284 807 266 801 c 0
 248 795 248 795 237 781 c 0
 226 767 226 767 220 743.5 c 0
 214 720 214 720 210 687 c 0
 206 654 206 654 202.364 608.061 c 0
 201 597 201 597 201 592 c 1,11,12
 180 592 180 592 165.5 593 c 0
 151 594 151 594 129.5 600 c 0
 108 606 108 606 95 616 c 0
 82 626 82 626 72 646.5 c 0
 62 667 62 667 62 695 c 0,13,14
 62 747 62 747 119 795.5 c 0
 176 844 176 844 255 872 c 0
 334 900 334 900 404 900 c 0,15,16
 536 900 536 900 593.5 826.5 c 0
 651 753 651 753 651 593 c 2,17,-1
 651 230 l 2,18,19
 651 160 651 160 672.5 133.5 c 0
 694 107 694 107 763 96 c 1,20,-1
 813 87 l 1,21,-1
 800 1 l 1,22,23
 792 0 792 0 745.5 -9 c 0
 699 -18 699 -18 664 -18 c 0,24,25
 585 -18 585 -18 547 23 c 0
 509 64 509 64 509 116 c 2,26,-1
 509 131 l 1,27,-1
 498 131 l 1,28,29
 486 107 486 107 466 83.5 c 0
 446 60 446 60 413.5 34 c 0
 381 8 381 8 331.5 -8 c 0
 282 -24 282 -24 224 -24 c 0,30,31
 142 -24 142 -24 85 28 c 0
 28 80 28 80 28 168 c 4,4,5
203 215 m 4,32,33
 203 173 203 173 233.5 136 c 0
 264 99 264 99 315 99 c 0,34,35
 363 99 363 99 411 127 c 0
 459 155 459 155 489 188 c 1,36,-1
 489 428 l 1,37,38
 333 397 333 397 268 344.5 c 0
 203 292 203 292 203 215 c 4,32,33
EndSplineSet
Fore
SplineSet
423 1345 m 1,0,-1
 538 1383 l 1,1,-1
 670 1050 l 1,2,-1
 614 1015 l 1,3,-1
 423 1345 l 1,0,-1
506.5 781 m 128,-1,5
 428 781 428 781 366.5 709.5 c 128,-1,6
 305 638 305 638 274.5 533.5 c 128,-1,7
 244 429 244 429 244 320 c 0,8,9
 244 106 244 106 365 106 c 0,10,11
 417 106 417 106 456.5 130.5 c 128,-1,12
 496 155 496 155 537 201 c 1,13,-1
 623 746 l 1,14,4
 585 781 585 781 506.5 781 c 128,-1,5
654 -17 m 128,-1,16
 586 -17 586 -17 550 25 c 128,-1,17
 514 67 514 67 532 132 c 1,18,-1
 520 132 l 1,19,20
 484 66 484 66 420 22.5 c 128,-1,21
 356 -21 356 -21 274 -21 c 128,-1,22
 192 -21 192 -21 137.5 58 c 128,-1,23
 83 137 83 137 83 262.5 c 128,-1,24
 83 388 83 388 115 488 c 0,25,26
 174 672 174 672 312.5 778.5 c 128,-1,27
 451 885 451 885 588 885 c 128,-1,28
 725 885 725 885 779 851 c 1,29,-1
 794 832 l 1,30,-1
 722 378 l 2,31,32
 690 168 690 168 708 125 c 0,33,34
 718 101 718 101 750 96 c 2,35,-1
 826 84 l 1,36,-1
 808 15 l 1,37,15
 722 -17 722 -17 654 -17 c 128,-1,16
EndSplineSet
Colour: ffff
EndChar

StartChar: uni00E1
Encoding: 225 225 129
Width: 842
VWidth: 0
Flags: HMW
LayerCount: 2
Back
SplineSet
47 168 m 0,0,1
 47 225 47 225 74 276.5 c 0
 101 328 101 328 154.5 372.5 c 0
 208 417 208 417 299 447 c 0
 390 477 390 477 508 485 c 1,2,-1
 508 540 l 2,3,4
 508 594 508 594 499.5 638.5 c 0
 491 683 491 683 471.5 722 c 0
 452 761 452 761 416.5 782.5 c 0
 381 804 381 804 331 804 c 0,5,6
 299 804 299 804 279.5 793 c 0
 260 782 260 782 249 752.5 c 0
 238 723 238 723 234 700.5 c 0
 230 678 230 678 223.91 625.844 c 0
 221 604 221 604 220 592 c 1,7,8
 199 592 199 592 184.5 593 c 0
 170 594 170 594 148.5 600 c 0
 127 606 127 606 114 616 c 0
 101 626 101 626 91 646.5 c 0
 81 667 81 667 81 695 c 0,9,10
 81 747 81 747 138 795.5 c 0
 195 844 195 844 274 872 c 0
 353 900 353 900 423 900 c 0,11,12
 555 900 555 900 612.5 826.5 c 0
 670 753 670 753 670 593 c 2,13,-1
 670 230 l 2,14,15
 670 160 670 160 691.5 133.5 c 0
 713 107 713 107 782 96 c 1,16,-1
 832 87 l 1,17,-1
 819 1 l 1,18,19
 811 0 811 0 764.5 -9 c 0
 718 -18 718 -18 683 -18 c 0,20,21
 604 -18 604 -18 566 23 c 0
 528 64 528 64 528 116 c 2,22,-1
 528 131 l 1,23,-1
 517 131 l 1,24,25
 505 107 505 107 485 83.5 c 0
 465 60 465 60 432.5 34 c 0
 400 8 400 8 350.5 -8 c 0
 301 -24 301 -24 243 -24 c 0,26,27
 161 -24 161 -24 104 28 c 0
 47 80 47 80 47 168 c 0,0,1
222 215 m 0,28,29
 222 173 222 173 252.5 136 c 0
 283 99 283 99 334 99 c 0,30,31
 382 99 382 99 430 127 c 0
 478 155 478 155 508 188 c 1,32,-1
 508 428 l 1,33,34
 352 397 352 397 287 344.5 c 0
 222 292 222 292 222 215 c 0,28,29
328 1017 m 1,35,-1
 451 1342 l 1,36,-1
 562 1302 l 1,37,-1
 380 985 l 1,38,-1
 328 1017 l 1,35,-1
EndSplineSet
Fore
SplineSet
563 1047 m 1,0,-1
 686 1372 l 1,1,-1
 797 1333 l 1,2,-1
 614 1015 l 1,3,-1
 563 1047 l 1,0,-1
506.5 781 m 128,-1,5
 428 781 428 781 366.5 709.5 c 128,-1,6
 305 638 305 638 274.5 533.5 c 128,-1,7
 244 429 244 429 244 320 c 0,8,9
 244 106 244 106 365 106 c 0,10,11
 417 106 417 106 456.5 130.5 c 128,-1,12
 496 155 496 155 537 201 c 1,13,-1
 623 746 l 1,14,4
 585 781 585 781 506.5 781 c 128,-1,5
654 -17 m 128,-1,16
 586 -17 586 -17 550 25 c 128,-1,17
 514 67 514 67 532 132 c 1,18,-1
 520 132 l 1,19,20
 484 66 484 66 420 22.5 c 128,-1,21
 356 -21 356 -21 274 -21 c 128,-1,22
 192 -21 192 -21 137.5 58 c 128,-1,23
 83 137 83 137 83 262.5 c 128,-1,24
 83 388 83 388 115 488 c 0,25,26
 174 672 174 672 312.5 778.5 c 128,-1,27
 451 885 451 885 588 885 c 128,-1,28
 725 885 725 885 779 851 c 1,29,-1
 794 832 l 1,30,-1
 722 378 l 2,31,32
 690 168 690 168 708 125 c 0,33,34
 718 101 718 101 750 96 c 2,35,-1
 826 84 l 1,36,-1
 808 15 l 1,37,15
 722 -17 722 -17 654 -17 c 128,-1,16
EndSplineSet
Colour: ffff
EndChar

StartChar: uni00E2
Encoding: 226 226 130
Width: 842
VWidth: 0
Flags: HMW
LayerCount: 2
Back
SplineSet
47 168 m 0,0,1
 47 225 47 225 74 276.5 c 0
 101 328 101 328 154.5 372.5 c 0
 208 417 208 417 299 447 c 0
 390 477 390 477 508 485 c 1,2,-1
 508 540 l 2,3,4
 508 594 508 594 499.5 638.5 c 0
 491 683 491 683 471.5 722 c 0
 452 761 452 761 416.5 782.5 c 0
 381 804 381 804 331 804 c 0,5,6
 299 804 299 804 279.5 793 c 0
 260 782 260 782 249 752.5 c 0
 238 723 238 723 234 700.5 c 0
 230 678 230 678 223.91 625.844 c 0
 221 604 221 604 220 592 c 1,7,8
 199 592 199 592 184.5 593 c 0
 170 594 170 594 148.5 600 c 0
 127 606 127 606 114 616 c 0
 101 626 101 626 91 646.5 c 0
 81 667 81 667 81 695 c 0,9,10
 81 747 81 747 138 795.5 c 0
 195 844 195 844 274 872 c 0
 353 900 353 900 423 900 c 0,11,12
 555 900 555 900 612.5 826.5 c 0
 670 753 670 753 670 593 c 2,13,-1
 670 230 l 2,14,15
 670 160 670 160 691.5 133.5 c 0
 713 107 713 107 782 96 c 1,16,-1
 832 87 l 1,17,-1
 819 1 l 1,18,19
 811 0 811 0 764.5 -9 c 0
 718 -18 718 -18 683 -18 c 0,20,21
 604 -18 604 -18 566 23 c 0
 528 64 528 64 528 116 c 2,22,-1
 528 131 l 1,23,-1
 517 131 l 1,24,25
 505 107 505 107 485 83.5 c 0
 465 60 465 60 432.5 34 c 0
 400 8 400 8 350.5 -8 c 0
 301 -24 301 -24 243 -24 c 0,26,27
 161 -24 161 -24 104 28 c 0
 47 80 47 80 47 168 c 0,0,1
211 1024 m 1,28,-1
 380 1203 l 1,29,-1
 434 1217 l 1,30,-1
 611 1032 l 1,31,-1
 562 995 l 1,32,-1
 399 1104 l 1,33,-1
 389 1104 l 1,34,-1
 249 993 l 1,35,-1
 211 1024 l 1,28,-1
222 215 m 0,36,37
 222 173 222 173 252.5 136 c 0
 283 99 283 99 334 99 c 0,38,39
 382 99 382 99 430 127 c 0
 478 155 478 155 508 188 c 1,40,-1
 508 428 l 1,41,42
 352 397 352 397 287 344.5 c 0
 222 292 222 292 222 215 c 0,36,37
EndSplineSet
Fore
SplineSet
419 1045 m 1,0,-1
 587 1224 l 1,1,-1
 642 1239 l 1,2,-1
 820 1053 l 1,3,-1
 771 1016 l 1,4,-1
 608 1126 l 1,5,-1
 597 1126 l 1,6,-1
 458 1015 l 1,7,-1
 419 1045 l 1,0,-1
506.5 781 m 128,-1,9
 428 781 428 781 366.5 709.5 c 128,-1,10
 305 638 305 638 274.5 533.5 c 128,-1,11
 244 429 244 429 244 320 c 0,12,13
 244 106 244 106 365 106 c 0,14,15
 417 106 417 106 456.5 130.5 c 128,-1,16
 496 155 496 155 537 201 c 1,17,-1
 623 746 l 1,18,8
 585 781 585 781 506.5 781 c 128,-1,9
654 -17 m 128,-1,20
 586 -17 586 -17 550 25 c 128,-1,21
 514 67 514 67 532 132 c 1,22,-1
 520 132 l 1,23,24
 484 66 484 66 420 22.5 c 128,-1,25
 356 -21 356 -21 274 -21 c 128,-1,26
 192 -21 192 -21 137.5 58 c 128,-1,27
 83 137 83 137 83 262.5 c 128,-1,28
 83 388 83 388 115 488 c 0,29,30
 174 672 174 672 312.5 778.5 c 128,-1,31
 451 885 451 885 588 885 c 128,-1,32
 725 885 725 885 779 851 c 1,33,-1
 794 832 l 1,34,-1
 722 378 l 2,35,36
 690 168 690 168 708 125 c 0,37,38
 718 101 718 101 750 96 c 2,39,-1
 826 84 l 1,40,-1
 808 15 l 1,41,19
 722 -17 722 -17 654 -17 c 128,-1,20
EndSplineSet
Colour: ffff
EndChar

